<?xml version="1.0" encoding="UTF-8"?>
<svg xmlns="http://www.w3.org/2000/svg" xmlns:xlink="http://www.w3.org/1999/xlink" width="375pt" height="374.999991pt" viewBox="0 0 375 374.999991" version="1.2">
<defs>
<clipPath id="clip1">
  <path d="M 23.164062 64 L 315 64 L 315 218 L 23.164062 218 Z M 23.164062 64 "/>
</clipPath>
<clipPath id="clip2">
  <path d="M 318 188 L 344.941406 188 L 344.941406 277 L 318 277 Z M 318 188 "/>
</clipPath>
<clipPath id="clip3">
  <path d="M 187.5 145 L 328 145 L 328 320 L 187.5 320 Z M 187.5 145 "/>
</clipPath>
<clipPath id="clip4">
  <path d="M 200 319 L 227 319 L 227 346.054688 L 200 346.054688 Z M 200 319 "/>
</clipPath>
<clipPath id="clip5">
  <path d="M 288 319 L 315 319 L 315 346.054688 L 288 346.054688 Z M 288 319 "/>
</clipPath>
<clipPath id="clip6">
  <path d="M 226 92.671875 L 289 92.671875 L 289 111 L 226 111 Z M 226 92.671875 "/>
</clipPath>
</defs>
<g id="surface1">
<path style=" stroke:none;fill-rule:nonzero;fill:rgb(0%,62.348938%,76.858521%);fill-opacity:1;" d="M 205.972656 199.605469 L 206.039062 199.730469 C 203.992188 200.808594 202.050781 201.71875 200.277344 202.449219 C 192.921875 205.492188 185.089844 206.484375 178.894531 206.5 C 185.367188 205.117188 191.449219 202.402344 196.976562 198.929688 C 201.570312 199.460938 205.972656 199.605469 205.972656 199.605469 "/>
<path style=" stroke:none;fill-rule:nonzero;fill:rgb(0%,62.348938%,76.858521%);fill-opacity:1;" d="M 206.75 191.597656 C 212.636719 191.730469 218.167969 191.636719 218.800781 191.617188 C 214.53125 194.859375 210.085938 197.617188 206.039062 199.730469 L 205.972656 199.605469 C 205.972656 199.605469 201.570312 199.460938 196.976562 198.929688 C 200.472656 196.742188 203.746094 194.25 206.75 191.597656 "/>
<path style=" stroke:none;fill-rule:nonzero;fill:rgb(0%,62.348938%,76.858521%);fill-opacity:1;" d="M 232.402344 178.210938 C 228.773438 183.203125 223.914062 187.757812 218.800781 191.617188 C 218.167969 191.636719 212.636719 191.730469 206.75 191.597656 C 210.386719 188.394531 213.632812 184.960938 216.429688 181.554688 C 224.136719 180.554688 231.890625 178.359375 232.402344 178.210938 "/>
<path style=" stroke:none;fill-rule:nonzero;fill:rgb(0%,62.348938%,76.858521%);fill-opacity:1;" d="M 239.160156 163.191406 C 238.671875 165.121094 238.019531 167.230469 237.171875 169.53125 C 236.074219 172.53125 234.429688 175.445312 232.402344 178.210938 C 231.890625 178.359375 224.136719 180.554688 216.429688 181.554688 C 219.917969 177.28125 222.675781 173.042969 224.542969 169.367188 C 232.554688 167.183594 238.566406 163.566406 239.160156 163.191406 "/>
<path style=" stroke:none;fill-rule:nonzero;fill:rgb(0%,62.348938%,76.858521%);fill-opacity:1;" d="M 240.171875 152.851562 C 240.503906 155.433594 240.25 158.851562 239.160156 163.191406 C 238.566406 163.566406 232.554688 167.183594 224.542969 169.367188 C 225.3125 167.878906 225.925781 166.476562 226.390625 165.199219 C 227.28125 162.714844 228.113281 160.484375 228.886719 158.503906 C 235.957031 155.847656 240.023438 152.871094 240.023438 152.871094 L 240.171875 152.851562 "/>
<path style=" stroke:none;fill-rule:nonzero;fill:rgb(0%,62.348938%,76.858521%);fill-opacity:1;" d="M 240.171875 152.851562 L 240.023438 152.871094 C 240.023438 152.871094 235.957031 155.847656 228.886719 158.503906 C 231.792969 150.992188 233.910156 147.101562 236.203125 146.742188 C 238.15625 147.3125 239.722656 149.269531 240.171875 152.851562 "/>
<path style=" stroke:none;fill-rule:nonzero;fill:rgb(0%,50.979614%,64.709473%);fill-opacity:1;" d="M 188.746094 197.308594 C 190.746094 198.0625 193.90625 198.582031 196.976562 198.929688 C 191.449219 202.402344 185.367188 205.117188 178.894531 206.5 C 175.226562 206.507812 172.128906 206.175781 170.035156 205.738281 C 176.996094 203.132812 183.257812 200.214844 188.664062 197.160156 L 188.746094 197.308594 "/>
<path style=" stroke:none;fill-rule:nonzero;fill:rgb(0%,50.979614%,64.709473%);fill-opacity:1;" d="M 198.242188 191.210938 C 200.796875 191.421875 203.820312 191.542969 206.75 191.597656 C 203.746094 194.25 200.472656 196.742188 196.976562 198.929688 C 193.90625 198.582031 190.746094 198.0625 188.746094 197.308594 L 188.664062 197.160156 C 192.207031 195.167969 195.378906 193.113281 198.128906 191.054688 L 198.242188 191.210938 "/>
<path style=" stroke:none;fill-rule:nonzero;fill:rgb(0%,50.979614%,64.709473%);fill-opacity:1;" d="M 216.429688 181.554688 C 213.632812 184.960938 210.386719 188.394531 206.75 191.597656 C 203.820312 191.542969 200.796875 191.421875 198.242188 191.210938 L 198.128906 191.054688 C 199.824219 189.796875 201.351562 188.535156 202.722656 187.285156 C 204.558594 185.601562 206.292969 183.804688 207.929688 181.925781 L 208.011719 182 C 210.53125 182.148438 213.476562 181.9375 216.429688 181.554688 "/>
<path style=" stroke:none;fill-rule:nonzero;fill:rgb(0%,50.979614%,64.709473%);fill-opacity:1;" d="M 216.28125 170.890625 C 219.171875 170.640625 221.960938 170.085938 224.542969 169.367188 C 222.675781 173.042969 219.917969 177.28125 216.429688 181.554688 C 213.476562 181.9375 210.53125 182.148438 208.011719 182 L 207.929688 181.925781 C 210.980469 178.449219 213.710938 174.683594 216.179688 170.824219 L 216.28125 170.890625 "/>
<path style=" stroke:none;fill-rule:nonzero;fill:rgb(0%,50.979614%,64.709473%);fill-opacity:1;" d="M 228.886719 158.503906 C 228.113281 160.484375 227.28125 162.714844 226.390625 165.199219 C 225.925781 166.476562 225.3125 167.878906 224.542969 169.367188 C 221.960938 170.085938 219.171875 170.640625 216.28125 170.890625 L 216.179688 170.824219 C 218.363281 167.433594 220.355469 163.972656 222.199219 160.558594 L 222.253906 160.59375 C 224.6875 159.964844 226.898438 159.25 228.886719 158.503906 "/>
<path style=" stroke:none;fill-rule:nonzero;fill:rgb(0%,50.979614%,64.709473%);fill-opacity:1;" d="M 235.8125 146.648438 C 235.941406 146.667969 236.074219 146.703125 236.203125 146.742188 C 233.910156 147.101562 231.792969 150.992188 228.886719 158.503906 C 226.898438 159.25 224.6875 159.964844 222.253906 160.59375 L 222.199219 160.558594 C 223.359375 158.414062 224.460938 156.292969 225.507812 154.230469 C 225.675781 153.933594 225.820312 153.632812 225.976562 153.339844 C 226 153.292969 226.023438 153.253906 226.050781 153.203125 C 228.132812 149.570312 231.972656 145.902344 235.8125 146.648438 "/>
<path style=" stroke:none;fill-rule:nonzero;fill:rgb(0%,50.979614%,64.709473%);fill-opacity:1;" d="M 143.964844 65.761719 C 156 65.25 169.03125 67.050781 181.089844 69.085938 C 174.085938 70.097656 168.359375 70.433594 165.3125 70.128906 C 165.3125 70.128906 165.304688 70.128906 165.300781 70.128906 C 155.417969 67.886719 144.550781 66.308594 132.597656 65.84375 C 135.753906 65.839844 139.628906 65.757812 143.957031 65.582031 L 143.964844 65.761719 "/>
<path style=" stroke:none;fill-rule:nonzero;fill:rgb(0%,50.979614%,64.709473%);fill-opacity:1;" d="M 201.167969 72.523438 C 191.417969 74.378906 183.058594 75.054688 181.421875 74.574219 L 181.421875 74.582031 C 176.367188 72.933594 171 71.417969 165.3125 70.128906 C 168.359375 70.433594 174.085938 70.097656 181.089844 69.085938 C 188.269531 70.296875 195.09375 71.589844 201.167969 72.523438 "/>
<path style=" stroke:none;fill-rule:nonzero;fill:rgb(0%,50.979614%,64.709473%);fill-opacity:1;" d="M 231.070312 71.324219 L 231.238281 71.394531 C 225.453125 84.378906 214.972656 87.089844 204.863281 83.78125 C 202.429688 82.679688 199.898438 81.566406 197.269531 80.46875 L 197.292969 80.402344 C 202.851562 82.4375 225.230469 76.46875 231.070312 71.324219 "/>
<path style=" stroke:none;fill-rule:nonzero;fill:rgb(0%,50.979614%,64.709473%);fill-opacity:1;" d="M 233.828125 60.203125 C 233.859375 63.128906 233.242188 66.574219 231.613281 70.507812 C 231.492188 70.808594 231.363281 71.105469 231.238281 71.394531 L 231.070312 71.324219 C 225.230469 76.46875 202.851562 82.4375 197.292969 80.402344 L 197.269531 80.46875 C 192.351562 78.417969 187.078125 76.417969 181.421875 74.582031 L 181.421875 74.574219 C 183.058594 75.054688 191.417969 74.378906 201.167969 72.523438 C 201.175781 72.523438 201.175781 72.523438 201.175781 72.523438 C 214.011719 74.511719 223.449219 74.882812 225.574219 69.496094 C 226.242188 67.804688 226.738281 66.160156 227.097656 64.59375 C 229.726562 63.257812 231.972656 61.804688 233.652344 60.210938 L 233.828125 60.203125 "/>
<path style=" stroke:none;fill-rule:nonzero;fill:rgb(0%,50.979614%,64.709473%);fill-opacity:1;" d="M 233.828125 60.203125 L 233.652344 60.210938 C 231.972656 61.804688 229.726562 63.257812 227.097656 64.59375 C 228.019531 60.535156 228 56.953125 227.472656 54.253906 C 228.742188 53.476562 229.9375 52.660156 231.070312 51.8125 L 231.324219 51.636719 C 232.730469 53.640625 233.792969 56.515625 233.828125 60.203125 "/>
<path style=" stroke:none;fill-rule:nonzero;fill:rgb(0%,50.979614%,64.709473%);fill-opacity:1;" d="M 305.101562 72.558594 C 307.089844 72.558594 309.164062 75.542969 308.242188 80.695312 L 308.117188 80.671875 C 307.859375 81.710938 306.4375 83.773438 303.671875 86.320312 C 306.929688 78.941406 307.121094 72.886719 305.101562 72.558594 "/>
<path style=" stroke:none;fill-rule:nonzero;fill:rgb(0%,50.979614%,64.709473%);fill-opacity:1;" d="M 308.117188 80.671875 L 308.242188 80.695312 C 307.984375 82.183594 307.464844 83.855469 306.625 85.683594 C 303.097656 93.386719 300.289062 98.941406 303.585938 105.6875 L 303.507812 105.730469 C 301.21875 105.632812 298.90625 105.597656 296.589844 105.625 C 296.898438 102.484375 296.550781 98.203125 299.84375 93.265625 C 301.414062 90.914062 302.6875 88.5625 303.664062 86.328125 L 303.671875 86.320312 C 306.4375 83.773438 307.859375 81.710938 308.117188 80.671875 "/>
<path style=" stroke:none;fill-rule:nonzero;fill:rgb(0%,50.979614%,64.709473%);fill-opacity:1;" d="M 313.546875 125.25 L 313.609375 125.25 C 313.574219 127.445312 312.875 129.195312 311.785156 130.390625 C 308.800781 133.636719 286.007812 121.171875 269.996094 119.007812 C 260.808594 117.761719 253.320312 119.644531 247.117188 123.722656 C 249.574219 121.527344 250.976562 118.449219 251.140625 115.074219 L 251.148438 115.074219 C 279.753906 111.859375 313.546875 116.605469 313.546875 125.25 "/>
<path style=" stroke:none;fill-rule:nonzero;fill:rgb(0%,50.979614%,64.709473%);fill-opacity:1;" d="M 306.902344 110.605469 C 311.859375 116.425781 313.691406 121.5 313.609375 125.25 L 313.546875 125.25 C 313.546875 116.605469 279.753906 111.859375 251.148438 115.074219 L 251.140625 115.074219 C 251.171875 114.457031 251.167969 113.832031 251.097656 113.195312 C 262.402344 111.152344 277.125 111.152344 287.429688 111.152344 C 295.117188 111.152344 296.246094 109.085938 296.589844 105.625 C 298.90625 105.597656 301.21875 105.632812 303.507812 105.730469 L 303.585938 105.6875 C 304.335938 107.25 305.425781 108.871094 306.902344 110.605469 "/>
<path style=" stroke:none;fill-rule:nonzero;fill:rgb(0%,62.348938%,76.858521%);fill-opacity:1;" d="M 296.589844 105.625 C 296.246094 109.085938 295.117188 111.152344 287.429688 111.152344 C 277.125 111.152344 262.402344 111.152344 251.097656 113.195312 C 251.058594 112.714844 250.996094 112.214844 250.898438 111.71875 L 251.007812 111.691406 C 251.007812 111.691406 273.910156 105.890625 296.589844 105.625 "/>
<path style=" stroke:none;fill-rule:nonzero;fill:rgb(0%,50.979614%,64.709473%);fill-opacity:1;" d="M 231.324219 51.636719 L 231.070312 51.8125 C 229.9375 52.660156 228.742188 53.476562 227.472656 54.253906 C 226.722656 50.480469 224.980469 48.425781 223.371094 49.242188 L 223.347656 49.199219 C 224.640625 48.558594 225.582031 48.226562 226.589844 48.296875 C 228 48.394531 229.851562 49.535156 231.324219 51.636719 "/>
<path style=" stroke:none;fill-rule:nonzero;fill:rgb(0%,62.348938%,76.858521%);fill-opacity:1;" d="M 305.101562 72.558594 C 307.121094 72.886719 306.929688 78.941406 303.671875 86.320312 L 303.664062 86.328125 C 302.488281 87.410156 301.070312 88.570312 299.40625 89.78125 C 303.003906 83.328125 306.1875 71.972656 304.148438 72.8125 C 304.460938 72.640625 304.773438 72.558594 305.101562 72.558594 "/>
<path style=" stroke:none;fill-rule:nonzero;fill:rgb(0%,77.249146%,89.7995%);fill-opacity:1;" d="M 304.148438 72.8125 C 306.1875 71.972656 303.003906 83.328125 299.40625 89.78125 C 291.265625 95.679688 277.0625 102.667969 255.128906 106.011719 C 250.023438 104.90625 249.3125 102.046875 253.453125 101.398438 L 253.453125 101.25 C 261.289062 101.167969 268.230469 98.605469 275.699219 93.8125 C 290.890625 84.058594 301.207031 74.84375 303.914062 72.949219 C 303.976562 72.902344 304.050781 72.859375 304.117188 72.828125 C 304.121094 72.816406 304.140625 72.816406 304.148438 72.8125 "/>
<path style=" stroke:none;fill-rule:nonzero;fill:rgb(0%,62.348938%,76.858521%);fill-opacity:1;" d="M 303.664062 86.328125 C 302.6875 88.5625 301.414062 90.914062 299.84375 93.265625 C 296.550781 98.203125 296.898438 102.484375 296.589844 105.625 C 273.910156 105.890625 251.007812 111.691406 251.007812 111.691406 L 250.898438 111.71875 C 250.640625 110.363281 250.1875 108.988281 249.519531 107.628906 C 249.390625 107.363281 249.246094 107.09375 249.082031 106.839844 L 249.109375 106.820312 C 251.183594 106.582031 253.183594 106.3125 255.128906 106.011719 C 258.050781 106.65625 262.394531 106.722656 268.101562 105.460938 C 283.769531 102.007812 293.535156 97.734375 297.804688 92.25 C 298.339844 91.570312 298.875 90.726562 299.40625 89.78125 C 301.070312 88.570312 302.488281 87.410156 303.664062 86.328125 "/>
<path style=" stroke:none;fill-rule:nonzero;fill:rgb(0%,77.249146%,89.7995%);fill-opacity:1;" d="M 299.40625 89.78125 C 298.875 90.726562 298.339844 91.570312 297.804688 92.25 C 293.535156 97.734375 283.769531 102.007812 268.101562 105.460938 C 262.394531 106.722656 258.050781 106.65625 255.128906 106.011719 C 277.0625 102.667969 291.265625 95.679688 299.40625 89.78125 "/>
<path style=" stroke:none;fill-rule:nonzero;fill:rgb(0%,62.348938%,76.858521%);fill-opacity:1;" d="M 253.453125 101.25 L 253.453125 101.398438 C 249.3125 102.046875 250.023438 104.90625 255.128906 106.011719 C 253.183594 106.3125 251.183594 106.582031 249.109375 106.820312 L 249.082031 106.839844 C 246.324219 102.347656 239.777344 99.605469 234.433594 97.558594 L 234.480469 97.445312 C 241.632812 100.078125 247.78125 101.324219 253.453125 101.25 "/>
<path style=" stroke:none;fill-rule:nonzero;fill:rgb(97.648621%,85.099792%,23.919678%);fill-opacity:1;" d="M 170.035156 205.738281 C 150.46875 213.066406 125.457031 217.878906 98.8125 216.003906 C 73.980469 214.25 54.414062 205.742188 43.613281 195.929688 C 58.320312 207.585938 94.578125 217.863281 138.285156 209.703125 C 185.085938 200.964844 206.449219 168.246094 213.972656 150.976562 C 221.503906 133.707031 229.238281 122.933594 239.207031 117.039062 C 242.160156 115.285156 246.332031 114.058594 251.097656 113.195312 C 251.167969 113.832031 251.171875 114.457031 251.140625 115.074219 C 250.976562 118.449219 249.574219 121.527344 247.117188 123.722656 C 242.519531 126.757812 238.625 130.996094 235.277344 136.078125 C 232.371094 140.476562 229.4375 146.539062 226.050781 153.203125 C 226.023438 153.253906 226 153.292969 225.976562 153.339844 C 225.800781 153.644531 225.648438 153.933594 225.507812 154.230469 C 224.460938 156.292969 223.359375 158.414062 222.199219 160.558594 C 220.355469 163.972656 218.363281 167.433594 216.179688 170.824219 C 213.710938 174.683594 210.980469 178.449219 207.929688 181.925781 C 206.292969 183.804688 204.558594 185.601562 202.722656 187.285156 C 201.351562 188.535156 199.824219 189.796875 198.128906 191.054688 C 195.378906 193.113281 192.207031 195.167969 188.664062 197.160156 C 183.257812 200.214844 176.996094 203.132812 170.035156 205.738281 "/>
<path style=" stroke:none;fill-rule:nonzero;fill:rgb(100%,92.158508%,46.269226%);fill-opacity:1;" d="M 116.21875 159.015625 C 114.390625 158.4375 113.972656 161.597656 117.9375 164.183594 C 122.617188 167.230469 131.570312 175.96875 137.265625 167.433594 C 142.964844 158.902344 138.6875 151.179688 140.730469 139.601562 C 142.726562 128.183594 157.171875 111.460938 147.683594 109.402344 C 144.613281 107.574219 133.070312 112.886719 125.9375 118.601562 C 118.183594 124.820312 115.191406 133.191406 114.851562 134.210938 L 114.632812 134.128906 C 111.460938 143.347656 113.214844 154.585938 116.507812 159.125 C 116.40625 159.078125 116.3125 159.039062 116.21875 159.015625 Z M 164.160156 70.128906 L 164.191406 69.964844 C 164.503906 70.03125 164.875 70.085938 165.300781 70.128906 C 165.304688 70.128906 165.3125 70.128906 165.3125 70.128906 C 171 71.417969 176.367188 72.933594 181.421875 74.582031 C 187.078125 76.417969 192.351562 78.417969 197.269531 80.46875 C 199.898438 81.566406 202.429688 82.679688 204.863281 83.78125 C 212.34375 87.183594 218.914062 90.519531 224.695312 93.265625 C 228.171875 94.917969 231.417969 96.304688 234.480469 97.445312 L 234.433594 97.558594 C 239.777344 99.605469 246.324219 102.347656 249.082031 106.839844 C 249.246094 107.09375 249.390625 107.363281 249.519531 107.628906 C 250.1875 108.988281 250.640625 110.363281 250.898438 111.71875 C 250.996094 112.214844 251.058594 112.714844 251.097656 113.195312 C 246.332031 114.058594 242.160156 115.285156 239.207031 117.039062 C 229.238281 122.933594 221.503906 133.707031 213.972656 150.976562 C 206.449219 168.246094 185.085938 200.964844 138.285156 209.703125 C 94.578125 217.863281 58.320312 207.585938 43.613281 195.929688 C 43.601562 195.929688 43.601562 195.929688 43.601562 195.929688 C 43.441406 195.785156 43.296875 195.648438 43.140625 195.503906 C 57.628906 207.992188 62.917969 176.972656 55.875 175.769531 L 55.882812 175.695312 C 69.308594 177.75 86.214844 178.167969 96.773438 171.15625 C 113.855469 159.828125 109.25 143.605469 101.878906 141.183594 L 101.863281 141.222656 C 95.148438 139.601562 95.558594 145.695312 99.425781 148.742188 C 103.289062 151.789062 104.824219 160.484375 94.539062 167.433594 C 81.316406 176.375 31.460938 175.96875 25.96875 157.480469 L 25.933594 157.488281 C 25.507812 155.984375 25.1875 154.324219 24.972656 152.488281 C 26.484375 159.683594 31.609375 164.316406 41.429688 163.777344 C 52.621094 163.167969 67.882812 149.960938 73.378906 127.203125 C 78.871094 104.441406 91.328125 83.015625 111.835938 74.167969 C 129.902344 66.367188 149.523438 67.277344 164.160156 70.128906 "/>
<path style=" stroke:none;fill-rule:nonzero;fill:rgb(0%,62.348938%,76.858521%);fill-opacity:1;" d="M 227.472656 54.253906 C 228 56.953125 228.019531 60.535156 227.097656 64.59375 C 219.949219 68.199219 209.996094 70.84375 201.175781 72.523438 C 201.175781 72.523438 201.175781 72.523438 201.167969 72.523438 C 195.09375 71.589844 188.269531 70.296875 181.089844 69.085938 C 185.628906 68.429688 190.707031 67.488281 195.941406 66.242188 C 205.742188 66.738281 214.988281 66.511719 220.488281 63.804688 C 223.863281 62.148438 224.964844 58.78125 224.808594 55.804688 C 225.726562 55.304688 226.617188 54.792969 227.472656 54.253906 "/>
<path style=" stroke:none;fill-rule:nonzero;fill:rgb(0%,62.348938%,76.858521%);fill-opacity:1;" d="M 227.097656 64.59375 C 226.738281 66.160156 226.242188 67.804688 225.574219 69.496094 C 223.449219 74.882812 214.011719 74.511719 201.175781 72.523438 C 209.996094 70.84375 219.949219 68.199219 227.097656 64.59375 "/>
<path style=" stroke:none;fill-rule:nonzero;fill:rgb(0%,62.348938%,76.858521%);fill-opacity:1;" d="M 223.371094 49.242188 C 224.980469 48.425781 226.722656 50.480469 227.472656 54.253906 C 226.617188 54.792969 225.726562 55.304688 224.808594 55.804688 C 224.652344 52.777344 223.203125 50.15625 221.542969 50.15625 C 222.21875 49.792969 222.824219 49.464844 223.347656 49.199219 L 223.371094 49.242188 "/>
<path style=" stroke:none;fill-rule:nonzero;fill:rgb(0%,77.249146%,89.7995%);fill-opacity:1;" d="M 224.808594 55.804688 C 224.964844 58.78125 223.863281 62.148438 220.488281 63.804688 C 214.988281 66.511719 205.742188 66.738281 195.941406 66.242188 C 205.921875 63.871094 216.449219 60.425781 224.808594 55.804688 "/>
<path style=" stroke:none;fill-rule:nonzero;fill:rgb(0%,77.249146%,89.7995%);fill-opacity:1;" d="M 221.542969 50.15625 C 223.203125 50.15625 224.652344 52.777344 224.808594 55.804688 C 216.449219 60.425781 205.921875 63.871094 195.941406 66.242188 C 184.789062 65.667969 172.925781 64.148438 165.078125 64.226562 C 176 63.226562 187.296875 61.691406 196.480469 59.398438 C 211.046875 55.765625 217.679688 52.230469 221.535156 50.15625 L 221.542969 50.15625 "/>
<path style=" stroke:none;fill-rule:nonzero;fill:rgb(0%,62.348938%,76.858521%);fill-opacity:1;" d="M 195.941406 66.242188 C 190.707031 67.488281 185.628906 68.429688 181.089844 69.085938 C 169.03125 67.050781 156 65.25 143.964844 65.761719 L 143.957031 65.582031 C 150.289062 65.34375 157.597656 64.910156 165.078125 64.226562 C 172.925781 64.148438 184.789062 65.667969 195.941406 66.242188 "/>
<path style=" stroke:none;fill-rule:nonzero;fill:rgb(100%,98.81897%,55.288696%);fill-opacity:1;" d="M 132.597656 65.84375 C 144.550781 66.308594 155.417969 67.886719 165.300781 70.128906 C 164.875 70.085938 164.503906 70.03125 164.191406 69.964844 L 164.160156 70.128906 C 149.523438 67.277344 129.902344 66.367188 111.835938 74.167969 C 91.328125 83.015625 78.871094 104.441406 73.378906 127.203125 C 67.882812 149.960938 52.621094 163.167969 41.429688 163.777344 C 31.609375 164.316406 26.484375 159.683594 24.972656 152.488281 C 24.585938 149.191406 24.589844 145.328125 25.15625 140.816406 C 28.410156 114.804688 56.757812 69.964844 111.835938 66.175781 C 119.101562 65.675781 126.007812 65.589844 132.597656 65.84375 "/>
<path style=" stroke:none;fill-rule:nonzero;fill:rgb(0%,77.249146%,89.7995%);fill-opacity:1;" d="M 147.683594 109.402344 C 148.179688 109.703125 148.457031 110.179688 148.457031 110.882812 C 148.457031 111.613281 148.304688 112.382812 148.027344 113.214844 C 145.332031 116.492188 131.511719 118.5625 123.429688 132.078125 C 115.339844 145.605469 116.125 157.746094 119.988281 161.578125 C 118.53125 160.84375 117.472656 160.078125 116.851562 159.578125 C 116.84375 159.570312 116.839844 159.558594 116.828125 159.550781 C 116.726562 159.425781 116.609375 159.277344 116.511719 159.125 L 116.507812 159.125 C 113.214844 154.585938 111.460938 143.347656 114.632812 134.128906 L 114.851562 134.210938 C 115.191406 133.191406 118.183594 124.820312 125.9375 118.601562 C 133.070312 112.886719 144.613281 107.574219 147.683594 109.402344 "/>
<path style=" stroke:none;fill-rule:nonzero;fill:rgb(97.648621%,85.099792%,23.919678%);fill-opacity:1;" d="M 148.027344 113.214844 C 148.304688 112.382812 148.457031 111.613281 148.457031 110.882812 C 148.457031 110.179688 148.179688 109.703125 147.683594 109.402344 C 157.171875 111.460938 142.726562 128.183594 140.730469 139.601562 C 138.6875 151.179688 142.964844 158.902344 137.265625 167.433594 C 131.570312 175.96875 122.617188 167.230469 117.9375 164.183594 C 113.972656 161.597656 114.390625 158.4375 116.21875 159.015625 C 116.3125 159.101562 116.511719 159.292969 116.828125 159.550781 C 116.839844 159.558594 116.84375 159.570312 116.851562 159.578125 C 117.472656 160.078125 118.53125 160.84375 119.988281 161.578125 C 121.699219 162.425781 123.964844 163.25 126.753906 163.574219 C 133.671875 164.386719 133.808594 159.777344 133.671875 153.144531 C 133.539062 146.503906 133.945312 139.460938 137.609375 131.332031 C 140.730469 124.390625 146.4375 118.035156 148.027344 113.214844 "/>
<path style=" stroke:none;fill-rule:nonzero;fill:rgb(0%,62.348938%,76.858521%);fill-opacity:1;" d="M 148.027344 113.214844 C 146.4375 118.035156 140.730469 124.390625 137.609375 131.332031 C 133.945312 139.460938 133.539062 146.503906 133.671875 153.144531 C 133.808594 159.777344 133.671875 164.386719 126.753906 163.574219 C 123.964844 163.25 121.699219 162.425781 119.988281 161.578125 C 116.125 157.746094 115.339844 145.605469 123.429688 132.078125 C 131.511719 118.5625 145.332031 116.492188 148.027344 113.214844 "/>
<path style=" stroke:none;fill-rule:nonzero;fill:rgb(97.648621%,85.099792%,23.919678%);fill-opacity:1;" d="M 101.878906 141.183594 C 109.25 143.605469 113.855469 159.828125 96.773438 171.15625 C 86.214844 178.167969 69.308594 177.75 55.882812 175.695312 C 47.585938 174.417969 40.617188 172.523438 37.300781 171.363281 C 37.328125 171.335938 37.347656 171.320312 37.359375 171.296875 C 37.359375 171.296875 29.105469 168.914062 25.933594 157.488281 L 25.96875 157.480469 C 31.460938 175.96875 81.316406 176.375 94.539062 167.433594 C 104.824219 160.484375 103.289062 151.789062 99.425781 148.742188 C 95.558594 145.695312 95.148438 139.601562 101.863281 141.222656 L 101.878906 141.183594 "/>
<path style=" stroke:none;fill-rule:nonzero;fill:rgb(100%,98.81897%,55.288696%);fill-opacity:1;" d="M 55.875 175.769531 C 62.917969 176.972656 57.628906 207.992188 43.140625 195.503906 C 43.085938 195.453125 43.015625 195.402344 42.957031 195.335938 C 34.253906 187.113281 31.695312 178.066406 37.300781 171.363281 C 40.617188 172.523438 47.585938 174.417969 55.882812 175.695312 L 55.875 175.769531 "/>
<path style=" stroke:none;fill-rule:nonzero;fill:rgb(100%,74.899292%,0%);fill-opacity:1;" d="M 139.402344 93.976562 C 141.117188 98.667969 137.335938 104.359375 130.949219 106.695312 C 124.5625 109.027344 126.980469 103.835938 125.261719 99.144531 C 123.539062 94.457031 118.34375 92.042969 124.726562 89.710938 C 131.113281 87.378906 137.683594 89.285156 139.402344 93.976562 "/>
<path style=" stroke:none;fill-rule:nonzero;fill:rgb(100%,74.899292%,0%);fill-opacity:1;" d="M 139.132812 76.632812 C 140.179688 79.5 137.246094 83.214844 132.574219 84.921875 C 127.894531 86.628906 129.828125 83.285156 128.78125 80.414062 C 127.726562 77.542969 124.085938 76.234375 128.761719 74.527344 C 133.4375 72.816406 138.078125 73.761719 139.132812 76.632812 "/>
<path style=" stroke:none;fill-rule:nonzero;fill:rgb(100%,74.899292%,0%);fill-opacity:1;" d="M 150.136719 85.976562 C 150.976562 88.273438 148.625 91.246094 144.886719 92.613281 C 141.148438 93.976562 142.691406 91.300781 141.847656 89.003906 C 141.011719 86.707031 138.097656 85.660156 141.835938 84.289062 C 145.578125 82.921875 149.292969 83.675781 150.136719 85.976562 "/>
<path style=" stroke:none;fill-rule:nonzero;fill:rgb(100%,74.899292%,0%);fill-opacity:1;" d="M 157.085938 156.046875 C 158.449219 159.773438 155.441406 164.300781 150.367188 166.160156 C 145.289062 168.011719 147.203125 163.882812 145.839844 160.152344 C 144.472656 156.429688 140.339844 154.507812 145.417969 152.65625 C 150.496094 150.796875 155.714844 152.316406 157.085938 156.046875 "/>
<path style=" stroke:none;fill-rule:nonzero;fill:rgb(100%,74.899292%,0%);fill-opacity:1;" d="M 153.671875 173.421875 C 154.632812 176.039062 152.519531 179.21875 148.960938 180.519531 C 145.390625 181.824219 146.734375 178.921875 145.777344 176.304688 C 144.820312 173.6875 141.917969 172.339844 145.480469 171.035156 C 149.046875 169.730469 152.710938 170.800781 153.671875 173.421875 "/>
<path style=" stroke:none;fill-rule:nonzero;fill:rgb(100%,74.899292%,0%);fill-opacity:1;" d="M 218.320312 104.054688 C 219.15625 106.335938 216.816406 109.289062 213.101562 110.644531 C 209.386719 112.003906 210.925781 109.34375 210.085938 107.0625 C 209.25 104.777344 206.359375 103.738281 210.074219 102.378906 C 213.792969 101.019531 217.484375 101.773438 218.320312 104.054688 "/>
<path style=" stroke:none;fill-rule:nonzero;fill:rgb(100%,74.899292%,0%);fill-opacity:1;" d="M 227.070312 111.484375 C 227.738281 113.308594 225.871094 115.671875 222.894531 116.757812 C 219.917969 117.84375 221.148438 115.71875 220.484375 113.890625 C 219.8125 112.0625 217.496094 111.230469 220.46875 110.140625 C 223.445312 109.058594 226.398438 109.65625 227.070312 111.484375 "/>
<path style=" stroke:none;fill-rule:nonzero;fill:rgb(100%,100%,100%);fill-opacity:1;" d="M 121.703125 132.894531 C 121.703125 134.238281 120.609375 135.328125 119.261719 135.328125 C 117.910156 135.328125 116.816406 134.238281 116.816406 132.894531 C 116.816406 131.546875 117.910156 130.453125 119.261719 130.453125 C 120.609375 130.453125 121.703125 131.546875 121.703125 132.894531 "/>
<path style=" stroke:none;fill-rule:nonzero;fill:rgb(100%,100%,100%);fill-opacity:1;" d="M 300.652344 83.105469 C 300.652344 84.453125 299.5625 85.546875 298.214844 85.546875 C 296.867188 85.546875 295.769531 84.453125 295.769531 83.105469 C 295.769531 81.757812 296.867188 80.671875 298.214844 80.671875 C 299.5625 80.671875 300.652344 81.757812 300.652344 83.105469 "/>
<path style=" stroke:none;fill-rule:nonzero;fill:rgb(100%,100%,100%);fill-opacity:1;" d="M 39.902344 120.496094 C 39.902344 121.957031 38.71875 123.140625 37.261719 123.140625 C 35.796875 123.140625 34.613281 121.957031 34.613281 120.496094 C 34.613281 119.035156 35.796875 117.855469 37.261719 117.855469 C 38.71875 117.855469 39.902344 119.035156 39.902344 120.496094 "/>
<path style=" stroke:none;fill-rule:nonzero;fill:rgb(100%,100%,100%);fill-opacity:1;" d="M 42.347656 176.984375 C 42.347656 178.445312 41.15625 179.625 39.699219 179.625 C 38.242188 179.625 37.054688 178.445312 37.054688 176.984375 C 37.054688 175.527344 38.242188 174.34375 39.699219 174.34375 C 41.15625 174.34375 42.347656 175.527344 42.347656 176.984375 "/>
<path style=" stroke:none;fill-rule:nonzero;fill:rgb(100%,100%,100%);fill-opacity:1;" d="M 124.34375 127.304688 C 124.34375 128.035156 123.753906 128.625 123.023438 128.625 C 122.292969 128.625 121.703125 128.035156 121.703125 127.304688 C 121.703125 126.570312 122.292969 125.984375 123.023438 125.984375 C 123.753906 125.984375 124.34375 126.570312 124.34375 127.304688 "/>
<path style=" stroke:none;fill-rule:nonzero;fill:rgb(100%,100%,100%);fill-opacity:1;" d="M 293.433594 86.765625 C 293.433594 87.496094 292.839844 88.085938 292.109375 88.085938 C 291.382812 88.085938 290.789062 87.496094 290.789062 86.765625 C 290.789062 86.039062 291.382812 85.445312 292.109375 85.445312 C 292.839844 85.445312 293.433594 86.039062 293.433594 86.765625 "/>
<path style=" stroke:none;fill-rule:nonzero;fill:rgb(100%,100%,100%);fill-opacity:1;" d="M 35.222656 126.898438 C 35.222656 127.683594 34.585938 128.320312 33.796875 128.320312 C 33.015625 128.320312 32.375 127.683594 32.375 126.898438 C 32.375 126.113281 33.015625 125.476562 33.796875 125.476562 C 34.585938 125.476562 35.222656 126.113281 35.222656 126.898438 "/>
<path style=" stroke:none;fill-rule:nonzero;fill:rgb(100%,100%,100%);fill-opacity:1;" d="M 47.535156 178.003906 C 47.535156 178.789062 46.894531 179.425781 46.113281 179.425781 C 45.324219 179.425781 44.6875 178.789062 44.6875 178.003906 C 44.6875 177.214844 45.324219 176.582031 46.113281 176.582031 C 46.894531 176.582031 47.535156 177.214844 47.535156 178.003906 "/>
<g clip-path="url(#clip1)" clip-rule="nonzero">
<path style=" stroke:none;fill-rule:nonzero;fill:rgb(0%,0%,0%);fill-opacity:1;" d="M 111.746094 64.957031 C 57.847656 68.671875 27.488281 112.328125 23.945312 140.664062 C 23.617188 143.226562 23.472656 145.585938 23.472656 147.761719 C 23.472656 164.335938 31.902344 170.128906 35.46875 171.847656 C 33.917969 174.128906 33.089844 176.640625 33.089844 179.328125 C 33.089844 181.425781 33.570312 183.621094 34.527344 185.886719 C 40.324219 199.613281 64.238281 214.789062 98.726562 217.21875 C 125.425781 219.097656 147.992188 214.175781 162.222656 209.714844 C 179.449219 204.308594 194.511719 196.460938 203.546875 188.183594 C 215.078125 177.605469 222.601562 162.71875 228.644531 150.753906 C 231.449219 145.207031 233.871094 140.417969 236.292969 136.746094 C 244.886719 123.730469 255.855469 118.324219 269.835938 120.214844 C 277.40625 121.242188 286.453125 124.582031 294.4375 127.53125 C 305.339844 131.5625 310.667969 133.40625 312.683594 131.210938 C 316.140625 127.441406 315.980469 119.367188 307.828125 109.816406 C 300.710938 101.488281 303.199219 96.0625 307.332031 87.074219 L 307.738281 86.1875 C 310.875 79.339844 309.832031 74.242188 307.414062 72.226562 C 306.117188 71.148438 304.507812 71.042969 303.214844 71.949219 L 299.625 74.773438 C 294.964844 78.542969 286.292969 85.558594 275.039062 92.785156 C 259.597656 102.695312 247.027344 102.539062 225.21875 92.167969 L 218.914062 89.117188 C 196.367188 78.109375 162.296875 61.476562 111.746094 64.957031 Z M 98.898438 214.78125 C 65.394531 212.421875 42.285156 197.980469 36.773438 184.9375 C 34.738281 180.109375 35.261719 175.667969 38.296875 172.082031 C 38.5625 171.769531 38.648438 171.34375 38.527344 170.949219 C 38.410156 170.554688 38.101562 170.242188 37.703125 170.128906 C 37.117188 169.949219 23.289062 165.53125 26.363281 140.96875 C 29.8125 113.4375 59.386719 71.011719 111.914062 67.390625 C 161.808594 63.957031 195.53125 80.414062 217.84375 91.304688 L 224.171875 94.367188 C 246.613281 105.042969 260.269531 105.164062 276.359375 94.835938 C 287.726562 87.535156 296.46875 80.464844 301.164062 76.667969 L 304.613281 73.949219 C 304.992188 73.679688 305.40625 73.730469 305.851562 74.097656 C 307.230469 75.246094 308.277344 79.140625 305.515625 85.175781 L 305.109375 86.0625 C 300.890625 95.25 297.84375 101.890625 305.96875 111.402344 C 313.15625 119.8125 313.617188 126.585938 310.882812 129.5625 C 309.726562 130.585938 301.035156 127.375 295.285156 125.25 C 287.183594 122.253906 278 118.855469 270.164062 117.796875 C 255.160156 115.769531 243.417969 121.523438 234.257812 135.402344 C 231.75 139.195312 229.300781 144.042969 226.46875 149.65625 C 220.511719 161.445312 213.101562 176.109375 201.890625 186.382812 C 184.382812 202.433594 142.335938 217.84375 98.898438 214.78125 "/>
</g>
<path style=" stroke:none;fill-rule:nonzero;fill:rgb(0%,0%,0%);fill-opacity:1;" d="M 125.175781 117.648438 C 116.707031 124.441406 113.808594 135.273438 114.449219 135.476562 C 115.09375 135.679688 118.835938 125.863281 126.703125 119.550781 C 134.144531 113.582031 144.613281 109.277344 147.003906 110.417969 C 147.125 110.480469 147.234375 110.53125 147.234375 110.878906 C 147.234375 113.429688 144.808594 117.117188 142.234375 121.019531 C 140.28125 123.988281 138.0625 127.355469 136.492188 130.832031 C 132.710938 139.226562 132.3125 146.527344 132.449219 153.167969 C 132.535156 157.296875 132.488281 160.320312 131.050781 161.621094 C 130.242188 162.355469 128.882812 162.597656 126.894531 162.363281 C 120.539062 161.617188 115.808594 157.628906 115.324219 158.097656 C 114.84375 158.5625 119.34375 163.933594 126.613281 164.785156 C 129.335938 165.105469 131.328125 164.660156 132.691406 163.425781 C 135.058594 161.28125 134.976562 157.136719 134.894531 153.117188 C 134.761719 146.765625 135.132812 139.785156 138.722656 131.832031 C 140.207031 128.527344 142.277344 125.394531 144.277344 122.359375 C 147.175781 117.964844 149.679688 114.164062 149.679688 110.878906 C 149.679688 109.667969 149.105469 108.722656 148.058594 108.222656 C 143.804688 106.183594 131.664062 112.445312 125.175781 117.648438 "/>
<path style=" stroke:none;fill-rule:nonzero;fill:rgb(0%,0%,0%);fill-opacity:1;" d="M 224.40625 153.699219 C 224.117188 154.308594 224.371094 155.03125 224.976562 155.324219 C 225.582031 155.617188 226.3125 155.363281 226.605469 154.757812 C 228.460938 150.921875 232.238281 147.191406 235.582031 147.839844 C 236.578125 148.027344 237.382812 148.667969 237.984375 149.730469 C 238.925781 151.394531 240.617188 156.605469 236.023438 169.113281 C 230.558594 184.027344 211.371094 196.546875 199.808594 201.328125 C 188.566406 205.96875 175.914062 205.777344 170.15625 204.515625 C 169.496094 204.371094 168.839844 204.785156 168.699219 205.441406 C 168.554688 206.101562 168.96875 206.753906 169.628906 206.898438 C 175.691406 208.226562 188.984375 208.441406 200.742188 203.582031 C 212.707031 198.636719 232.582031 185.601562 238.320312 169.957031 C 241.847656 160.332031 242.480469 152.726562 240.109375 148.535156 C 239.152344 146.84375 237.75 145.773438 236.046875 145.445312 C 231.453125 144.554688 226.714844 148.925781 224.40625 153.699219 "/>
<path style=" stroke:none;fill-rule:nonzero;fill:rgb(0%,0%,0%);fill-opacity:1;" d="M 187.609375 196.875 C 187.363281 197.503906 187.683594 198.203125 188.3125 198.445312 C 193.464844 200.390625 205.421875 200.808594 205.929688 200.828125 C 206.605469 200.851562 207.167969 200.320312 207.191406 199.648438 C 207.214844 198.976562 206.6875 198.414062 206.011719 198.390625 C 205.890625 198.386719 193.953125 197.96875 189.179688 196.164062 C 188.546875 195.929688 187.84375 196.242188 187.609375 196.875 "/>
<path style=" stroke:none;fill-rule:nonzero;fill:rgb(0%,0%,0%);fill-opacity:1;" d="M 197.023438 191.109375 C 196.96875 191.777344 197.464844 192.367188 198.140625 192.421875 C 206.113281 193.097656 218.761719 192.835938 218.886719 192.835938 C 219.5625 192.820312 220.09375 192.265625 220.082031 191.59375 C 220.066406 190.917969 219.507812 190.386719 218.832031 190.398438 C 218.710938 190.398438 206.191406 190.65625 198.34375 189.992188 C 197.671875 189.9375 197.082031 190.433594 197.023438 191.109375 "/>
<path style=" stroke:none;fill-rule:nonzero;fill:rgb(0%,0%,0%);fill-opacity:1;" d="M 232.085938 177.035156 C 231.9375 177.074219 217.121094 181.304688 208.078125 180.777344 C 207.40625 180.742188 206.828125 181.253906 206.789062 181.925781 C 206.75 182.601562 207.265625 183.175781 207.941406 183.214844 C 217.398438 183.761719 232.136719 179.554688 232.761719 179.375 C 233.410156 179.191406 233.785156 178.515625 233.597656 177.867188 C 233.410156 177.21875 232.734375 176.847656 232.085938 177.035156 "/>
<path style=" stroke:none;fill-rule:nonzero;fill:rgb(0%,0%,0%);fill-opacity:1;" d="M 238.5625 162.136719 C 238.453125 162.203125 228.066406 168.632812 216.175781 169.675781 C 215.5 169.730469 215.011719 170.324219 215.070312 170.992188 C 215.128906 171.667969 215.714844 172.164062 216.390625 172.105469 C 228.882812 171.007812 239.414062 164.480469 239.859375 164.199219 C 240.429688 163.84375 240.601562 163.09375 240.242188 162.519531 C 239.886719 161.949219 239.128906 161.777344 238.5625 162.136719 "/>
<path style=" stroke:none;fill-rule:nonzero;fill:rgb(0%,0%,0%);fill-opacity:1;" d="M 239.296875 151.890625 C 239.234375 151.933594 232.679688 156.667969 221.949219 159.414062 C 221.292969 159.578125 220.902344 160.246094 221.070312 160.898438 C 221.234375 161.550781 221.898438 161.941406 222.554688 161.777344 C 233.773438 158.90625 240.464844 154.0625 240.742188 153.855469 C 241.289062 153.453125 241.402344 152.695312 241.003906 152.15625 C 240.605469 151.605469 239.84375 151.492188 239.296875 151.890625 "/>
<path style=" stroke:none;fill-rule:nonzero;fill:rgb(0%,0%,0%);fill-opacity:1;" d="M 221.066406 49.027344 C 217.207031 51.105469 210.742188 54.582031 196.179688 58.21875 C 172.070312 64.242188 134.792969 64.898438 126.398438 64.550781 C 125.722656 64.523438 125.152344 65.046875 125.125 65.71875 C 125.097656 66.390625 125.621094 66.957031 126.296875 66.984375 C 134.769531 67.339844 172.402344 66.671875 196.769531 60.585938 C 211.632812 56.875 218.265625 53.308594 222.226562 51.175781 C 224.308594 50.050781 225.457031 49.4375 226.503906 49.511719 C 227.554688 49.585938 229.3125 50.664062 230.664062 52.851562 C 232.214844 55.359375 234.257812 60.925781 230.484375 70.042969 C 225.527344 82.019531 216.046875 86.511719 204.488281 82.367188 C 203.851562 82.140625 203.152344 82.46875 202.925781 83.101562 C 202.699219 83.734375 203.03125 84.4375 203.664062 84.664062 C 216.429688 89.238281 227.296875 84.121094 232.742188 70.976562 C 236.929688 60.855469 234.542969 54.472656 232.742188 51.566406 C 231.117188 48.949219 228.796875 47.230469 226.675781 47.078125 C 224.921875 46.953125 223.472656 47.734375 221.066406 49.027344 "/>
<path style=" stroke:none;fill-rule:nonzero;fill:rgb(0%,0%,0%);fill-opacity:1;" d="M 230.335938 50.839844 C 211.222656 65.152344 171.265625 70.234375 164.449219 68.773438 C 163.789062 68.632812 163.140625 69.054688 163 69.710938 C 162.863281 70.371094 163.277344 71.019531 163.9375 71.160156 C 172.195312 72.929688 213.011719 66.859375 231.800781 52.792969 C 232.339844 52.386719 232.445312 51.621094 232.042969 51.085938 C 231.640625 50.546875 230.875 50.4375 230.335938 50.839844 "/>
<path style=" stroke:none;fill-rule:nonzero;fill:rgb(0%,0%,0%);fill-opacity:1;" d="M 232.800781 59.332031 C 221.648438 69.933594 184.792969 74.296875 181.765625 73.40625 C 181.121094 73.210938 180.441406 73.582031 180.25 74.226562 C 180.058594 74.875 180.425781 75.550781 181.074219 75.742188 C 185.246094 76.976562 222.96875 72.046875 234.488281 61.097656 C 234.976562 60.636719 234.996094 59.863281 234.53125 59.375 C 234.066406 58.886719 233.292969 58.871094 232.800781 59.332031 "/>
<path style=" stroke:none;fill-rule:nonzero;fill:rgb(0%,0%,0%);fill-opacity:1;" d="M 230.261719 70.40625 C 224.820312 75.207031 202.921875 81.15625 197.710938 79.253906 C 197.078125 79.023438 196.375 79.347656 196.148438 79.980469 C 195.914062 80.613281 196.238281 81.3125 196.875 81.546875 C 202.851562 83.730469 225.75 77.640625 231.875 72.234375 C 232.382812 71.792969 232.429688 71.019531 231.984375 70.515625 C 231.535156 70.011719 230.765625 69.960938 230.261719 70.40625 "/>
<path style=" stroke:none;fill-rule:nonzero;fill:rgb(0%,0%,0%);fill-opacity:1;" d="M 229.863281 95.820312 C 229.578125 96.429688 228.847656 96.691406 228.242188 96.402344 C 229.453125 96.976562 230.972656 97.550781 232.742188 98.222656 C 238.34375 100.34375 246.011719 103.253906 248.421875 108.164062 C 251.449219 114.34375 249.773438 121.085938 244.425781 124.183594 C 243.839844 124.519531 243.644531 125.269531 243.984375 125.851562 C 244.328125 126.433594 245.066406 126.632812 245.652344 126.292969 C 252.136719 122.527344 254.226562 114.453125 250.609375 107.089844 C 247.78125 101.316406 239.585938 98.210938 233.605469 95.941406 C 231.890625 95.292969 230.410156 94.734375 229.285156 94.195312 C 229.894531 94.488281 230.15625 95.214844 229.863281 95.820312 "/>
<path style=" stroke:none;fill-rule:nonzero;fill:rgb(0%,0%,0%);fill-opacity:1;" d="M 306.933594 80.375 C 306.335938 82.761719 291.578125 100.734375 248.96875 105.601562 C 248.300781 105.679688 247.824219 106.285156 247.894531 106.949219 C 247.972656 107.621094 248.578125 108.101562 249.25 108.027344 C 290.964844 103.261719 308.15625 85.550781 309.300781 80.964844 C 309.464844 80.3125 309.066406 79.648438 308.414062 79.488281 C 307.757812 79.324219 307.09375 79.722656 306.933594 80.375 "/>
<path style=" stroke:none;fill-rule:nonzero;fill:rgb(0%,0%,0%);fill-opacity:1;" d="M 250.707031 110.511719 C 250.054688 110.675781 249.664062 111.335938 249.828125 111.988281 C 249.992188 112.644531 250.65625 113.039062 251.308594 112.871094 C 251.585938 112.804688 279.234375 105.886719 303.453125 106.949219 C 304.125 106.976562 304.695312 106.457031 304.726562 105.785156 C 304.753906 105.109375 304.230469 104.542969 303.5625 104.515625 C 278.976562 103.433594 250.992188 110.441406 250.707031 110.511719 "/>
<path style=" stroke:none;fill-rule:nonzero;fill:rgb(0%,0%,0%);fill-opacity:1;" d="M 251.007812 113.867188 C 250.335938 113.941406 249.859375 114.546875 249.933594 115.214844 C 250.007812 115.886719 250.609375 116.367188 251.28125 116.289062 C 276.0625 113.5 304.609375 116.730469 311.183594 123.0625 C 312.011719 123.863281 312.382812 124.632812 312.328125 125.417969 C 312.277344 126.085938 312.777344 126.671875 313.453125 126.722656 C 314.125 126.777344 314.710938 126.273438 314.761719 125.601562 C 314.878906 124.074219 314.246094 122.625 312.878906 121.304688 C 305.75 114.4375 276.839844 110.960938 251.007812 113.867188 "/>
<path style=" stroke:none;fill-rule:nonzero;fill:rgb(0%,0%,0%);fill-opacity:1;" d="M 99.777344 140.746094 C 99.664062 141.414062 100.105469 142.039062 100.773438 142.152344 C 103.636719 142.648438 106.128906 145.667969 106.972656 149.667969 C 107.550781 152.398438 108.464844 161.945312 96.101562 170.144531 C 78.355469 181.914062 42.683594 172.175781 36.855469 169.890625 C 36.230469 169.644531 35.519531 169.949219 35.273438 170.578125 C 35.027344 171.207031 35.335938 171.917969 35.964844 172.160156 C 41.976562 174.515625 78.84375 184.519531 97.449219 172.179688 C 111.101562 163.125 110.015625 152.277344 109.359375 149.167969 C 108.3125 144.195312 105.03125 140.414062 101.1875 139.753906 C 100.519531 139.636719 99.894531 140.082031 99.777344 140.746094 "/>
<path style=" stroke:none;fill-rule:nonzero;fill:rgb(0%,0%,0%);fill-opacity:1;" d="M 98.34375 131.378906 C 91.300781 133.355469 90.894531 139.074219 91.664062 141.824219 C 91.847656 142.46875 92.519531 142.84375 93.164062 142.667969 C 93.8125 142.488281 94.195312 141.820312 94.015625 141.171875 C 93.863281 140.597656 92.6875 135.496094 99.003906 133.726562 C 105.78125 131.828125 109.71875 137.226562 109.886719 137.453125 C 110.277344 138.003906 111.035156 138.132812 111.585938 137.75 C 112.132812 137.359375 112.269531 136.605469 111.886719 136.054688 C 111.835938 135.980469 106.8125 129.007812 98.34375 131.378906 "/>
<path style=" stroke:none;fill-rule:nonzero;fill:rgb(100%,100%,100%);fill-opacity:1;" d="M 54.453125 91.234375 L 54.53125 91.242188 C 54.476562 92.570312 54.496094 93.925781 54.589844 95.300781 C 54.753906 97.597656 55.085938 99.855469 55.582031 102.03125 L 55.402344 102.070312 C 55.941406 111.691406 46.582031 120.496094 36.957031 114.265625 C 27.324219 108.039062 31.191406 91.601562 38.988281 85.144531 C 45.363281 79.859375 54.589844 84.328125 54.453125 91.234375 "/>
<path style=" stroke:none;fill-rule:nonzero;fill:rgb(100%,100%,100%);fill-opacity:1;" d="M 91.488281 85.546875 C 95.011719 97.332031 97.042969 120.902344 80.632812 122.53125 C 66.6875 123.910156 58.417969 114.328125 55.582031 102.03125 C 55.085938 99.855469 54.753906 97.597656 54.589844 95.300781 C 54.496094 93.925781 54.476562 92.570312 54.53125 91.242188 C 55.113281 77.832031 63.269531 67.410156 71.953125 67.257812 C 79.683594 67.121094 87.960938 73.761719 91.488281 85.546875 "/>
<path style=" stroke:none;fill-rule:nonzero;fill:rgb(0%,0%,0%);fill-opacity:1;" d="M 71.929688 66.039062 C 62.257812 66.210938 53.90625 77.496094 53.316406 91.191406 C 53.253906 92.589844 53.273438 93.996094 53.375 95.386719 C 53.542969 97.742188 53.882812 100.066406 54.394531 102.300781 L 54.394531 102.304688 C 57.785156 117.027344 67.640625 125.039062 80.757812 123.742188 C 85.351562 123.285156 88.929688 121.203125 91.386719 117.542969 C 97.363281 108.644531 94.996094 93.027344 92.65625 85.199219 C 89.179688 73.582031 80.851562 65.878906 71.929688 66.039062 Z M 55.808594 95.214844 C 55.753906 94.402344 55.71875 93.585938 55.71875 92.765625 C 55.71875 92.277344 55.734375 91.789062 55.753906 91.296875 C 56.28125 79.074219 63.710938 68.621094 71.972656 68.476562 C 78.480469 68.359375 86.667969 73.699219 90.316406 85.898438 C 93.191406 95.511719 94.117188 109.097656 89.359375 116.1875 C 87.328125 119.210938 84.355469 120.9375 80.515625 121.3125 C 68.738281 122.484375 59.863281 115.171875 56.773438 101.757812 C 56.296875 99.648438 55.96875 97.445312 55.808594 95.214844 "/>
<path style=" stroke:none;fill-rule:nonzero;fill:rgb(0%,0%,0%);fill-opacity:1;" d="M 38.207031 84.203125 C 33.074219 88.457031 29.648438 96.679688 30.070312 103.757812 C 30.367188 108.863281 32.519531 112.847656 36.289062 115.285156 C 40.574219 118.0625 45.363281 118.308594 49.414062 115.957031 C 54.046875 113.277344 56.941406 107.667969 56.625 102.003906 C 56.585938 101.332031 56.015625 100.8125 55.339844 100.855469 C 54.664062 100.890625 54.148438 101.464844 54.183594 102.140625 C 54.453125 106.914062 52.042969 111.617188 48.191406 113.847656 C 44.914062 115.75 41.15625 115.527344 37.621094 113.242188 C 33.714844 110.710938 32.6875 106.613281 32.507812 103.613281 C 32.128906 97.253906 35.183594 89.875 39.769531 86.078125 C 42.945312 83.449219 46.632812 83.742188 49.027344 84.894531 C 51.671875 86.167969 53.28125 88.585938 53.234375 91.210938 C 53.21875 91.882812 53.757812 92.441406 54.433594 92.457031 C 55.101562 92.46875 55.660156 91.933594 55.675781 91.261719 C 55.742188 87.671875 53.605469 84.386719 50.085938 82.699219 C 46.160156 80.808594 41.609375 81.382812 38.207031 84.203125 "/>
<path style=" stroke:none;fill-rule:nonzero;fill:rgb(0%,37.649536%,71.369934%);fill-opacity:1;" d="M 77.511719 90.695312 C 72.75 89.503906 68.148438 95.4375 69.78125 101.664062 C 71.410156 107.898438 81.175781 107.085938 82.261719 101.125 C 83.347656 95.164062 80.765625 91.507812 77.511719 90.695312 "/>
<path style=" stroke:none;fill-rule:nonzero;fill:rgb(0%,0%,0%);fill-opacity:1;" d="M 71.472656 91.882812 C 69.027344 94.347656 68.054688 98.273438 68.996094 101.871094 C 69.808594 104.988281 72.589844 106.921875 76.082031 106.789062 C 79.621094 106.65625 82.496094 104.386719 83.066406 101.273438 C 83.246094 100.257812 83.335938 99.308594 83.335938 98.425781 C 83.335938 93.535156 80.703125 90.65625 77.707031 89.90625 C 75.53125 89.363281 73.253906 90.082031 71.472656 91.882812 Z M 70.570312 101.460938 C 69.769531 98.40625 70.582031 95.097656 72.628906 93.027344 C 74 91.644531 75.710938 91.082031 77.316406 91.484375 C 80.117188 92.179688 82.476562 95.386719 81.460938 100.980469 C 80.957031 103.75 78.367188 105.074219 76.019531 105.164062 C 73.96875 105.242188 71.3125 104.320312 70.570312 101.460938 "/>
<path style=" stroke:none;fill-rule:nonzero;fill:rgb(0%,37.649536%,71.369934%);fill-opacity:1;" d="M 47.941406 92.59375 C 44.269531 92.59375 39.394531 98.144531 41.429688 103.699219 C 43.464844 109.253906 51.738281 107.085938 52.691406 101.257812 C 53.636719 95.4375 50.925781 92.59375 47.941406 92.59375 "/>
<path style=" stroke:none;fill-rule:nonzero;fill:rgb(0%,0%,0%);fill-opacity:1;" d="M 41.941406 95.507812 C 40.117188 98.117188 39.652344 101.203125 40.667969 103.976562 C 41.605469 106.535156 43.90625 107.960938 46.675781 107.699219 C 49.59375 107.421875 52.878906 105.164062 53.492188 101.394531 C 54.167969 97.246094 53.058594 94.90625 52.003906 93.667969 C 50.96875 92.449219 49.527344 91.777344 47.941406 91.777344 C 45.886719 91.777344 43.527344 93.242188 41.941406 95.507812 Z M 42.195312 103.417969 C 41.363281 101.148438 41.761719 98.605469 43.273438 96.4375 C 44.542969 94.625 46.417969 93.402344 47.941406 93.402344 C 49.039062 93.402344 50.042969 93.871094 50.765625 94.722656 C 51.9375 96.097656 52.332031 98.375 51.886719 101.128906 C 51.40625 104.089844 48.820312 105.863281 46.523438 106.082031 C 45.546875 106.171875 43.175781 106.101562 42.195312 103.417969 "/>
<path style=" stroke:none;fill-rule:nonzero;fill:rgb(0%,0%,0%);fill-opacity:1;" d="M 49.703125 100.175781 C 49.703125 101.226562 48.859375 102.074219 47.804688 102.074219 C 46.757812 102.074219 45.90625 101.226562 45.90625 100.175781 C 45.90625 99.128906 46.757812 98.277344 47.804688 98.277344 C 48.859375 98.277344 49.703125 99.128906 49.703125 100.175781 "/>
<path style=" stroke:none;fill-rule:nonzero;fill:rgb(0%,0%,0%);fill-opacity:1;" d="M 79.277344 98.6875 C 79.277344 100.109375 78.125 101.257812 76.695312 101.257812 C 75.277344 101.257812 74.121094 100.109375 74.121094 98.6875 C 74.121094 97.261719 75.277344 96.113281 76.695312 96.113281 C 78.125 96.113281 79.277344 97.261719 79.277344 98.6875 "/>
<path style=" stroke:none;fill-rule:nonzero;fill:rgb(100%,100%,100%);fill-opacity:1;" d="M 47.804688 97.742188 C 47.804688 98.859375 46.894531 99.773438 45.769531 99.773438 C 44.644531 99.773438 43.738281 98.859375 43.738281 97.742188 C 43.738281 96.617188 44.644531 95.707031 45.769531 95.707031 C 46.894531 95.707031 47.804688 96.617188 47.804688 97.742188 "/>
<path style=" stroke:none;fill-rule:nonzero;fill:rgb(100%,100%,100%);fill-opacity:1;" d="M 77.378906 96.386719 C 77.378906 97.882812 76.164062 99.09375 74.664062 99.09375 C 73.164062 99.09375 71.953125 97.882812 71.953125 96.386719 C 71.953125 94.890625 73.164062 93.675781 74.664062 93.675781 C 76.164062 93.675781 77.378906 94.890625 77.378906 96.386719 "/>
<path style=" stroke:none;fill-rule:nonzero;fill:rgb(0%,0%,0%);fill-opacity:1;" d="M 29.425781 79.652344 C 28.597656 82.382812 34.71875 76.199219 42.652344 75.996094 C 50.585938 75.792969 53.84375 68.882812 48.144531 66.242188 C 42.449219 63.597656 31.460938 72.949219 29.425781 79.652344 "/>
<path style=" stroke:none;fill-rule:nonzero;fill:rgb(0%,0%,0%);fill-opacity:1;" d="M 88.027344 65.023438 C 90.148438 64.597656 87.417969 51.003906 75.007812 48.160156 C 62.589844 45.3125 61.371094 55.269531 62.390625 58.117188 C 63.40625 60.960938 69.511719 57.097656 76.839844 59.941406 C 84.15625 62.789062 85.992188 65.429688 88.027344 65.023438 "/>
<g clip-path="url(#clip2)" clip-rule="nonzero">
<path style=" stroke:none;fill-rule:nonzero;fill:rgb(84.309387%,23.529053%,19.219971%);fill-opacity:1;" d="M 327.394531 276.15625 L 318.652344 276.15625 L 318.652344 272.8125 C 318.652344 265.132812 322.921875 258.222656 329.800781 254.773438 C 333.707031 252.828125 336.132812 248.902344 336.132812 244.550781 L 336.132812 220.386719 C 336.132812 216.035156 333.707031 212.113281 329.800781 210.167969 C 322.921875 206.71875 318.652344 199.808594 318.652344 192.128906 L 318.652344 188.785156 L 327.394531 188.785156 L 327.394531 192.128906 C 327.394531 196.480469 329.816406 200.40625 333.726562 202.351562 C 340.605469 205.796875 344.871094 212.707031 344.871094 220.386719 L 344.871094 244.550781 C 344.871094 252.230469 340.605469 259.144531 333.726562 262.589844 C 329.816406 264.535156 327.394531 268.460938 327.394531 272.8125 L 327.394531 276.15625 "/>
</g>
<g clip-path="url(#clip3)" clip-rule="nonzero">
<path style=" stroke:none;fill-rule:nonzero;fill:rgb(94.509888%,27.059937%,23.919678%);fill-opacity:1;" d="M 309.914062 319.84375 L 205.046875 319.84375 C 195.386719 319.84375 187.570312 312.027344 187.570312 302.367188 L 187.570312 162.570312 C 187.570312 152.914062 195.386719 145.097656 205.046875 145.097656 L 309.914062 145.097656 C 319.574219 145.097656 327.394531 152.914062 327.394531 162.570312 L 327.394531 302.367188 C 327.394531 312.027344 319.574219 319.84375 309.914062 319.84375 "/>
</g>
<path style=" stroke:none;fill-rule:nonzero;fill:rgb(89.7995%,23.919678%,20.388794%);fill-opacity:1;" d="M 317.867188 147.09375 C 286.34375 241.105469 232.050781 289.929688 192.433594 314.417969 C 195.609375 317.746094 200.082031 319.84375 205.046875 319.84375 L 309.914062 319.84375 C 319.574219 319.84375 327.394531 312.027344 327.394531 302.367188 L 327.394531 162.570312 C 327.394531 155.796875 323.5 149.996094 317.867188 147.09375 "/>
<path style=" stroke:none;fill-rule:nonzero;fill:rgb(88.238525%,87.838745%,87.059021%);fill-opacity:1;" d="M 240.003906 145.097656 L 231.265625 145.097656 L 231.265625 105.777344 L 240.003906 105.777344 L 240.003906 145.097656 "/>
<path style=" stroke:none;fill-rule:nonzero;fill:rgb(88.238525%,87.838745%,87.059021%);fill-opacity:1;" d="M 283.699219 145.097656 L 274.960938 145.097656 L 274.960938 105.777344 L 283.699219 105.777344 L 283.699219 145.097656 "/>
<path style=" stroke:none;fill-rule:nonzero;fill:rgb(77.249146%,78.039551%,77.648926%);fill-opacity:1;" d="M 240.003906 114.515625 L 231.265625 114.515625 L 231.265625 105.777344 L 240.003906 105.777344 L 240.003906 114.515625 "/>
<path style=" stroke:none;fill-rule:nonzero;fill:rgb(77.249146%,78.039551%,77.648926%);fill-opacity:1;" d="M 283.699219 114.515625 L 274.960938 114.515625 L 274.960938 105.777344 L 283.699219 105.777344 L 283.699219 114.515625 "/>
<path style=" stroke:none;fill-rule:nonzero;fill:rgb(84.309387%,23.529053%,19.219971%);fill-opacity:1;" d="M 270.589844 302.367188 C 268.183594 302.367188 266.222656 300.40625 266.222656 298 L 266.222656 166.941406 C 266.222656 164.535156 268.183594 162.570312 270.589844 162.570312 C 272.996094 162.570312 274.960938 164.535156 274.960938 166.941406 L 274.960938 298 C 274.960938 300.40625 272.996094 302.367188 270.589844 302.367188 "/>
<path style=" stroke:none;fill-rule:nonzero;fill:rgb(84.309387%,23.529053%,19.219971%);fill-opacity:1;" d="M 296.808594 302.367188 C 294.398438 302.367188 292.4375 300.40625 292.4375 298 L 292.4375 166.941406 C 292.4375 164.535156 294.398438 162.570312 296.808594 162.570312 C 299.214844 162.570312 301.175781 164.535156 301.175781 166.941406 L 301.175781 298 C 301.175781 300.40625 299.214844 302.367188 296.808594 302.367188 "/>
<path style=" stroke:none;fill-rule:nonzero;fill:rgb(84.309387%,23.529053%,19.219971%);fill-opacity:1;" d="M 244.375 302.367188 C 241.96875 302.367188 240.003906 300.40625 240.003906 298 L 240.003906 166.941406 C 240.003906 164.535156 241.96875 162.570312 244.375 162.570312 C 246.78125 162.570312 248.742188 164.535156 248.742188 166.941406 L 248.742188 298 C 248.742188 300.40625 246.78125 302.367188 244.375 302.367188 "/>
<path style=" stroke:none;fill-rule:nonzero;fill:rgb(84.309387%,23.529053%,19.219971%);fill-opacity:1;" d="M 218.15625 302.367188 C 215.75 302.367188 213.789062 300.40625 213.789062 298 L 213.789062 166.941406 C 213.789062 164.535156 215.75 162.570312 218.15625 162.570312 C 220.5625 162.570312 222.527344 164.535156 222.527344 166.941406 L 222.527344 298 C 222.527344 300.40625 220.5625 302.367188 218.15625 302.367188 "/>
<g clip-path="url(#clip4)" clip-rule="nonzero">
<path style=" stroke:none;fill-rule:nonzero;fill:rgb(52.549744%,20.779419%,18.429565%);fill-opacity:1;" d="M 226.894531 332.949219 C 226.894531 340.183594 221.023438 346.054688 213.789062 346.054688 C 206.550781 346.054688 200.679688 340.183594 200.679688 332.949219 C 200.679688 325.714844 206.550781 319.84375 213.789062 319.84375 C 221.023438 319.84375 226.894531 325.714844 226.894531 332.949219 "/>
</g>
<g clip-path="url(#clip5)" clip-rule="nonzero">
<path style=" stroke:none;fill-rule:nonzero;fill:rgb(52.549744%,20.779419%,18.429565%);fill-opacity:1;" d="M 314.285156 332.949219 C 314.285156 340.183594 308.414062 346.054688 301.175781 346.054688 C 293.941406 346.054688 288.066406 340.183594 288.066406 332.949219 C 288.066406 325.714844 293.941406 319.84375 301.175781 319.84375 C 308.414062 319.84375 314.285156 325.714844 314.285156 332.949219 "/>
</g>
<g clip-path="url(#clip6)" clip-rule="nonzero">
<path style=" stroke:none;fill-rule:nonzero;fill:rgb(94.509888%,27.059937%,23.919678%);fill-opacity:1;" d="M 279.328125 110.148438 L 235.632812 110.148438 C 230.804688 110.148438 226.894531 106.238281 226.894531 101.410156 C 226.894531 96.582031 230.804688 92.671875 235.632812 92.671875 L 279.328125 92.671875 C 284.160156 92.671875 288.066406 96.582031 288.066406 101.410156 C 288.066406 106.238281 284.160156 110.148438 279.328125 110.148438 "/>
</g>
</g>
</svg>
