<?xml version="1.0" encoding="UTF-8"?>
<svg xmlns="http://www.w3.org/2000/svg" xmlns:xlink="http://www.w3.org/1999/xlink" width="375pt" height="374.999991pt" viewBox="0 0 375 374.999991" version="1.2">
<defs>
<clipPath id="clip1">
  <path d="M 14 9.320312 L 361.25 9.320312 L 361.25 365.464844 L 14 365.464844 Z M 14 9.320312 "/>
</clipPath>
</defs>
<g id="surface1">
<g clip-path="url(#clip1)" clip-rule="nonzero">
<path style=" stroke:none;fill-rule:nonzero;fill:rgb(69.018555%,90.19928%,98.039246%);fill-opacity:1;" d="M 312.933594 72.109375 L 312.9375 72.109375 C 293.589844 50.167969 272.859375 9.289062 272.859375 9.289062 L 96.585938 9.289062 C 97.578125 26.089844 62.453125 72.109375 62.453125 72.109375 C 32.488281 103.246094 14.066406 145.53125 14.066406 192.113281 C 14.066406 287.804688 91.800781 365.382812 187.695312 365.382812 C 283.589844 365.382812 361.320312 287.804688 361.320312 192.113281 C 361.320312 145.53125 342.902344 103.246094 312.933594 72.109375 "/>
</g>
<path style=" stroke:none;fill-rule:nonzero;fill:rgb(27.839661%,76.858521%,95.289612%);fill-opacity:1;" d="M 313.589844 186.292969 C 305.714844 186.292969 305.714844 193.675781 297.847656 193.675781 C 289.980469 193.675781 289.980469 186.292969 282.109375 186.292969 C 274.242188 186.292969 274.242188 193.675781 266.375 193.675781 C 258.5 193.675781 258.5 186.292969 250.632812 186.292969 C 242.765625 186.292969 242.765625 193.675781 234.894531 193.675781 C 227.023438 193.675781 227.023438 186.292969 219.160156 186.292969 C 211.289062 186.292969 211.289062 193.675781 203.421875 193.675781 C 195.550781 193.675781 195.550781 186.292969 187.6875 186.292969 C 179.8125 186.292969 179.8125 193.675781 171.945312 193.675781 C 164.074219 193.675781 164.074219 186.292969 156.207031 186.292969 C 148.34375 186.292969 148.34375 193.675781 140.476562 193.675781 C 132.601562 193.675781 132.601562 186.292969 124.734375 186.292969 C 116.867188 186.292969 116.867188 193.675781 108.996094 193.675781 C 101.128906 193.675781 101.128906 186.292969 93.253906 186.292969 C 85.386719 186.292969 85.386719 193.675781 77.519531 193.675781 C 69.652344 193.675781 69.652344 186.292969 61.785156 186.292969 C 53.914062 186.292969 53.914062 193.675781 46.050781 193.675781 C 45.121094 193.675781 44.308594 193.574219 43.574219 193.390625 C 43.566406 193.933594 43.550781 194.472656 43.550781 195.011719 C 43.550781 274.453125 108.085938 338.855469 187.695312 338.855469 C 267.296875 338.855469 331.835938 274.453125 331.835938 195.011719 C 331.835938 194.472656 331.820312 193.929688 331.816406 193.390625 C 331.074219 193.574219 330.257812 193.675781 329.332031 193.675781 C 321.457031 193.675781 321.457031 186.292969 313.589844 186.292969 "/>
<path style=" stroke:none;fill-rule:nonzero;fill:rgb(59.999084%,87.059021%,97.648621%);fill-opacity:1;" d="M 84.972656 242.269531 C 85.664062 240.664062 84.605469 238.664062 82.601562 237.808594 C 80.605469 236.957031 78.417969 237.566406 77.734375 239.171875 L 71.820312 252.925781 C 71.820312 252.925781 79.738281 254.460938 81.960938 249.292969 L 84.972656 242.269531 "/>
<path style=" stroke:none;fill-rule:nonzero;fill:rgb(59.999084%,87.059021%,97.648621%);fill-opacity:1;" d="M 85.082031 232.464844 C 85.820312 234.050781 84.808594 236.078125 82.832031 236.984375 C 80.859375 237.898438 78.660156 237.351562 77.921875 235.757812 L 71.636719 222.175781 C 71.636719 222.175781 79.507812 220.417969 81.867188 225.523438 L 85.082031 232.464844 "/>
<path style=" stroke:none;fill-rule:nonzero;fill:rgb(98.429871%,78.42865%,19.999695%);fill-opacity:1;" d="M 142.3125 236.5625 C 142.3125 246.128906 128.769531 253.882812 112.058594 253.882812 C 90.625 253.882812 81.804688 241.382812 81.804688 236.5625 C 81.804688 233.152344 90.625 219.242188 112.058594 219.242188 C 128.769531 219.242188 142.3125 227 142.3125 236.5625 "/>
<path style=" stroke:none;fill-rule:nonzero;fill:rgb(59.999084%,87.059021%,97.648621%);fill-opacity:1;" d="M 115.839844 244.140625 L 113.839844 245.703125 C 109.757812 248.941406 103.78125 248.289062 100.566406 244.191406 L 115.839844 231.820312 L 115.839844 244.140625 "/>
<path style=" stroke:none;fill-rule:nonzero;fill:rgb(29.40979%,8.628845%,8.239746%);fill-opacity:1;" d="M 131.378906 231.488281 C 129.667969 231.488281 128.273438 232.871094 128.273438 234.585938 C 128.273438 236.292969 129.667969 237.675781 131.378906 237.675781 C 133.09375 237.675781 134.484375 236.292969 134.484375 234.585938 C 134.484375 232.871094 133.09375 231.488281 131.378906 231.488281 "/>
<path style=" stroke:none;fill-rule:nonzero;fill:rgb(100%,100%,100%);fill-opacity:1;" d="M 132.496094 232.683594 C 131.878906 232.683594 131.378906 233.179688 131.378906 233.796875 C 131.378906 234.410156 131.878906 234.910156 132.496094 234.910156 C 133.113281 234.910156 133.613281 234.410156 133.613281 233.796875 C 133.613281 233.179688 133.113281 232.683594 132.496094 232.683594 "/>
<path style=" stroke:none;fill-rule:nonzero;fill:rgb(59.999084%,87.059021%,97.648621%);fill-opacity:1;" d="M 150.664062 233.199219 C 150.664062 234.949219 149.242188 236.367188 147.492188 236.367188 C 145.738281 236.367188 144.316406 234.949219 144.316406 233.199219 C 144.316406 231.449219 145.738281 230.03125 147.492188 230.03125 C 149.242188 230.03125 150.664062 231.449219 150.664062 233.199219 "/>
<path style=" stroke:none;fill-rule:nonzero;fill:rgb(59.999084%,87.059021%,97.648621%);fill-opacity:1;" d="M 157.007812 223.207031 C 157.007812 224.953125 155.589844 226.371094 153.839844 226.371094 C 152.085938 226.371094 150.664062 224.953125 150.664062 223.207031 C 150.664062 221.457031 152.085938 220.035156 153.839844 220.035156 C 155.589844 220.035156 157.007812 221.457031 157.007812 223.207031 "/>
<path style=" stroke:none;fill-rule:nonzero;fill:rgb(59.999084%,87.059021%,97.648621%);fill-opacity:1;" d="M 148.269531 215.9375 C 148.269531 217.683594 146.84375 219.105469 145.09375 219.105469 C 143.339844 219.105469 141.917969 217.683594 141.917969 215.9375 C 141.917969 214.1875 143.339844 212.769531 145.09375 212.769531 C 146.84375 212.769531 148.269531 214.1875 148.269531 215.9375 "/>
<path style=" stroke:none;fill-rule:nonzero;fill:rgb(59.999084%,87.059021%,97.648621%);fill-opacity:1;" d="M 277.054688 254.871094 C 276.441406 253.433594 277.390625 251.648438 279.179688 250.882812 C 280.96875 250.117188 282.917969 250.664062 283.53125 252.09375 L 288.816406 264.398438 C 288.816406 264.398438 281.742188 265.769531 279.757812 261.148438 L 277.054688 254.871094 "/>
<path style=" stroke:none;fill-rule:nonzero;fill:rgb(59.999084%,87.059021%,97.648621%);fill-opacity:1;" d="M 276.960938 246.101562 C 276.304688 247.523438 277.207031 249.328125 278.972656 250.144531 C 280.742188 250.957031 282.703125 250.472656 283.363281 249.046875 L 288.980469 236.90625 C 288.980469 236.90625 281.945312 235.332031 279.835938 239.898438 L 276.960938 246.101562 "/>
<path style=" stroke:none;fill-rule:nonzero;fill:rgb(65.489197%,64.709473%,65.098572%);fill-opacity:1;" d="M 225.800781 249.765625 C 225.800781 258.316406 237.90625 265.25 252.839844 265.25 C 272.003906 265.25 279.894531 254.078125 279.894531 249.765625 C 279.894531 246.71875 272.003906 234.28125 252.839844 234.28125 C 237.90625 234.28125 225.800781 241.214844 225.800781 249.765625 "/>
<path style=" stroke:none;fill-rule:nonzero;fill:rgb(59.999084%,87.059021%,97.648621%);fill-opacity:1;" d="M 249.464844 256.539062 L 251.25 257.933594 C 254.90625 260.835938 260.246094 260.253906 263.125 256.585938 L 249.464844 245.53125 L 249.464844 256.539062 "/>
<path style=" stroke:none;fill-rule:nonzero;fill:rgb(29.40979%,8.628845%,8.239746%);fill-opacity:1;" d="M 235.570312 245.230469 C 237.109375 245.230469 238.351562 246.46875 238.351562 247.996094 C 238.351562 249.527344 237.109375 250.765625 235.570312 250.765625 C 234.042969 250.765625 232.800781 249.527344 232.800781 247.996094 C 232.800781 246.46875 234.042969 245.230469 235.570312 245.230469 "/>
<path style=" stroke:none;fill-rule:nonzero;fill:rgb(100%,100%,100%);fill-opacity:1;" d="M 234.578125 246.296875 C 235.125 246.296875 235.574219 246.742188 235.574219 247.292969 C 235.574219 247.847656 235.125 248.289062 234.578125 248.289062 C 234.023438 248.289062 233.578125 247.847656 233.578125 247.292969 C 233.578125 246.742188 234.023438 246.296875 234.578125 246.296875 "/>
<path style=" stroke:none;fill-rule:nonzero;fill:rgb(59.999084%,87.059021%,97.648621%);fill-opacity:1;" d="M 218.332031 246.753906 C 218.332031 248.328125 219.605469 249.589844 221.171875 249.589844 C 222.738281 249.589844 224.007812 248.328125 224.007812 246.753906 C 224.007812 245.191406 222.738281 243.929688 221.171875 243.929688 C 219.605469 243.929688 218.332031 245.191406 218.332031 246.753906 "/>
<path style=" stroke:none;fill-rule:nonzero;fill:rgb(59.999084%,87.059021%,97.648621%);fill-opacity:1;" d="M 212.660156 237.828125 C 212.660156 239.390625 213.925781 240.652344 215.496094 240.652344 C 217.0625 240.652344 218.332031 239.390625 218.332031 237.828125 C 218.332031 236.257812 217.0625 234.992188 215.496094 234.992188 C 213.925781 234.992188 212.660156 236.257812 212.660156 237.828125 "/>
<path style=" stroke:none;fill-rule:nonzero;fill:rgb(59.999084%,87.059021%,97.648621%);fill-opacity:1;" d="M 220.476562 231.324219 C 220.476562 232.890625 221.746094 234.160156 223.3125 234.160156 C 224.878906 234.160156 226.152344 232.890625 226.152344 231.324219 C 226.152344 229.765625 224.878906 228.496094 223.3125 228.496094 C 221.746094 228.496094 220.476562 229.765625 220.476562 231.324219 "/>
<path style=" stroke:none;fill-rule:nonzero;fill:rgb(11.759949%,22.349548%,5.879211%);fill-opacity:1;" d="M 197.480469 304.292969 C 197.480469 304.292969 196.566406 296.703125 187.140625 294.335938 C 177.714844 291.964844 176 285.867188 176 285.867188 C 176 285.867188 173.277344 308.332031 197.480469 304.292969 "/>
<path style=" stroke:none;fill-rule:nonzero;fill:rgb(11.759949%,22.349548%,5.879211%);fill-opacity:1;" d="M 200.851562 280.285156 C 200.851562 280.285156 222.167969 277.484375 224.96875 262.019531 C 224.96875 262.019531 220.855469 264.554688 217.917969 264.5625 C 214.980469 264.570312 201.359375 266.542969 200.851562 280.285156 "/>
<path style=" stroke:none;fill-rule:nonzero;fill:rgb(11.759949%,22.349548%,5.879211%);fill-opacity:1;" d="M 200.851562 319.109375 C 200.851562 319.109375 179.625 322.472656 172.535156 308.441406 C 172.535156 308.441406 177.199219 309.703125 180.015625 308.878906 C 182.835938 308.050781 196.460938 306.078125 200.851562 319.109375 "/>
<path style=" stroke:none;fill-rule:nonzero;fill:rgb(11.759949%,22.349548%,5.879211%);fill-opacity:1;" d="M 202.371094 322.925781 C 202.371094 322.925781 218.109375 319.375 222.089844 302.089844 C 222.089844 302.089844 218.191406 305.46875 215.300781 306.128906 C 212.398438 306.789062 199.839844 312.015625 202.371094 322.925781 "/>
<path style=" stroke:none;fill-rule:nonzero;fill:rgb(11.759949%,22.349548%,5.879211%);fill-opacity:1;" d="M 203.1875 273.59375 C 203.1875 273.59375 201.882812 266.730469 195.632812 261.554688 C 189.382812 256.375 190.320312 249.679688 190.320312 249.679688 C 190.320312 249.679688 183.105469 261.613281 189.035156 268.8125 C 191.292969 271.554688 198.875 276.210938 203.1875 273.59375 "/>
<path style=" stroke:none;fill-rule:nonzero;fill:rgb(11.759949%,22.349548%,5.879211%);fill-opacity:1;" d="M 198.1875 304.785156 C 198.1875 304.785156 205.316406 304.671875 212.289062 297.792969 C 216.445312 293.703125 217.734375 285.664062 216.59375 278.210938 C 216.59375 278.210938 215.320312 283.800781 210.152344 287.152344 C 204.605469 290.742188 198.398438 293.542969 198.1875 304.785156 "/>
<path style=" stroke:none;fill-rule:nonzero;fill:rgb(11.759949%,22.349548%,5.879211%);fill-opacity:1;" d="M 197.140625 291.5 C 197.140625 291.5 182.03125 282.3125 180.894531 266.542969 C 180.894531 266.542969 183.796875 270.492188 187.433594 271.855469 C 189.785156 272.738281 199.410156 280.773438 197.140625 291.5 "/>
<path style=" stroke:none;fill-rule:nonzero;fill:rgb(17.649841%,32.939148%,9.408569%);fill-opacity:1;" d="M 199.292969 320.871094 C 199.511719 321.707031 199.703125 322.539062 199.871094 323.371094 C 200.222656 325.042969 200.429688 326.726562 200.539062 328.398438 C 200.621094 330.066406 200.589844 331.734375 200.378906 333.355469 C 200.28125 334.175781 200.140625 334.976562 199.949219 335.75 C 199.855469 336.136719 199.742188 336.515625 199.621094 336.882812 C 199.5625 337.066406 199.503906 337.246094 199.4375 337.414062 L 199.285156 337.804688 L 204.304688 337.804688 C 204.394531 337.554688 204.492188 337.3125 204.566406 337.066406 C 204.875 336.085938 205.109375 335.097656 205.292969 334.109375 C 205.636719 332.125 205.75 330.136719 205.671875 328.167969 C 205.609375 326.199219 205.34375 324.25 204.960938 322.34375 C 204.769531 321.386719 204.535156 320.445312 204.269531 319.515625 C 204.011719 318.585938 203.707031 317.652344 203.445312 316.824219 C 202.386719 313.449219 201.425781 310.027344 200.703125 306.5625 C 199.953125 303.101562 199.460938 299.582031 199.316406 296.054688 C 199.019531 289 200.140625 281.855469 203.457031 275.492188 C 204.257812 273.820312 205.007812 272.132812 205.65625 270.382812 C 206.292969 268.636719 206.84375 266.832031 207.03125 264.925781 C 207.121094 263.980469 207.113281 263.003906 206.902344 262.050781 C 206.695312 261.101562 206.269531 260.199219 205.6875 259.445312 C 204.5 257.925781 202.886719 256.957031 201.328125 256.019531 L 201.203125 256.046875 L 201.226562 256.171875 C 202.699219 257.226562 204.207031 258.332031 205.160156 259.8125 C 206.136719 261.277344 206.273438 263.074219 205.949219 264.78125 C 205.632812 266.503906 204.96875 268.167969 204.21875 269.789062 C 203.460938 271.40625 202.59375 272.992188 201.679688 274.542969 C 199.738281 277.695312 198.230469 281.242188 197.261719 284.878906 C 196.285156 288.523438 195.785156 292.296875 195.652344 296.054688 C 195.410156 303.585938 196.40625 311.136719 198.539062 318.328125 C 198.816406 319.246094 199.070312 320.042969 199.292969 320.871094 "/>
<path style=" stroke:none;fill-rule:nonzero;fill:rgb(25.489807%,47.839355%,14.898682%);fill-opacity:1;" d="M 167.078125 248.007812 C 167.078125 248.007812 149.347656 244.851562 148.585938 224.425781 C 148.585938 224.425781 151.425781 229.507812 155.816406 231.324219 C 162.34375 234.019531 169.042969 240 167.078125 248.007812 "/>
<path style=" stroke:none;fill-rule:nonzero;fill:rgb(35.289001%,66.268921%,21.569824%);fill-opacity:1;" d="M 172.261719 270.003906 C 173.890625 272.808594 175.585938 275.492188 177.113281 278.242188 C 178.644531 280.984375 180.074219 283.738281 180.84375 286.535156 C 181.640625 289.324219 181.675781 292.207031 181.199219 295.148438 C 180.753906 298.097656 179.878906 301.070312 178.871094 304.011719 C 178.378906 305.496094 177.84375 306.96875 177.289062 308.441406 C 176.730469 309.925781 176.148438 311.339844 175.550781 312.894531 C 174.386719 315.988281 173.394531 319.175781 172.84375 322.488281 C 172.285156 325.800781 172.074219 329.230469 172.542969 332.660156 C 172.792969 334.371094 173.207031 336.074219 173.84375 337.726562 L 173.875 337.804688 L 178.089844 337.804688 C 177.878906 337.34375 177.683594 336.871094 177.519531 336.386719 C 177.058594 335.03125 176.769531 333.605469 176.621094 332.15625 C 176.296875 329.238281 176.53125 326.226562 177.097656 323.257812 C 177.6875 320.292969 178.554688 317.34375 179.667969 314.464844 C 180.21875 313.054688 180.855469 311.507812 181.425781 310.007812 C 182.003906 308.496094 182.554688 306.96875 183.082031 305.421875 C 184.085938 302.3125 184.988281 299.128906 185.449219 295.75 C 185.679688 294.058594 185.757812 292.320312 185.640625 290.5625 C 185.527344 288.8125 185.191406 287.0625 184.660156 285.402344 C 183.59375 282.070312 181.890625 279.179688 180.210938 276.425781 C 178.523438 273.65625 176.691406 271.003906 175 268.351562 C 173.324219 265.691406 171.78125 262.996094 170.664062 260.148438 C 169.542969 257.304688 168.855469 254.308594 168.703125 251.242188 C 168.539062 248.1875 168.886719 245.089844 169.566406 242.046875 C 169.910156 240.527344 170.332031 239.019531 170.824219 237.527344 C 171.304688 236.050781 171.882812 234.546875 172.410156 233.03125 C 173.476562 230.007812 174.5 226.960938 175.3125 223.832031 C 176.113281 220.714844 176.726562 217.480469 176.632812 214.1875 C 176.589844 212.542969 176.351562 210.898438 175.90625 209.316406 C 175.464844 207.734375 174.824219 206.21875 174.066406 204.777344 C 172.554688 201.898438 170.617188 199.3125 168.632812 196.796875 C 168.488281 196.617188 168.226562 196.585938 168.042969 196.726562 C 167.863281 196.867188 167.832031 197.128906 167.972656 197.3125 C 169.894531 199.839844 171.75 202.433594 173.160156 205.238281 C 174.566406 208.042969 175.386719 211.097656 175.363281 214.207031 C 175.367188 217.308594 174.703125 220.40625 173.839844 223.429688 C 172.964844 226.464844 171.875 229.449219 170.738281 232.417969 C 170.164062 233.894531 169.542969 235.355469 168.972656 236.890625 C 168.414062 238.410156 167.921875 239.964844 167.5 241.546875 C 166.671875 244.707031 166.179688 247.996094 166.238281 251.328125 C 166.269531 254.652344 166.898438 257.984375 168 261.125 C 169.097656 264.269531 170.636719 267.203125 172.261719 270.003906 "/>
<path style=" stroke:none;fill-rule:nonzero;fill:rgb(25.489807%,47.839355%,14.898682%);fill-opacity:1;" d="M 172.832031 229.257812 C 172.832031 229.257812 165.253906 228.144531 163.136719 218.675781 C 161.015625 209.207031 154.949219 207.335938 154.949219 207.335938 C 154.949219 207.335938 177.527344 205.222656 172.832031 229.257812 "/>
<path style=" stroke:none;fill-rule:nonzero;fill:rgb(25.489807%,47.839355%,14.898682%);fill-opacity:1;" d="M 171.855469 234.585938 C 171.855469 234.585938 199.347656 228.660156 198.742188 210.96875 C 198.742188 210.96875 197.226562 214.742188 191.769531 215.65625 C 186.316406 216.558594 174.964844 217.25 171.855469 234.585938 "/>
<path style=" stroke:none;fill-rule:nonzero;fill:rgb(25.489807%,47.839355%,14.898682%);fill-opacity:1;" d="M 169.105469 259.1875 C 169.105469 259.1875 189.757812 253.242188 190.203125 237.535156 C 190.203125 237.535156 186.523438 240.648438 183.621094 241.097656 C 180.71875 241.542969 167.542969 245.53125 169.105469 259.1875 "/>
<path style=" stroke:none;fill-rule:nonzero;fill:rgb(25.489807%,47.839355%,14.898682%);fill-opacity:1;" d="M 171.855469 267.859375 C 171.855469 267.859375 155.957031 270.644531 145.605469 256.226562 C 145.605469 256.226562 150.511719 257.839844 153.4375 257.335938 C 156.367188 256.832031 169.976562 256.820312 171.855469 267.859375 "/>
<path style=" stroke:none;fill-rule:nonzero;fill:rgb(25.489807%,47.839355%,14.898682%);fill-opacity:1;" d="M 177.222656 274.390625 C 177.222656 274.390625 177.984375 267.507812 186.875 264.996094 C 195.761719 262.476562 194.753906 256.226562 194.753906 256.226562 C 194.753906 256.226562 201.328125 263.316406 193.332031 272.191406 C 190.203125 275.664062 181.773438 277.117188 177.222656 274.390625 "/>
<path style=" stroke:none;fill-rule:nonzero;fill:rgb(25.489807%,47.839355%,14.898682%);fill-opacity:1;" d="M 179.59375 280.585938 C 179.59375 280.585938 173.589844 277.007812 165.558594 278.234375 C 157.53125 279.464844 153.136719 274.316406 153.136719 274.316406 C 153.136719 274.316406 157.285156 287.621094 166.613281 287.976562 C 170.171875 288.117188 178.691406 285.550781 179.59375 280.585938 "/>
<path style=" stroke:none;fill-rule:nonzero;fill:rgb(25.489807%,47.839355%,14.898682%);fill-opacity:1;" d="M 180.628906 303.199219 C 180.628906 303.199219 187.75 303.199219 194.839844 296.445312 C 199.0625 292.421875 200.488281 284.40625 199.46875 276.933594 C 199.46875 276.933594 198.105469 282.5 192.882812 285.761719 C 187.273438 289.261719 181.027344 291.964844 180.628906 303.199219 "/>
<path style=" stroke:none;fill-rule:nonzero;fill:rgb(25.489807%,47.839355%,14.898682%);fill-opacity:1;" d="M 179.246094 312.9375 C 179.246094 312.9375 164.136719 303.746094 163.007812 287.984375 C 163.007812 287.984375 165.910156 291.929688 169.542969 293.292969 C 171.894531 294.171875 181.515625 302.210938 179.246094 312.9375 "/>
</g>
</svg>
