<?xml version="1.0" encoding="UTF-8"?>
<svg xmlns="http://www.w3.org/2000/svg" xmlns:xlink="http://www.w3.org/1999/xlink" width="375pt" height="374.999991pt" viewBox="0 0 375 374.999991" version="1.2">
<defs>
<clipPath id="clip1">
  <path d="M 103 75 L 205 75 L 205 132 L 103 132 Z M 103 75 "/>
</clipPath>
</defs>
<g id="surface1">
<path style=" stroke:none;fill-rule:nonzero;fill:rgb(63.919067%,56.079102%,76.469421%);fill-opacity:1;" d="M 268.703125 190.453125 C 269.277344 185.953125 257.011719 180.65625 253.59375 179.082031 C 248.898438 176.914062 242.148438 175.6875 238.03125 170.398438 C 230.054688 160.167969 212.777344 143.917969 191.484375 128.566406 C 191.265625 128.710938 191.066406 128.898438 190.839844 129.019531 C 185.386719 131.871094 181.488281 105.234375 175.992188 102.878906 C 170.53125 100.539062 179.941406 86.039062 154.933594 91.808594 C 154.234375 91.972656 105.683594 96.585938 106.226562 96.132812 C 90.945312 97.441406 72.589844 102.992188 59.757812 112.171875 C 59.757812 112.171875 70.195312 157.832031 75.285156 163.394531 C 100.132812 190.5625 83.5625 225.824219 87.707031 228.800781 C 108.554688 243.789062 135.820312 240.683594 142.652344 239.90625 C 141.875 238.984375 159.605469 242.402344 158.589844 241.75 C 157.359375 240.960938 158.730469 244.6875 165.234375 243.789062 C 171.898438 242.871094 173.3125 225.324219 176.339844 231.6875 C 199.371094 223.1875 219.867188 210.019531 236.273438 198.113281 C 239.386719 195.855469 243.910156 195.574219 248.097656 195.015625 C 253.316406 194.316406 267.941406 196.410156 268.703125 190.453125 Z M 268.703125 190.453125 "/>
<path style=" stroke:none;fill-rule:nonzero;fill:rgb(32.159424%,27.839661%,59.21936%);fill-opacity:1;" d="M 163.257812 246.402344 C 159.964844 246.402344 157.90625 245.289062 156.804688 244.152344 C 156.648438 244.132812 156.492188 244.109375 156.332031 244.085938 C 155.148438 243.921875 153.546875 243.671875 151.847656 243.402344 C 149.226562 242.992188 145.023438 242.328125 143.492188 242.226562 C 143.3125 242.292969 143.125 242.335938 142.933594 242.355469 C 113.957031 245.648438 96.121094 237.890625 86.265625 230.804688 C 83.863281 229.078125 84.382812 225.484375 85.328125 218.960938 C 87.113281 206.609375 90.4375 183.621094 73.460938 165.058594 C 71.921875 163.375 69.1875 158.566406 63.226562 136.335938 C 61.542969 130.054688 60.035156 123.96875 59.066406 119.972656 C 57.132812 111.996094 57.132812 111.996094 57.496094 111.171875 C 57.675781 110.765625 57.960938 110.414062 58.320312 110.15625 C 70.472656 101.464844 88.746094 95.144531 106.015625 93.667969 C 106.214844 93.648438 106.417969 93.65625 106.613281 93.6875 C 110.398438 93.601562 151.410156 89.785156 154.46875 89.375 C 163.164062 87.378906 168.804688 87.535156 172.210938 89.871094 C 175.335938 92.015625 175.824219 95.386719 176.179688 97.84375 C 176.34375 98.996094 176.550781 100.429688 176.960938 100.605469 C 180.246094 102.011719 182.261719 107.15625 185.1875 115.464844 C 186.480469 119.140625 188.589844 125.117188 190.015625 126.574219 C 190.054688 126.546875 190.09375 126.519531 190.136719 126.492188 C 190.992188 125.9375 192.097656 125.960938 192.925781 126.558594 C 212.4375 140.625 230.90625 157.234375 239.976562 168.878906 C 242.625 172.277344 246.667969 173.773438 250.578125 175.21875 C 252.007812 175.75 253.355469 176.25 254.628906 176.835938 L 255.300781 177.144531 C 263.933594 181.082031 271.832031 185.453125 271.152344 190.769531 C 270.308594 197.359375 261.027344 197.335938 253.578125 197.316406 C 251.53125 197.3125 249.597656 197.304688 248.421875 197.460938 C 247.871094 197.535156 247.3125 197.605469 246.753906 197.675781 C 243.390625 198.089844 239.914062 198.519531 237.722656 200.113281 C 215.621094 216.152344 196.386719 226.921875 177.191406 234.003906 C 176.554688 234.238281 175.878906 234.195312 175.300781 233.925781 C 175.039062 234.507812 174.769531 235.152344 174.535156 235.703125 C 172.78125 239.871094 170.375 245.574219 165.570312 246.238281 C 164.738281 246.351562 163.972656 246.402344 163.257812 246.402344 Z M 160.980469 241.078125 C 161.640625 241.347656 162.859375 241.617188 164.894531 241.335938 C 166.914062 241.058594 168.835938 236.5 169.984375 233.777344 C 171.429688 230.355469 172.472656 227.878906 174.96875 227.824219 C 175.816406 227.804688 176.574219 228.101562 177.234375 228.707031 C 195.417969 221.78125 213.773438 211.382812 234.824219 196.109375 C 238.046875 193.769531 242.164062 193.257812 246.148438 192.765625 C 246.691406 192.699219 247.234375 192.632812 247.769531 192.5625 C 249.277344 192.359375 251.273438 192.367188 253.589844 192.371094 C 257.289062 192.386719 265.957031 192.402344 266.253906 190.144531 C 266.257812 189.875 265.910156 187.414062 253.253906 181.644531 L 252.5625 181.328125 C 251.464844 180.820312 250.203125 180.351562 248.867188 179.859375 C 244.734375 178.328125 239.59375 176.425781 236.082031 171.917969 C 229.515625 163.492188 213.910156 147.9375 191.3125 131.492188 C 190.390625 131.796875 189.40625 131.773438 188.488281 131.410156 C 185.265625 130.140625 183.363281 125.148438 180.53125 117.113281 C 179.050781 112.917969 176.578125 105.890625 175.015625 105.152344 C 172.0625 103.882812 171.632812 100.929688 171.292969 98.554688 C 170.960938 96.265625 170.671875 94.8125 169.421875 93.957031 C 167.949219 92.945312 164.339844 92.175781 155.484375 94.21875 C 154.605469 94.421875 130.851562 96.617188 130.609375 96.636719 C 124.570312 97.195312 118.542969 97.730469 114.015625 98.109375 C 109.976562 98.445312 107.714844 98.632812 106.371094 98.601562 C 90.585938 99.964844 73.976562 105.535156 62.535156 113.25 C 66.824219 131.851562 73.929688 158.253906 77.101562 161.722656 C 95.660156 182.007812 92.117188 206.511719 90.214844 219.671875 C 89.792969 222.597656 89.316406 225.882812 89.496094 227.039062 C 98.621094 233.480469 114.949219 240.367188 141.464844 237.546875 C 142.652344 236.949219 145.121094 237.339844 152.613281 238.519531 C 154.351562 238.792969 156.402344 239.117188 157.585938 239.269531 C 158.253906 239.078125 159.078125 239.121094 159.925781 239.667969 C 160.4375 239.996094 160.808594 240.507812 160.980469 241.078125 Z M 268.703125 190.453125 L 268.714844 190.453125 Z M 268.703125 190.453125 "/>
<path style=" stroke:none;fill-rule:nonzero;fill:rgb(76.469421%,71.759033%,85.879517%);fill-opacity:1;" d="M 114.199219 127.507812 C 109.113281 121.949219 85.433594 100.253906 61.757812 108.300781 C 61.757812 108.300781 61.753906 108.300781 61.753906 108.300781 C 29.578125 119.234375 2.992188 160.902344 14.308594 194.601562 C 17.429688 203.890625 23.421875 212.570312 32.972656 219.839844 C 33.015625 219.867188 33.046875 219.898438 33.085938 219.929688 C 33.101562 219.941406 33.113281 219.949219 33.125 219.957031 C 42.886719 227.339844 53.371094 231.964844 64.257812 234.882812 C 80.042969 239.109375 96.683594 239.703125 113.257812 239.59375 C 136.519531 229.125 143.4375 159.472656 114.199219 127.507812 Z M 114.199219 127.507812 "/>
<g clip-path="url(#clip1)" clip-rule="nonzero">
<path style=" stroke:none;fill-rule:nonzero;fill:rgb(90.979004%,64.309692%,50.979614%);fill-opacity:1;" d="M 103.914062 99.554688 C 104.128906 100.054688 104.671875 100.253906 105.164062 100.394531 C 115.355469 103.339844 126.246094 102.785156 136.316406 106.183594 C 144.195312 108.839844 151.230469 113.804688 157.898438 119.070312 C 162.648438 122.816406 167.347656 126.796875 172.808594 129.140625 C 178.304688 131.496094 185.386719 131.871094 190.835938 129.019531 C 191.066406 128.898438 191.265625 128.707031 191.484375 128.5625 C 196.035156 125.585938 198.433594 117.789062 195.441406 112.910156 C 194.421875 111.246094 192.910156 109.917969 192.226562 108.0625 C 190.765625 104.074219 193.71875 99.835938 196.804688 97.152344 C 199.890625 94.46875 203.601562 91.835938 204.375 87.628906 C 205.15625 83.382812 202.394531 79.105469 198.847656 77.117188 C 195.300781 75.132812 191.15625 74.941406 187.167969 74.941406 C 163.523438 74.953125 141.234375 81.644531 118.945312 89.648438 C 114.476562 91.253906 109.921875 93.039062 106.226562 96.132812 C 105.683594 96.585938 105.15625 97.0625 104.65625 97.578125 C 104.144531 98.101562 103.617188 98.863281 103.914062 99.554688 Z M 103.914062 99.554688 "/>
</g>
<path style=" stroke:none;fill-rule:nonzero;fill:rgb(90.979004%,64.309692%,50.979614%);fill-opacity:1;" d="M 157.339844 227.488281 C 150.839844 228.382812 144.347656 229.367188 137.867188 230.4375 C 137.371094 230.519531 136.859375 230.609375 136.441406 230.902344 C 135.242188 231.75 135.445312 233.839844 136.390625 235.003906 C 137.339844 236.167969 138.746094 236.730469 139.976562 237.519531 C 140.988281 238.171875 141.875 238.984375 142.652344 239.90625 C 145.085938 242.78125 146.460938 246.78125 147.175781 250.6875 C 148.125 255.847656 148.222656 261.207031 149.738281 266.203125 C 150.089844 267.367188 150.539062 268.539062 151.347656 269.398438 C 153.210938 271.371094 156.285156 271.023438 158.695312 269.96875 C 167.164062 266.261719 171.742188 256.4375 175.023438 247.195312 C 176.117188 244.109375 177.164062 240.945312 177.320312 237.566406 C 177.421875 235.109375 177.050781 233.1875 176.335938 231.6875 C 173.3125 225.320312 164.007812 226.570312 157.339844 227.488281 Z M 157.339844 227.488281 "/>
<path style=" stroke:none;fill-rule:nonzero;fill:rgb(32.159424%,27.839661%,59.21936%);fill-opacity:1;" d="M 43.738281 165.265625 C 43.003906 165.265625 42.269531 165.203125 41.546875 165.078125 C 36.207031 164.171875 32.09375 160.152344 28.660156 156.457031 C 27.992188 155.738281 28.03125 154.609375 28.75 153.941406 C 29.472656 153.269531 30.597656 153.3125 31.261719 154.03125 C 34.441406 157.449219 37.898438 160.847656 42.144531 161.570312 C 44.980469 162.054688 47.984375 161.222656 50.183594 159.347656 C 52.386719 157.46875 53.699219 154.609375 53.695312 151.695312 C 53.695312 150.710938 54.492188 149.914062 55.472656 149.914062 C 55.472656 149.914062 55.476562 149.914062 55.476562 149.914062 C 56.457031 149.914062 57.25 150.710938 57.253906 151.691406 C 57.253906 155.636719 55.476562 159.511719 52.488281 162.058594 C 50.058594 164.128906 46.90625 165.265625 43.738281 165.265625 Z M 43.738281 165.265625 "/>
<path style=" stroke:none;fill-rule:nonzero;fill:rgb(32.159424%,27.839661%,59.21936%);fill-opacity:1;" d="M 25.40625 208.339844 C 24.785156 208.339844 24.167969 208.265625 23.570312 208.113281 C 22.367188 207.804688 21.328125 207.257812 20.324219 206.726562 C 19.632812 206.363281 18.976562 206.019531 18.328125 205.789062 C 17.402344 205.457031 16.921875 204.441406 17.25 203.511719 C 17.582031 202.585938 18.597656 202.101562 19.519531 202.433594 C 20.40625 202.75 21.207031 203.167969 21.980469 203.578125 C 22.839844 204.03125 23.652344 204.457031 24.453125 204.664062 C 25.699219 204.984375 27.125 204.648438 28.363281 203.742188 C 29.816406 202.679688 30.742188 201.042969 30.84375 199.367188 C 30.898438 198.382812 31.753906 197.636719 32.722656 197.691406 C 33.703125 197.75 34.449219 198.59375 34.390625 199.574219 C 34.230469 202.300781 32.761719 204.933594 30.460938 206.617188 C 28.914062 207.75 27.140625 208.339844 25.40625 208.339844 Z M 25.40625 208.339844 "/>
<path style=" stroke:none;fill-rule:nonzero;fill:rgb(32.159424%,27.839661%,59.21936%);fill-opacity:1;" d="M 141.226562 222.605469 C 139.546875 222.605469 137.953125 221.996094 136.777344 220.851562 C 136.070312 220.167969 136.050781 219.042969 136.730469 218.335938 C 137.414062 217.628906 138.539062 217.609375 139.246094 218.292969 C 139.929688 218.957031 140.980469 219.199219 142.058594 218.945312 C 143.25 218.664062 144.1875 217.863281 144.558594 216.808594 C 145.589844 213.875 143.261719 210.445312 141.113281 207.785156 C 140.734375 207.316406 140.617188 206.6875 140.804688 206.113281 C 140.992188 205.539062 141.457031 205.101562 142.039062 204.945312 C 144.773438 204.21875 146.707031 200.433594 146.09375 197 C 145.507812 193.738281 142.941406 190.75 139.554688 189.390625 C 138.644531 189.027344 138.199219 187.988281 138.566406 187.078125 C 138.929688 186.164062 139.964844 185.71875 140.875 186.085938 C 145.445312 187.917969 148.785156 191.859375 149.59375 196.375 C 150.367188 200.722656 148.46875 205.203125 145.25 207.339844 C 147.460938 210.4375 149.257812 214.171875 147.914062 217.992188 C 147.136719 220.199219 145.25 221.847656 142.875 222.410156 C 142.320312 222.542969 141.769531 222.605469 141.226562 222.605469 Z M 141.226562 222.605469 "/>
<path style=" stroke:none;fill-rule:nonzero;fill:rgb(32.159424%,27.839661%,59.21936%);fill-opacity:1;" d="M 151.234375 155.082031 C 150.445312 155.082031 149.726562 154.554688 149.515625 153.753906 C 149.265625 152.800781 149.832031 151.828125 150.78125 151.578125 C 152.214844 151.199219 153.246094 148.914062 152.898438 146.875 C 152.566406 144.925781 151.339844 143.023438 149.144531 141.050781 C 148.730469 140.679688 147.960938 139.988281 147.824219 138.859375 C 147.679688 137.679688 148.296875 136.800781 148.664062 136.277344 C 150.351562 133.867188 150.648438 130.367188 149.421875 127.710938 C 148.230469 125.144531 145.59375 123.363281 142.988281 123.363281 C 142.960938 123.363281 142.933594 123.363281 142.90625 123.363281 C 141.933594 123.363281 141.140625 122.578125 141.128906 121.601562 C 141.121094 120.621094 141.90625 119.8125 142.886719 119.800781 C 146.953125 119.796875 150.851562 122.335938 152.648438 126.214844 C 154.410156 130.023438 153.996094 134.871094 151.609375 138.269531 C 151.582031 138.3125 151.550781 138.355469 151.519531 138.398438 C 151.519531 138.398438 151.523438 138.402344 151.523438 138.402344 C 154.335938 140.929688 155.929688 143.503906 156.402344 146.273438 C 156.992188 149.726562 155.355469 154.050781 151.6875 155.019531 C 151.535156 155.0625 151.382812 155.082031 151.234375 155.082031 Z M 151.234375 155.082031 "/>
<path style=" stroke:none;fill-rule:nonzero;fill:rgb(32.159424%,27.839661%,59.21936%);fill-opacity:1;" d="M 161.816406 199.835938 C 160.84375 199.835938 160.050781 199.046875 160.039062 198.070312 C 160.03125 197.089844 160.816406 196.28125 161.800781 196.273438 C 164.117188 196.25 166.402344 193.808594 166.796875 190.945312 C 167.183594 188.117188 166.007812 184.960938 163.734375 182.707031 C 163.367188 182.347656 162.9375 181.921875 162.664062 181.273438 C 161.769531 179.152344 163.339844 177.511719 164.277344 176.53125 C 164.476562 176.324219 164.671875 176.121094 164.839844 175.917969 C 165.648438 174.945312 165.675781 173.054688 164.910156 171.519531 C 164.097656 169.890625 162.613281 168.617188 161.035156 167.351562 C 160.605469 167.007812 160.359375 166.484375 160.367188 165.9375 C 160.375 165.386719 160.636719 164.871094 161.078125 164.539062 C 162.828125 163.21875 164.8125 161.726562 165.734375 159.679688 C 166.460938 158.070312 166.375 156.011719 165.503906 154.171875 C 164.734375 152.550781 163.5 151.410156 162.117188 151.039062 C 161.167969 150.785156 160.605469 149.8125 160.859375 148.859375 C 161.113281 147.910156 162.085938 147.34375 163.035156 147.601562 C 165.429688 148.242188 167.5 150.082031 168.714844 152.648438 C 170.027344 155.417969 170.125 158.59375 168.976562 161.148438 C 168.042969 163.214844 166.503906 164.757812 164.972656 166.019531 C 166.191406 167.121094 167.3125 168.371094 168.09375 169.925781 C 169.277344 172.300781 169.578125 175.78125 167.574219 178.195312 C 167.355469 178.460938 167.101562 178.726562 166.84375 178.992188 C 166.585938 179.265625 166.175781 179.695312 166.011719 179.957031 C 166.0625 180.003906 166.121094 180.066406 166.175781 180.117188 C 169.289062 183.203125 170.855469 187.511719 170.320312 191.429688 C 169.679688 196.101562 165.953125 199.792969 161.835938 199.835938 C 161.828125 199.835938 161.824219 199.835938 161.816406 199.835938 Z M 161.816406 199.835938 "/>
<path style=" stroke:none;fill-rule:nonzero;fill:rgb(32.159424%,27.839661%,59.21936%);fill-opacity:1;" d="M 137.652344 165.171875 C 137.269531 165.171875 136.882812 165.046875 136.558594 164.792969 C 135.785156 164.1875 135.652344 163.066406 136.257812 162.292969 C 137.984375 160.082031 138.691406 156.945312 138.097656 154.105469 C 137.511719 151.292969 135.65625 148.820312 133.257812 147.652344 L 132.960938 147.511719 C 132.308594 147.210938 131.5 146.832031 130.84375 146.070312 C 129.164062 144.113281 129.867188 141.726562 130.429688 139.8125 C 130.664062 139.019531 130.882812 138.273438 130.9375 137.625 C 131.136719 135.289062 128.945312 133.285156 127.621094 132.296875 C 127.171875 131.964844 126.710938 131.640625 126.246094 131.316406 C 124.425781 130.050781 122.363281 128.621094 121.078125 126.351562 C 120.652344 125.597656 120.828125 124.652344 121.488281 124.101562 C 122.550781 123.21875 122.984375 121.300781 122.5 119.636719 C 122.035156 118.039062 120.832031 116.574219 119.121094 115.511719 C 117.519531 114.515625 115.695312 113.976562 113.859375 113.949219 C 112.875 113.9375 112.089844 113.128906 112.105469 112.144531 C 112.117188 111.160156 112.941406 110.390625 113.90625 110.386719 C 116.390625 110.421875 118.84375 111.148438 120.996094 112.484375 C 123.453125 114.007812 125.199219 116.195312 125.914062 118.636719 C 126.625 121.078125 126.195312 123.730469 124.886719 125.605469 C 125.78125 126.660156 127 127.507812 128.269531 128.390625 C 128.765625 128.738281 129.265625 129.082031 129.746094 129.441406 C 133.054688 131.910156 134.734375 134.925781 134.480469 137.929688 C 134.394531 138.933594 134.113281 139.890625 133.839844 140.816406 C 133.40625 142.292969 133.152344 143.296875 133.539062 143.746094 C 133.695312 143.929688 134.0625 144.101562 134.457031 144.28125 L 134.808594 144.449219 C 138.175781 146.085938 140.769531 149.503906 141.578125 153.375 C 142.378906 157.214844 141.410156 161.476562 139.054688 164.488281 C 138.703125 164.9375 138.179688 165.171875 137.652344 165.171875 Z M 137.652344 165.171875 "/>
<path style=" stroke:none;fill-rule:nonzero;fill:rgb(32.159424%,27.839661%,59.21936%);fill-opacity:1;" d="M 127.644531 100.960938 C 127.03125 100.960938 126.433594 100.640625 126.105469 100.070312 C 125.613281 99.21875 125.902344 98.132812 126.753906 97.636719 C 146.3125 86.289062 168.378906 80.441406 190.566406 80.777344 C 191.546875 80.789062 192.332031 81.597656 192.316406 82.582031 C 192.304688 83.566406 191.546875 84.355469 190.515625 84.335938 C 168.976562 84.015625 147.539062 89.691406 128.535156 100.71875 C 128.253906 100.882812 127.949219 100.960938 127.644531 100.960938 Z M 127.644531 100.960938 "/>
<path style=" stroke:none;fill-rule:nonzero;fill:rgb(32.159424%,27.839661%,59.21936%);fill-opacity:1;" d="M 139.394531 104.65625 C 138.691406 104.65625 138.027344 104.238281 137.746094 103.546875 C 137.375 102.636719 137.8125 101.597656 138.722656 101.230469 C 152.464844 95.628906 166.832031 91.863281 181.417969 90.039062 C 182.378906 89.925781 183.28125 90.609375 183.402344 91.585938 C 183.523438 92.5625 182.832031 93.453125 181.859375 93.574219 C 167.578125 95.359375 153.515625 99.042969 140.0625 104.523438 C 139.84375 104.613281 139.617188 104.65625 139.394531 104.65625 Z M 139.394531 104.65625 "/>
<path style=" stroke:none;fill-rule:nonzero;fill:rgb(32.159424%,27.839661%,59.21936%);fill-opacity:1;" d="M 155.859375 110.578125 C 155.105469 110.578125 154.402344 110.09375 154.164062 109.332031 C 153.871094 108.394531 154.390625 107.394531 155.328125 107.101562 C 161.992188 105.007812 168.851562 103.417969 175.722656 102.375 C 176.691406 102.230469 177.601562 102.898438 177.746094 103.871094 C 177.894531 104.84375 177.226562 105.75 176.257812 105.898438 C 169.566406 106.910156 162.882812 108.460938 156.394531 110.5 C 156.214844 110.554688 156.035156 110.578125 155.859375 110.578125 Z M 155.859375 110.578125 "/>
<path style=" stroke:none;fill-rule:nonzero;fill:rgb(32.159424%,27.839661%,59.21936%);fill-opacity:1;" d="M 165.503906 117.847656 C 164.738281 117.847656 164.03125 117.347656 163.800781 116.578125 C 163.519531 115.636719 164.050781 114.644531 164.992188 114.359375 L 172.261719 112.171875 C 173.203125 111.890625 174.191406 112.421875 174.476562 113.363281 C 174.757812 114.304688 174.226562 115.296875 173.285156 115.578125 L 166.015625 117.769531 C 165.84375 117.820312 165.671875 117.847656 165.503906 117.847656 Z M 165.503906 117.847656 "/>
<path style=" stroke:none;fill-rule:nonzero;fill:rgb(32.159424%,27.839661%,59.21936%);fill-opacity:1;" d="M 154.929688 263.273438 C 153.992188 263.273438 153.207031 262.539062 153.15625 261.589844 C 152.769531 254.542969 151.519531 247.578125 149.441406 240.886719 C 148.960938 239.339844 148.585938 239.164062 148.570312 239.15625 C 147.609375 238.960938 146.992188 238.019531 147.191406 237.054688 C 147.386719 236.09375 148.332031 235.46875 149.292969 235.671875 C 151.699219 236.167969 152.523438 238.824219 152.835938 239.828125 C 155.003906 246.796875 156.304688 254.054688 156.707031 261.394531 C 156.757812 262.375 156.007812 263.214844 155.027344 263.269531 C 154.996094 263.273438 154.960938 263.273438 154.929688 263.273438 Z M 154.929688 263.273438 "/>
<path style=" stroke:none;fill-rule:nonzero;fill:rgb(32.159424%,27.839661%,59.21936%);fill-opacity:1;" d="M 159.792969 259.355469 C 159.75 259.355469 159.707031 259.355469 159.664062 259.351562 C 158.683594 259.28125 157.949219 258.429688 158.019531 257.449219 C 158.496094 250.71875 157.648438 243.808594 155.566406 237.453125 C 155.261719 236.519531 155.769531 235.511719 156.703125 235.207031 C 157.632812 234.902344 158.640625 235.410156 158.945312 236.34375 C 161.167969 243.132812 162.074219 250.519531 161.5625 257.699219 C 161.496094 258.640625 160.71875 259.355469 159.792969 259.355469 Z M 159.792969 259.355469 "/>
<path style=" stroke:none;fill-rule:nonzero;fill:rgb(32.159424%,27.839661%,59.21936%);fill-opacity:1;" d="M 166.792969 253.675781 C 166.726562 253.675781 166.660156 253.671875 166.59375 253.664062 C 165.617188 253.554688 164.914062 252.675781 165.023438 251.699219 C 165.597656 246.519531 165.167969 241.148438 163.773438 236.160156 C 163.507812 235.210938 164.0625 234.230469 165.007812 233.964844 C 165.953125 233.699219 166.933594 234.253906 167.195312 235.199219 C 168.714844 240.625 169.183594 246.464844 168.554688 252.089844 C 168.453125 253 167.6875 253.675781 166.792969 253.675781 Z M 166.792969 253.675781 "/>
<path style=" stroke:none;fill-rule:nonzero;fill:rgb(90.979004%,64.309692%,50.979614%);fill-opacity:1;" d="M 366.160156 196.675781 C 355.222656 184.144531 337.484375 179.308594 319.273438 178.277344 C 301.0625 177.246094 281.941406 179.632812 263.410156 179.71875 C 260.074219 179.734375 255.949219 178.683594 252.914062 177.042969 C 249.875 175.40625 247.234375 180.085938 246.136719 185.703125 C 245.039062 191.316406 243.34375 195.074219 248.007812 197.894531 C 252.667969 200.71875 268.484375 212.472656 274.644531 224.664062 C 283.175781 241.558594 287.492188 261.097656 293.355469 279.664062 C 295.660156 286.957031 298.964844 294.785156 306.597656 296.097656 C 312.464844 297.109375 319.632812 293.722656 324.875 288.609375 C 330.121094 283.496094 333.652344 276.90625 336.058594 270.375 C 339.441406 261.183594 340.832031 251.554688 338.675781 243.496094 C 337.9375 240.734375 336.808594 237.855469 338.054688 234.722656 C 339.105469 232.085938 341.644531 229.972656 344.199219 228.746094 C 346.753906 227.523438 349.398438 227.007812 352.007812 226.277344 C 359.527344 224.175781 368.175781 218.839844 370.390625 211.167969 C 372.066406 205.367188 369.402344 200.386719 366.160156 196.675781 Z M 366.160156 196.675781 "/>
<path style=" stroke:none;fill-rule:nonzero;fill:rgb(32.159424%,27.839661%,59.21936%);fill-opacity:1;" d="M 308.558594 278.167969 C 307.765625 278.167969 307.039062 277.628906 306.835938 276.824219 C 299.179688 246.585938 283.277344 218.222656 262.0625 196.949219 C 261.367188 196.253906 261.367188 195.125 262.0625 194.433594 C 262.757812 193.738281 263.882812 193.738281 264.574219 194.433594 C 286.238281 216.152344 302.46875 245.101562 310.28125 275.949219 C 310.523438 276.902344 309.949219 277.871094 308.996094 278.109375 C 308.851562 278.148438 308.703125 278.167969 308.558594 278.167969 Z M 308.558594 278.167969 "/>
<path style=" stroke:none;fill-rule:nonzero;fill:rgb(32.159424%,27.839661%,59.21936%);fill-opacity:1;" d="M 319.46875 258.871094 C 318.75 258.871094 318.074219 258.429688 317.804688 257.71875 C 308.117188 231.992188 291 209.425781 269.605469 194.175781 C 268.808594 193.605469 268.621094 192.492188 269.191406 191.691406 C 269.757812 190.890625 270.867188 190.703125 271.667969 191.273438 C 293.632812 206.933594 311.195312 230.082031 321.132812 256.460938 C 321.480469 257.382812 321.015625 258.410156 320.09375 258.757812 C 319.890625 258.832031 319.679688 258.871094 319.46875 258.871094 Z M 319.46875 258.871094 "/>
<path style=" stroke:none;fill-rule:nonzero;fill:rgb(32.159424%,27.839661%,59.21936%);fill-opacity:1;" d="M 343.234375 199.660156 C 342.992188 199.660156 342.75 199.609375 342.515625 199.507812 C 323.199219 190.9375 300.976562 190.753906 281.371094 190.589844 C 280.390625 190.582031 279.601562 189.777344 279.609375 188.796875 C 279.617188 187.8125 280.433594 187.046875 281.402344 187.03125 C 301.351562 187.195312 323.964844 187.382812 343.953125 196.25 C 344.851562 196.648438 345.257812 197.699219 344.859375 198.601562 C 344.566406 199.265625 343.917969 199.660156 343.234375 199.660156 Z M 343.234375 199.660156 "/>
<path style=" stroke:none;fill-rule:nonzero;fill:rgb(32.159424%,27.839661%,59.21936%);fill-opacity:1;" d="M 348.640625 220.238281 C 348.277344 220.238281 347.914062 220.128906 347.597656 219.898438 C 332.820312 209.1875 314.898438 203.246094 297.136719 203.167969 C 296.152344 203.164062 295.359375 202.363281 295.363281 201.378906 C 295.367188 200.398438 296.164062 199.605469 297.140625 199.605469 C 297.144531 199.605469 297.148438 199.605469 297.148438 199.605469 C 315.648438 199.6875 334.304688 205.871094 349.683594 217.015625 C 350.476562 217.589844 350.65625 218.703125 350.082031 219.5 C 349.734375 219.980469 349.191406 220.238281 348.640625 220.238281 Z M 348.640625 220.238281 "/>
<path style=" stroke:none;fill-rule:nonzero;fill:rgb(32.159424%,27.839661%,59.21936%);fill-opacity:1;" d="M 324.203125 228.242188 C 323.808594 228.242188 323.410156 228.109375 323.082031 227.839844 L 306.066406 213.898438 C 305.304688 213.277344 305.191406 212.15625 305.8125 211.394531 C 306.433594 210.632812 307.554688 210.519531 308.316406 211.144531 L 325.332031 225.082031 C 326.089844 225.707031 326.203125 226.828125 325.582031 227.589844 C 325.230469 228.019531 324.71875 228.242188 324.203125 228.242188 Z M 324.203125 228.242188 "/>
</g>
</svg>
