<?xml version="1.0" encoding="UTF-8"?>
<svg xmlns="http://www.w3.org/2000/svg" xmlns:xlink="http://www.w3.org/1999/xlink" width="375pt" height="374.999991pt" viewBox="0 0 375 374.999991" version="1.2">
<defs>
<clipPath id="clip1">
  <path d="M 35 85 L 370 85 L 370 304.597656 L 35 304.597656 Z M 35 85 "/>
</clipPath>
<clipPath id="clip2">
  <path d="M 4.332031 66.097656 L 350 66.097656 L 350 297 L 4.332031 297 Z M 4.332031 66.097656 "/>
</clipPath>
</defs>
<g id="surface1">
<g clip-path="url(#clip1)" clip-rule="nonzero">
<path style=" stroke:none;fill-rule:nonzero;fill:rgb(54.899597%,32.159424%,100%);fill-opacity:1;" d="M 319.273438 85.027344 C 298 160.125 272.53125 241.4375 210.875 284.222656 C 198.089844 293.089844 183.957031 300 168.96875 302.976562 C 139.066406 308.886719 107.351562 298.234375 83.871094 277.609375 C 60.390625 256.984375 44.832031 227.1875 37.46875 195.695312 C 35.511719 187.28125 34.261719 177.816406 38.707031 170.652344 C 43.644531 162.691406 53.519531 160.597656 62.367188 159.21875 C 164.410156 143.414062 266.917969 131.792969 369.890625 124.355469 "/>
</g>
<g clip-path="url(#clip2)" clip-rule="nonzero">
<path style=" stroke:none;fill-rule:nonzero;fill:rgb(0%,0%,0%);fill-opacity:1;" d="M 288.5625 69.914062 C 281.933594 93.316406 275.085938 116.675781 266.859375 139.5625 C 264.757812 145.292969 262.65625 151.007812 260.386719 156.675781 C 259.855469 157.992188 259.308594 159.355469 258.75 160.757812 C 258.496094 161.386719 258.234375 162.019531 257.972656 162.648438 C 257.8125 163.039062 257.644531 163.4375 257.476562 163.828125 L 257.152344 164.617188 C 257.425781 163.964844 256.773438 165.5 256.816406 165.394531 C 256.691406 165.710938 256.554688 166.023438 256.417969 166.339844 C 256.144531 166.960938 255.882812 167.59375 255.609375 168.214844 C 255 169.613281 254.378906 171.011719 253.757812 172.421875 C 248.917969 183.296875 243.503906 193.882812 237.515625 204.171875 C 234.597656 209.136719 231.539062 214.007812 228.292969 218.773438 C 226.644531 221.191406 224.953125 223.589844 223.207031 225.945312 C 222.390625 227.058594 221.558594 228.164062 220.71875 229.257812 C 220.203125 229.921875 221.160156 228.691406 220.644531 229.34375 L 220.046875 230.109375 C 219.550781 230.742188 219.046875 231.382812 218.53125 232.011719 C 211.410156 240.886719 203.542969 249.039062 194.925781 256.46875 C 193.875 257.414062 192.710938 258.339844 191.585938 259.253906 L 190.082031 260.472656 L 189.316406 261.074219 C 189.316406 261.074219 188.035156 262.074219 188.855469 261.441406 C 186.554688 263.199219 184.210938 264.902344 181.824219 266.53125 C 176.082031 270.519531 170.058594 274.023438 163.757812 277.050781 C 163.050781 277.386719 162.347656 277.714844 161.65625 278.027344 L 160.605469 278.5 C 158.871094 279.269531 160.992188 278.34375 159.984375 278.773438 C 158.367188 279.4375 156.726562 280.070312 155.089844 280.65625 C 151.894531 281.800781 148.648438 282.765625 145.351562 283.550781 C 143.703125 283.949219 142.042969 284.300781 140.371094 284.601562 C 139.675781 284.726562 138.972656 284.84375 138.269531 284.949219 L 137.21875 285.105469 C 138.195312 284.96875 136.527344 285.179688 136.503906 285.179688 C 133.421875 285.535156 130.332031 285.71875 127.226562 285.738281 C 124.132812 285.757812 121.042969 285.621094 117.960938 285.328125 C 116.1875 285.160156 115.105469 285.023438 114.085938 284.863281 C 112.507812 284.625 110.933594 284.339844 109.367188 284.023438 C 103.210938 282.75 97.222656 280.929688 91.402344 278.554688 L 90.40625 278.144531 C 91.140625 278.449219 90.089844 278.007812 89.921875 277.933594 L 87.707031 276.933594 C 86.226562 276.234375 84.765625 275.53125 83.324219 274.832031 C 80.523438 273.367188 77.773438 271.789062 75.078125 270.097656 C 72.382812 268.410156 69.765625 266.59375 67.230469 264.648438 L 66.988281 264.472656 L 65.9375 263.628906 C 65.296875 263.113281 64.667969 262.578125 64.035156 262.0625 C 62.796875 261.03125 61.578125 259.980469 60.378906 258.90625 C 55.808594 254.71875 51.558594 250.226562 47.636719 245.421875 C 47.132812 244.8125 46.585938 244.191406 46.132812 243.574219 C 45.914062 243.289062 45.691406 243.015625 45.484375 242.730469 C 44.863281 241.941406 46.195312 243.6875 45.167969 242.320312 C 44.136719 240.953125 43.253906 239.765625 42.332031 238.460938 C 40.523438 235.914062 38.800781 233.316406 37.164062 230.667969 C 30.585938 220.03125 25.355469 208.769531 21.464844 196.882812 C 19.390625 190.773438 17.679688 184.558594 16.328125 178.246094 C 16.171875 177.449219 16.015625 176.636719 15.867188 175.828125 C 15.804688 175.46875 15.75 175.101562 15.6875 174.777344 C 15.6875 174.660156 15.542969 173.722656 15.6875 174.542969 C 15.453125 172.910156 15.316406 171.265625 15.277344 169.613281 C 15.277344 168.800781 15.277344 168.003906 15.277344 167.191406 C 15.277344 166.835938 15.277344 166.488281 15.363281 166.140625 C 15.445312 165.792969 15.574219 164.792969 15.363281 165.710938 C 15.601562 164.15625 16.015625 162.652344 16.601562 161.199219 C 16.277344 161.945312 17.054688 160.367188 17.203125 160.144531 C 17.347656 159.925781 17.546875 159.566406 17.738281 159.292969 C 17.738281 159.292969 18.621094 158.085938 18.15625 158.664062 C 17.695312 159.242188 18.398438 158.398438 18.492188 158.292969 C 18.589844 158.191406 18.902344 157.84375 19.125 157.621094 C 19.34375 157.402344 19.671875 157.085938 19.953125 156.824219 C 20.039062 156.738281 21.003906 155.949219 20.480469 156.359375 C 19.953125 156.769531 21.078125 155.9375 21.046875 155.960938 L 21.8125 155.464844 C 22.339844 155.136719 22.875 154.832031 23.421875 154.550781 C 23.96875 154.265625 24.472656 154.003906 25.089844 153.75 C 24.15625 154.160156 25.089844 153.75 25.355469 153.667969 L 26.40625 153.265625 C 32.320312 151.246094 38.644531 150.5625 44.789062 149.617188 C 75.382812 144.925781 105.910156 140.632812 136.378906 136.734375 C 167.195312 132.777344 198 129.214844 228.796875 126.046875 C 259.59375 122.878906 290.523438 120.074219 321.59375 117.632812 C 329.136719 117.042969 336.6875 116.480469 344.246094 115.941406 C 346.976562 115.738281 349.632812 113.65625 349.496094 110.679688 C 349.371094 108 347.175781 105.210938 344.246094 105.421875 C 312.496094 107.707031 280.785156 110.390625 249.117188 113.46875 C 217.445312 116.546875 185.910156 120.039062 154.511719 123.945312 C 122.761719 127.828125 91.058594 132.121094 59.402344 136.816406 C 51.585938 137.988281 43.765625 139.175781 35.945312 140.382812 C 29.902344 141.320312 23.902344 142.488281 18.410156 145.316406 C 16.90625 146.070312 15.496094 146.972656 14.175781 148.019531 C 12.859375 149.066406 11.664062 150.234375 10.585938 151.53125 C 9.507812 152.824219 8.578125 154.214844 7.785156 155.699219 C 6.996094 157.1875 6.367188 158.738281 5.898438 160.355469 C 3.953125 167.171875 4.847656 174.492188 6.265625 181.308594 C 7.621094 187.816406 9.351562 194.226562 11.46875 200.527344 C 13.582031 206.832031 16.0625 212.988281 18.90625 219 C 21.75 225.007812 24.941406 230.828125 28.476562 236.457031 C 32.011719 242.085938 35.867188 247.488281 40.039062 252.660156 C 56.785156 273.074219 80.015625 288.558594 106.015625 293.984375 C 112.625 295.402344 119.308594 296.121094 126.066406 296.136719 C 132.824219 296.152344 139.511719 295.46875 146.128906 294.078125 C 160.183594 291.058594 173.441406 284.6875 185.429688 276.757812 C 205.578125 263.355469 222.355469 245.644531 236.121094 225.828125 C 250.082031 205.71875 260.828125 183.570312 269.949219 160.894531 C 279.265625 137.753906 286.757812 113.878906 293.753906 89.917969 C 295.429688 84.191406 297.074219 78.453125 298.691406 72.710938 C 298.78125 72.378906 298.835938 72.042969 298.855469 71.699219 C 298.878906 71.355469 298.867188 71.011719 298.824219 70.671875 C 298.777344 70.328125 298.703125 69.996094 298.59375 69.667969 C 298.484375 69.34375 298.34375 69.03125 298.175781 68.730469 C 298.003906 68.429688 297.808594 68.152344 297.585938 67.890625 C 297.359375 67.628906 297.113281 67.390625 296.84375 67.179688 C 296.574219 66.964844 296.285156 66.78125 295.980469 66.621094 C 295.671875 66.464844 295.355469 66.339844 295.023438 66.242188 C 294.691406 66.15625 294.355469 66.105469 294.011719 66.085938 C 293.671875 66.0625 293.328125 66.078125 292.988281 66.121094 C 292.648438 66.167969 292.316406 66.246094 291.988281 66.355469 C 291.664062 66.464844 291.351562 66.601562 291.054688 66.773438 C 290.753906 66.941406 290.476562 67.136719 290.214844 67.363281 C 289.953125 67.585938 289.71875 67.832031 289.503906 68.101562 C 289.289062 68.371094 289.105469 68.65625 288.945312 68.960938 C 288.789062 69.265625 288.660156 69.585938 288.5625 69.914062 Z M 288.5625 69.914062 "/>
</g>
<path style=" stroke:none;fill-rule:nonzero;fill:rgb(0%,0%,0%);fill-opacity:1;" d="M 106.761719 191.171875 C 106.761719 191.925781 106.6875 192.671875 106.542969 193.410156 C 106.394531 194.152344 106.179688 194.867188 105.890625 195.5625 C 105.601562 196.261719 105.25 196.921875 104.832031 197.546875 C 104.414062 198.175781 103.9375 198.753906 103.40625 199.289062 C 102.875 199.820312 102.292969 200.296875 101.667969 200.714844 C 101.042969 201.132812 100.382812 201.484375 99.6875 201.773438 C 98.992188 202.0625 98.273438 202.28125 97.535156 202.425781 C 96.800781 202.574219 96.054688 202.648438 95.300781 202.648438 C 94.546875 202.648438 93.804688 202.574219 93.066406 202.425781 C 92.328125 202.28125 91.609375 202.0625 90.914062 201.773438 C 90.21875 201.484375 89.558594 201.132812 88.933594 200.714844 C 88.308594 200.296875 87.726562 199.820312 87.195312 199.289062 C 86.664062 198.753906 86.1875 198.175781 85.769531 197.546875 C 85.351562 196.921875 85 196.261719 84.710938 195.5625 C 84.421875 194.867188 84.207031 194.152344 84.058594 193.410156 C 83.914062 192.671875 83.839844 191.925781 83.839844 191.171875 C 83.839844 190.417969 83.914062 189.671875 84.058594 188.933594 C 84.207031 188.195312 84.421875 187.476562 84.710938 186.78125 C 85 186.085938 85.351562 185.425781 85.769531 184.796875 C 86.1875 184.171875 86.664062 183.59375 87.195312 183.058594 C 87.726562 182.527344 88.308594 182.050781 88.933594 181.632812 C 89.558594 181.214844 90.21875 180.859375 90.914062 180.570312 C 91.609375 180.285156 92.328125 180.066406 93.066406 179.917969 C 93.804688 179.773438 94.546875 179.699219 95.300781 179.699219 C 96.054688 179.699219 96.800781 179.773438 97.535156 179.917969 C 98.273438 180.066406 98.992188 180.285156 99.6875 180.570312 C 100.382812 180.859375 101.042969 181.214844 101.667969 181.632812 C 102.292969 182.050781 102.875 182.527344 103.40625 183.058594 C 103.9375 183.59375 104.414062 184.171875 104.832031 184.796875 C 105.25 185.425781 105.601562 186.085938 105.890625 186.78125 C 106.179688 187.476562 106.394531 188.195312 106.542969 188.933594 C 106.6875 189.671875 106.761719 190.417969 106.761719 191.171875 Z M 106.761719 191.171875 "/>
</g>
</svg>
