<?xml version="1.0" encoding="UTF-8"?>
<svg xmlns="http://www.w3.org/2000/svg" xmlns:xlink="http://www.w3.org/1999/xlink" width="375pt" height="374.999991pt" viewBox="0 0 375 374.999991" version="1.2">
<g id="surface1">
<path style=" stroke:none;fill-rule:nonzero;fill:rgb(89.7995%,59.999084%,39.608765%);fill-opacity:1;" d="M 170.9375 221.921875 C 170.9375 223.117188 171.234375 224.253906 171.835938 225.292969 C 172.917969 227.203125 172.261719 229.605469 170.386719 230.726562 L 169.75 231.050781 C 169.320312 231.203125 168.882812 231.300781 168.445312 231.308594 C 168.40625 231.316406 168.359375 231.316406 168.316406 231.316406 C 166.910156 231.316406 165.542969 230.574219 164.800781 229.269531 C 163.523438 227.027344 162.851562 224.488281 162.851562 221.921875 C 162.851562 216.890625 165.375 212.449219 169.222656 209.761719 C 165.375 207.078125 162.851562 202.628906 162.851562 197.605469 C 162.851562 193.402344 164.613281 189.613281 167.429688 186.914062 C 164.613281 184.210938 162.851562 180.421875 162.851562 176.226562 C 162.851562 168.035156 169.53125 161.375 177.746094 161.375 C 179.976562 161.375 181.789062 163.183594 181.789062 165.40625 C 181.789062 167.632812 179.976562 169.4375 177.746094 169.4375 C 173.992188 169.4375 170.9375 172.480469 170.9375 176.226562 C 170.9375 179.4375 173.191406 182.128906 176.210938 182.832031 C 176.710938 182.777344 177.226562 182.75 177.746094 182.75 C 179.976562 182.75 181.789062 184.558594 181.789062 186.78125 C 181.789062 186.824219 181.773438 186.871094 181.773438 186.914062 C 181.773438 186.960938 181.789062 187 181.789062 187.042969 C 181.789062 189.265625 179.976562 191.074219 177.746094 191.074219 C 177.226562 191.074219 176.710938 191.046875 176.210938 190.992188 C 173.191406 191.695312 170.9375 194.386719 170.9375 197.605469 C 170.9375 201.34375 173.992188 204.386719 177.746094 204.386719 C 179.976562 204.386719 181.789062 206.191406 181.789062 208.417969 C 181.789062 208.894531 181.691406 209.335938 181.539062 209.753906 C 181.691406 210.183594 181.789062 210.625 181.789062 211.101562 C 181.789062 213.328125 179.976562 215.132812 177.746094 215.132812 C 173.992188 215.132812 170.9375 218.179688 170.9375 221.921875 Z M 170.9375 221.921875 "/>
<path style=" stroke:none;fill-rule:nonzero;fill:rgb(94.898987%,72.549438%,42.749023%);fill-opacity:1;" d="M 199.707031 208.441406 C 199.851562 204.804688 202.835938 201.957031 206.5 201.957031 C 208.730469 201.957031 210.542969 200.152344 210.542969 197.925781 C 210.542969 197.449219 210.445312 197 210.292969 196.570312 C 210.4375 196.152344 210.535156 195.710938 210.535156 195.242188 C 210.535156 193.007812 208.722656 191.210938 206.492188 191.210938 C 202.738281 191.210938 199.691406 188.160156 199.691406 184.421875 C 199.691406 181.203125 201.945312 178.511719 204.953125 177.816406 C 205.464844 177.863281 205.972656 177.890625 206.492188 177.890625 C 208.722656 177.890625 210.535156 176.089844 210.535156 173.859375 C 210.535156 173.816406 210.527344 173.777344 210.527344 173.730469 C 210.527344 173.6875 210.535156 173.648438 210.535156 173.601562 C 210.535156 171.375 208.722656 169.566406 206.492188 169.566406 C 205.972656 169.566406 205.464844 169.601562 204.953125 169.648438 C 201.945312 168.945312 199.691406 166.253906 199.691406 163.042969 C 199.691406 159.296875 202.738281 156.253906 206.492188 156.253906 C 208.722656 156.253906 210.535156 154.449219 210.535156 152.222656 C 210.535156 150 208.722656 148.191406 206.492188 148.191406 C 198.285156 148.191406 191.605469 154.851562 191.605469 163.042969 C 191.605469 167.238281 193.367188 171.027344 196.179688 173.730469 C 193.367188 176.4375 191.605469 180.21875 191.605469 184.421875 C 191.605469 189.445312 194.121094 193.878906 197.960938 196.570312 C 194.28125 199.136719 191.816406 203.304688 191.628906 208.125 C 191.539062 210.351562 193.277344 212.222656 195.503906 212.3125 C 195.558594 212.3125 195.617188 212.320312 195.671875 212.320312 C 197.832031 212.320312 199.617188 210.617188 199.707031 208.441406 Z M 199.691406 252.015625 C 199.691406 251.636719 199.722656 251.265625 199.789062 250.902344 C 200.167969 248.710938 198.6875 246.628906 196.488281 246.25 C 194.289062 245.878906 192.195312 247.339844 191.816406 249.539062 C 191.675781 250.347656 191.605469 251.183594 191.605469 252.015625 C 191.605469 260.207031 198.285156 266.867188 206.5 266.867188 C 208.730469 266.867188 210.542969 265.0625 210.542969 262.835938 C 210.542969 260.609375 208.730469 258.804688 206.5 258.804688 C 202.746094 258.804688 199.691406 255.757812 199.691406 252.015625 Z M 254.496094 239.226562 C 258.378906 253.75 264.371094 267.433594 272.164062 279.882812 C 218.570312 297.097656 168.585938 279.792969 131.664062 257.804688 C 120.148438 250.933594 109.90625 243.597656 101.246094 236.75 L 101.238281 236.75 C 81.238281 220.929688 69.507812 207.523438 69.507812 207.523438 C 69.507812 207.523438 83.601562 191.417969 107.164062 173.746094 L 107.171875 173.746094 L 107.171875 173.738281 C 143.136719 146.75 201.21875 116.027344 265.050781 133.097656 C 255 153.289062 249.339844 176.035156 249.339844 200.128906 C 249.339844 205.296875 249.589844 210.402344 250.121094 215.449219 L 250.113281 215.449219 C 250.929688 223.601562 252.417969 231.527344 254.496094 239.226562 Z M 171.835938 225.292969 C 171.234375 224.253906 170.9375 223.117188 170.9375 221.921875 C 170.9375 218.179688 173.992188 215.132812 177.746094 215.132812 C 179.976562 215.132812 181.789062 213.328125 181.789062 211.101562 C 181.789062 210.625 181.691406 210.183594 181.539062 209.753906 C 181.691406 209.335938 181.789062 208.894531 181.789062 208.417969 C 181.789062 206.191406 179.976562 204.386719 177.746094 204.386719 C 173.992188 204.386719 170.9375 201.34375 170.9375 197.605469 C 170.9375 194.386719 173.191406 191.695312 176.210938 190.992188 C 176.710938 191.046875 177.226562 191.074219 177.746094 191.074219 C 179.976562 191.074219 181.789062 189.265625 181.789062 187.042969 C 181.789062 187 181.773438 186.960938 181.773438 186.914062 C 181.773438 186.871094 181.789062 186.824219 181.789062 186.78125 C 181.789062 184.558594 179.976562 182.75 177.746094 182.75 C 177.226562 182.75 176.710938 182.777344 176.210938 182.832031 C 173.191406 182.128906 170.9375 179.4375 170.9375 176.226562 C 170.9375 172.480469 173.992188 169.4375 177.746094 169.4375 C 179.976562 169.4375 181.789062 167.632812 181.789062 165.40625 C 181.789062 163.183594 179.976562 161.375 177.746094 161.375 C 169.53125 161.375 162.851562 168.035156 162.851562 176.226562 C 162.851562 180.421875 164.613281 184.210938 167.429688 186.914062 C 164.613281 189.613281 162.851562 193.402344 162.851562 197.605469 C 162.851562 202.628906 165.375 207.078125 169.222656 209.761719 C 165.375 212.449219 162.851562 216.890625 162.851562 221.921875 C 162.851562 224.488281 163.523438 227.027344 164.800781 229.269531 C 165.542969 230.574219 166.910156 231.316406 168.316406 231.316406 C 168.359375 231.316406 168.40625 231.316406 168.445312 231.308594 C 168.558594 231.421875 168.679688 231.542969 168.808594 231.671875 C 165.058594 234.476562 162.851562 238.855469 162.851562 243.554688 C 162.851562 251.75 169.53125 258.410156 177.746094 258.410156 C 179.976562 258.410156 181.789062 256.601562 181.789062 254.378906 C 181.789062 252.152344 179.976562 250.347656 177.746094 250.347656 C 173.992188 250.347656 170.9375 247.296875 170.9375 243.554688 C 170.9375 241.265625 172.09375 239.136719 174.027344 237.871094 C 175.894531 236.644531 176.410156 234.148438 175.183594 232.285156 C 174.121094 230.679688 172.117188 230.082031 170.386719 230.726562 C 172.261719 229.605469 172.917969 227.203125 171.835938 225.292969 Z M 155.289062 198.046875 C 155.445312 197.628906 155.542969 197.183594 155.542969 196.710938 C 155.542969 194.484375 153.730469 192.675781 151.5 192.675781 C 147.746094 192.675781 144.691406 189.628906 144.691406 185.886719 C 144.691406 182.148438 147.746094 179.097656 151.5 179.097656 C 153.730469 179.097656 155.542969 177.300781 155.542969 175.066406 C 155.542969 172.839844 153.730469 171.035156 151.5 171.035156 C 143.285156 171.035156 136.605469 177.703125 136.605469 185.886719 C 136.605469 190.917969 139.128906 195.363281 142.976562 198.046875 C 139.128906 200.734375 136.605469 205.183594 136.605469 210.207031 C 136.605469 214.472656 138.433594 218.320312 141.328125 221.027344 C 138.433594 223.738281 136.605469 227.574219 136.605469 231.847656 C 136.605469 240.03125 143.285156 246.691406 151.5 246.691406 C 153.730469 246.691406 155.542969 244.886719 155.542969 242.660156 C 155.542969 240.4375 153.730469 238.628906 151.5 238.628906 C 147.746094 238.628906 144.691406 235.589844 144.691406 231.847656 C 144.691406 228.097656 147.746094 225.058594 151.5 225.058594 C 153.730469 225.058594 155.542969 223.253906 155.542969 221.027344 C 155.542969 218.800781 153.730469 216.996094 151.5 216.996094 C 147.746094 216.996094 144.691406 213.949219 144.691406 210.207031 C 144.691406 206.464844 147.746094 203.417969 151.5 203.417969 C 153.730469 203.417969 155.542969 201.613281 155.542969 199.386719 C 155.542969 198.917969 155.445312 198.46875 155.289062 198.046875 Z M 127.652344 209.761719 C 127.796875 209.34375 127.894531 208.902344 127.894531 208.425781 C 127.894531 206.199219 126.085938 204.394531 123.851562 204.394531 C 120.101562 204.394531 117.050781 201.351562 117.050781 197.605469 C 117.050781 193.863281 120.101562 190.824219 123.851562 190.824219 C 126.085938 190.824219 127.894531 189.015625 127.894531 186.792969 C 127.894531 184.566406 126.085938 182.757812 123.851562 182.757812 C 115.644531 182.757812 108.964844 189.417969 108.964844 197.605469 C 108.964844 202.636719 111.488281 207.078125 115.332031 209.761719 C 111.488281 212.457031 108.964844 216.898438 108.964844 221.929688 C 108.964844 230.113281 115.644531 236.773438 123.851562 236.773438 C 126.085938 236.773438 127.894531 234.96875 127.894531 232.742188 C 127.894531 230.519531 126.085938 228.710938 123.851562 228.710938 C 120.101562 228.710938 117.050781 225.671875 117.050781 221.929688 C 117.050781 218.179688 120.101562 215.140625 123.851562 215.140625 C 126.085938 215.140625 127.894531 213.335938 127.894531 211.109375 C 127.894531 210.632812 127.796875 210.191406 127.652344 209.761719 Z M 127.652344 209.761719 "/>
<path style=" stroke:none;fill-rule:nonzero;fill:rgb(90.979004%,90.589905%,90.19928%);fill-opacity:1;" d="M 254.496094 239.226562 C 252.417969 231.527344 250.929688 223.601562 250.113281 215.449219 L 250.121094 215.449219 C 249.589844 210.402344 249.339844 205.296875 249.339844 200.128906 C 249.339844 176.035156 255 153.289062 265.050781 133.097656 L 265.058594 133.097656 C 266.382812 133.453125 267.726562 133.832031 269.058594 134.226562 C 270.402344 134.621094 271.742188 135.042969 273.09375 135.476562 C 304.363281 145.726562 336.804688 167.769531 368.597656 207.523438 C 336.496094 247.652344 303.707031 269.753906 272.164062 279.882812 C 264.371094 267.433594 258.378906 253.75 254.496094 239.226562 Z M 311.824219 181.25 C 313.410156 179.679688 313.410156 177.125 311.824219 175.550781 C 310.25 173.980469 307.695312 173.980469 306.109375 175.550781 L 297.757812 183.886719 L 289.394531 175.550781 C 287.820312 173.980469 285.253906 173.980469 283.679688 175.550781 C 282.101562 177.125 282.101562 179.679688 283.679688 181.25 L 292.039062 189.589844 L 283.679688 197.917969 C 282.101562 199.5 282.101562 202.046875 283.679688 203.621094 C 284.464844 204.410156 285.5 204.804688 286.53125 204.804688 C 287.566406 204.804688 288.601562 204.410156 289.394531 203.621094 L 297.757812 195.289062 L 306.109375 203.621094 C 306.902344 204.410156 307.9375 204.804688 308.972656 204.804688 C 310.007812 204.804688 311.042969 204.410156 311.824219 203.621094 C 313.410156 202.046875 313.410156 199.5 311.824219 197.917969 L 303.472656 189.589844 Z M 311.824219 181.25 "/>
<path style=" stroke:none;fill-rule:nonzero;fill:rgb(89.7995%,59.999084%,39.608765%);fill-opacity:1;" d="M 175.183594 232.285156 C 176.410156 234.148438 175.894531 236.644531 174.027344 237.871094 C 172.09375 239.136719 170.9375 241.265625 170.9375 243.554688 C 170.9375 247.296875 173.992188 250.347656 177.746094 250.347656 C 179.976562 250.347656 181.789062 252.152344 181.789062 254.378906 C 181.789062 256.601562 179.976562 258.410156 177.746094 258.410156 C 169.53125 258.410156 162.851562 251.75 162.851562 243.554688 C 162.851562 238.855469 165.058594 234.476562 168.808594 231.671875 C 169.0625 231.484375 169.320312 231.308594 169.578125 231.132812 C 169.636719 231.097656 169.691406 231.074219 169.75 231.050781 L 170.386719 230.726562 C 172.117188 230.082031 174.121094 230.679688 175.183594 232.285156 Z M 175.183594 232.285156 "/>
<path style=" stroke:none;fill-rule:nonzero;fill:rgb(89.7995%,59.999084%,39.608765%);fill-opacity:1;" d="M 206.5 201.957031 C 202.835938 201.957031 199.851562 204.804688 199.707031 208.441406 C 199.617188 210.617188 197.832031 212.320312 195.671875 212.320312 C 195.617188 212.320312 195.558594 212.3125 195.503906 212.3125 C 193.277344 212.222656 191.539062 210.351562 191.628906 208.125 C 191.816406 203.304688 194.28125 199.136719 197.960938 196.570312 C 194.121094 193.878906 191.605469 189.445312 191.605469 184.421875 C 191.605469 180.21875 193.367188 176.4375 196.179688 173.730469 C 193.367188 171.027344 191.605469 167.238281 191.605469 163.042969 C 191.605469 154.851562 198.285156 148.191406 206.492188 148.191406 C 208.722656 148.191406 210.535156 150 210.535156 152.222656 C 210.535156 154.449219 208.722656 156.253906 206.492188 156.253906 C 202.738281 156.253906 199.691406 159.296875 199.691406 163.042969 C 199.691406 166.253906 201.945312 168.945312 204.953125 169.648438 C 205.464844 169.601562 205.972656 169.566406 206.492188 169.566406 C 208.722656 169.566406 210.535156 171.375 210.535156 173.601562 C 210.535156 173.648438 210.527344 173.6875 210.527344 173.730469 C 210.527344 173.777344 210.535156 173.816406 210.535156 173.859375 C 210.535156 176.089844 208.722656 177.890625 206.492188 177.890625 C 205.972656 177.890625 205.464844 177.863281 204.953125 177.816406 C 201.945312 178.511719 199.691406 181.203125 199.691406 184.421875 C 199.691406 188.160156 202.738281 191.210938 206.492188 191.210938 C 208.722656 191.210938 210.535156 193.007812 210.535156 195.242188 C 210.535156 195.710938 210.4375 196.152344 210.292969 196.570312 C 210.445312 197 210.542969 197.449219 210.542969 197.925781 C 210.542969 200.152344 208.730469 201.957031 206.5 201.957031 Z M 206.5 201.957031 "/>
<path style=" stroke:none;fill-rule:nonzero;fill:rgb(89.7995%,59.999084%,39.608765%);fill-opacity:1;" d="M 199.789062 250.902344 C 199.722656 251.265625 199.691406 251.636719 199.691406 252.015625 C 199.691406 255.757812 202.746094 258.804688 206.5 258.804688 C 208.730469 258.804688 210.542969 260.609375 210.542969 262.835938 C 210.542969 265.0625 208.730469 266.867188 206.5 266.867188 C 198.285156 266.867188 191.605469 260.207031 191.605469 252.015625 C 191.605469 251.183594 191.675781 250.347656 191.816406 249.539062 C 192.195312 247.339844 194.289062 245.878906 196.488281 246.25 C 198.6875 246.628906 200.167969 248.710938 199.789062 250.902344 Z M 199.789062 250.902344 "/>
<path style=" stroke:none;fill-rule:nonzero;fill:rgb(50.19989%,58.039856%,62.748718%);fill-opacity:1;" d="M 101.246094 236.75 C 109.90625 243.597656 120.148438 250.933594 131.664062 257.804688 C 116.890625 276.101562 84.507812 279.882812 84.507812 279.882812 C 84.136719 256.007812 94.6875 243.128906 101.238281 236.75 Z M 101.246094 236.75 "/>
<path style=" stroke:none;fill-rule:nonzero;fill:rgb(90.979004%,90.589905%,90.19928%);fill-opacity:1;" d="M 68.964844 208.046875 C 75.96875 270.085938 11.152344 265.699219 11.152344 265.699219 C 11.152344 265.699219 6.753906 201.0625 68.964844 208.046875 Z M 68.964844 208.046875 "/>
<path style=" stroke:none;fill-rule:nonzero;fill:rgb(90.979004%,90.589905%,90.19928%);fill-opacity:1;" d="M 11.152344 149.34375 C 11.152344 149.34375 75.96875 144.949219 68.964844 206.988281 C 6.753906 213.972656 11.152344 149.335938 11.152344 149.34375 Z M 11.152344 149.34375 "/>
<path style=" stroke:none;fill-rule:nonzero;fill:rgb(50.19989%,58.039856%,62.748718%);fill-opacity:1;" d="M 273.09375 135.476562 C 271.742188 135.042969 270.402344 134.621094 269.058594 134.226562 C 267.726562 133.824219 266.382812 133.445312 265.050781 133.089844 L 265.050781 133.097656 C 201.21875 116.027344 143.136719 146.75 107.171875 173.738281 C 112.824219 147.449219 128.257812 106.28125 169.886719 92.96875 C 218.167969 77.519531 257.480469 116.558594 273.09375 135.476562 Z M 273.09375 135.476562 "/>
<path style=" stroke:none;fill-rule:nonzero;fill:rgb(50.19989%,58.039856%,62.748718%);fill-opacity:1;" d="M 311.824219 175.550781 C 313.410156 177.125 313.410156 179.679688 311.824219 181.25 L 303.472656 189.589844 L 311.824219 197.917969 C 313.410156 199.5 313.410156 202.046875 311.824219 203.621094 C 311.042969 204.410156 310.007812 204.804688 308.972656 204.804688 C 307.9375 204.804688 306.902344 204.410156 306.109375 203.621094 L 297.757812 195.289062 L 289.394531 203.621094 C 288.601562 204.410156 287.566406 204.804688 286.53125 204.804688 C 285.5 204.804688 284.464844 204.410156 283.679688 203.621094 C 282.101562 202.046875 282.101562 199.5 283.679688 197.917969 L 292.039062 189.589844 L 283.679688 181.25 C 282.101562 179.679688 282.101562 177.125 283.679688 175.550781 C 285.253906 173.980469 287.820312 173.980469 289.394531 175.550781 L 297.757812 183.886719 L 306.109375 175.550781 C 307.695312 173.980469 310.25 173.980469 311.824219 175.550781 Z M 311.824219 175.550781 "/>
<path style=" stroke:none;fill-rule:nonzero;fill:rgb(89.7995%,59.999084%,39.608765%);fill-opacity:1;" d="M 155.542969 196.710938 C 155.542969 197.183594 155.445312 197.628906 155.289062 198.046875 C 155.445312 198.46875 155.542969 198.917969 155.542969 199.386719 C 155.542969 201.613281 153.730469 203.417969 151.5 203.417969 C 147.746094 203.417969 144.691406 206.464844 144.691406 210.207031 C 144.691406 213.949219 147.746094 216.996094 151.5 216.996094 C 153.730469 216.996094 155.542969 218.800781 155.542969 221.027344 C 155.542969 223.253906 153.730469 225.058594 151.5 225.058594 C 147.746094 225.058594 144.691406 228.097656 144.691406 231.847656 C 144.691406 235.589844 147.746094 238.628906 151.5 238.628906 C 153.730469 238.628906 155.542969 240.4375 155.542969 242.660156 C 155.542969 244.886719 153.730469 246.691406 151.5 246.691406 C 143.285156 246.691406 136.605469 240.03125 136.605469 231.847656 C 136.605469 227.574219 138.433594 223.738281 141.328125 221.027344 C 138.433594 218.320312 136.605469 214.472656 136.605469 210.207031 C 136.605469 205.183594 139.128906 200.734375 142.976562 198.046875 C 139.128906 195.363281 136.605469 190.917969 136.605469 185.886719 C 136.605469 177.703125 143.285156 171.035156 151.5 171.035156 C 153.730469 171.035156 155.542969 172.839844 155.542969 175.066406 C 155.542969 177.300781 153.730469 179.097656 151.5 179.097656 C 147.746094 179.097656 144.691406 182.148438 144.691406 185.886719 C 144.691406 189.628906 147.746094 192.675781 151.5 192.675781 C 153.730469 192.675781 155.542969 194.484375 155.542969 196.710938 Z M 155.542969 196.710938 "/>
<path style=" stroke:none;fill-rule:nonzero;fill:rgb(89.7995%,59.999084%,39.608765%);fill-opacity:1;" d="M 127.894531 208.425781 C 127.894531 208.902344 127.796875 209.34375 127.652344 209.761719 C 127.796875 210.191406 127.894531 210.632812 127.894531 211.109375 C 127.894531 213.335938 126.085938 215.140625 123.851562 215.140625 C 120.101562 215.140625 117.050781 218.179688 117.050781 221.929688 C 117.050781 225.671875 120.101562 228.710938 123.851562 228.710938 C 126.085938 228.710938 127.894531 230.519531 127.894531 232.742188 C 127.894531 234.96875 126.085938 236.777344 123.851562 236.777344 C 115.644531 236.777344 108.964844 230.113281 108.964844 221.929688 C 108.964844 216.898438 111.488281 212.457031 115.332031 209.761719 C 111.488281 207.078125 108.964844 202.636719 108.964844 197.605469 C 108.964844 189.417969 115.644531 182.757812 123.851562 182.757812 C 126.085938 182.757812 127.894531 184.566406 127.894531 186.792969 C 127.894531 189.015625 126.085938 190.824219 123.851562 190.824219 C 120.101562 190.824219 117.050781 193.863281 117.050781 197.605469 C 117.050781 201.355469 120.101562 204.394531 123.851562 204.394531 C 126.085938 204.394531 127.894531 206.199219 127.894531 208.425781 Z M 127.894531 208.425781 "/>
<path style=" stroke:none;fill-rule:nonzero;fill:rgb(50.19989%,58.039856%,62.748718%);fill-opacity:1;" d="M 168.316406 227.277344 C 172.269531 223.277344 182.3125 214.011719 195.664062 208.28125 C 210.890625 201.742188 230.410156 199.789062 250.113281 215.449219 C 250.929688 223.601562 252.417969 231.519531 254.496094 239.226562 C 233.394531 258.859375 212.132812 257.191406 195.800781 250.21875 C 185.347656 245.757812 176.894531 239.113281 171.800781 234.5 L 166.472656 229.226562 Z M 168.316406 227.277344 "/>
</g>
</svg>
