<?xml version="1.0" encoding="UTF-8"?>
<svg xmlns="http://www.w3.org/2000/svg" xmlns:xlink="http://www.w3.org/1999/xlink" width="375pt" height="374.999991pt" viewBox="0 0 375 374.999991" version="1.2">
<defs>
<clipPath id="clip1">
  <path d="M 92.21875 20.109375 L 282.660156 20.109375 L 282.660156 177 L 92.21875 177 Z M 92.21875 20.109375 "/>
</clipPath>
<clipPath id="clip2">
  <path d="M 150 153 L 263 153 L 263 229.550781 L 150 229.550781 Z M 150 153 "/>
</clipPath>
<clipPath id="clip3">
  <path d="M 166 195 L 173 195 L 173 229.550781 L 166 229.550781 Z M 166 195 "/>
</clipPath>
<clipPath id="clip4">
  <path d="M 59 141.109375 L 310 141.109375 L 310 221 L 59 221 Z M 59 141.109375 "/>
</clipPath>
<clipPath id="clip5">
  <path d="M 294 188 L 366.714844 188 L 366.714844 310 L 294 310 Z M 294 188 "/>
</clipPath>
</defs>
<g id="surface1">
<g clip-path="url(#clip1)" clip-rule="nonzero">
<path style=" stroke:none;fill-rule:nonzero;fill:rgb(6.269836%,5.879211%,5.099487%);fill-opacity:1;" d="M 187.523438 20.109375 C 151.492188 20.109375 119.421875 44.660156 109.929688 78 C 109.503906 77.960938 109.078125 77.925781 108.652344 77.925781 C 99.863281 77.925781 92.21875 85.074219 92.21875 93.914062 C 92.21875 102.515625 99.476562 109.496094 107.988281 109.851562 C 113.925781 147.570312 148.382812 176.542969 187.523438 176.542969 C 226.660156 176.542969 261.136719 147.570312 267.058594 109.851562 C 275.570312 109.496094 282.824219 102.515625 282.824219 93.914062 C 282.824219 85.074219 275.183594 77.925781 266.390625 77.925781 C 265.964844 77.925781 265.539062 77.960938 265.117188 78 C 255.621094 44.660156 223.550781 20.109375 187.523438 20.109375 Z M 187.523438 26.421875 C 203.492188 26.421875 219.480469 31.808594 232.492188 41.597656 C 245.390625 51.289062 254.828125 64.832031 259.0625 79.726562 L 260.488281 84.683594 L 265.613281 84.277344 C 265.890625 84.257812 266.1875 84.238281 266.390625 84.238281 C 271.886719 84.238281 276.53125 88.660156 276.53125 93.914062 C 276.53125 98.910156 272.09375 103.332031 266.800781 103.535156 L 261.65625 103.757812 L 260.839844 108.867188 C 258.214844 125.617188 249.292969 141.109375 235.710938 152.492188 C 222.089844 163.933594 204.972656 170.230469 187.523438 170.230469 C 170.074219 170.230469 152.953125 163.933594 139.335938 152.492188 C 125.753906 141.109375 116.832031 125.617188 114.1875 108.867188 L 113.390625 103.757812 L 108.246094 103.535156 C 102.972656 103.332031 98.492188 98.910156 98.492188 93.894531 C 98.492188 88.660156 103.15625 84.238281 108.652344 84.238281 C 108.855469 84.238281 109.152344 84.257812 109.429688 84.277344 L 114.554688 84.683594 L 115.980469 79.726562 C 120.21875 64.832031 129.65625 51.289062 142.535156 41.597656 C 155.5625 31.808594 171.535156 26.421875 187.523438 26.421875 "/>
</g>
<path style=" stroke:none;fill-rule:nonzero;fill:rgb(6.269836%,5.879211%,5.099487%);fill-opacity:1;" d="M 169.941406 71.199219 C 169.664062 71.199219 169.386719 71.164062 169.109375 71.089844 C 167.445312 70.644531 166.445312 68.917969 166.90625 67.226562 C 168.925781 59.6875 171.273438 52.125 173.867188 44.773438 C 174.457031 43.136719 176.253906 42.28125 177.882812 42.859375 C 179.527344 43.433594 180.378906 45.253906 179.789062 46.890625 C 177.253906 54.09375 174.957031 61.488281 172.976562 68.878906 C 172.589844 70.273438 171.332031 71.199219 169.941406 71.199219 "/>
<path style=" stroke:none;fill-rule:nonzero;fill:rgb(6.269836%,5.879211%,5.099487%);fill-opacity:1;" d="M 186.691406 68.675781 C 184.949219 68.675781 183.542969 67.261719 183.542969 65.515625 L 183.542969 47.855469 C 183.542969 46.109375 184.949219 44.699219 186.691406 44.699219 C 188.410156 44.699219 189.816406 46.109375 189.816406 47.855469 L 189.816406 65.515625 C 189.816406 67.261719 188.410156 68.675781 186.691406 68.675781 "/>
<path style=" stroke:none;fill-rule:nonzero;fill:rgb(6.269836%,5.879211%,5.099487%);fill-opacity:1;" d="M 205.511719 68.265625 C 204.289062 68.265625 203.105469 67.523438 202.605469 66.316406 L 195.332031 48.542969 C 194.664062 46.925781 195.425781 45.085938 197.035156 44.417969 C 198.644531 43.769531 200.476562 44.53125 201.144531 46.144531 L 208.433594 63.902344 C 209.082031 65.515625 208.324219 67.355469 206.710938 68.023438 C 206.324219 68.191406 205.917969 68.265625 205.511719 68.265625 "/>
<path style=" stroke:none;fill-rule:nonzero;fill:rgb(6.269836%,5.879211%,5.099487%);fill-opacity:1;" d="M 174.050781 90.089844 C 177.179688 90.089844 179.714844 92.613281 179.714844 95.753906 C 179.714844 98.890625 177.179688 101.4375 174.050781 101.4375 C 170.921875 101.4375 168.40625 98.890625 168.40625 95.753906 C 168.40625 92.613281 170.921875 90.089844 174.050781 90.089844 "/>
<path style=" stroke:none;fill-rule:nonzero;fill:rgb(6.269836%,5.879211%,5.099487%);fill-opacity:1;" d="M 201.179688 90.089844 C 204.308594 90.089844 206.84375 92.613281 206.84375 95.753906 C 206.84375 98.890625 204.308594 101.4375 201.179688 101.4375 C 198.050781 101.4375 195.515625 98.890625 195.515625 95.753906 C 195.515625 92.613281 198.050781 90.089844 201.179688 90.089844 "/>
<path style=" stroke:none;fill-rule:nonzero;fill:rgb(6.269836%,5.879211%,5.099487%);fill-opacity:1;" d="M 144.386719 131.28125 C 142.8125 131.28125 141.464844 130.113281 141.257812 128.515625 C 141.054688 126.789062 142.296875 125.210938 144.015625 125.003906 C 146.589844 124.691406 148.902344 123.390625 150.511719 121.328125 C 152.121094 119.265625 152.824219 116.722656 152.511719 114.121094 C 152.308594 112.394531 153.546875 110.816406 155.269531 110.613281 C 156.988281 110.40625 158.5625 111.632812 158.765625 113.359375 C 159.265625 117.632812 158.097656 121.847656 155.453125 125.226562 C 152.808594 128.609375 149.011719 130.746094 144.757812 131.265625 C 144.628906 131.28125 144.496094 131.28125 144.386719 131.28125 "/>
<path style=" stroke:none;fill-rule:nonzero;fill:rgb(6.269836%,5.879211%,5.099487%);fill-opacity:1;" d="M 230.660156 131.28125 C 230.546875 131.28125 230.417969 131.28125 230.289062 131.265625 C 226.03125 130.761719 222.238281 128.609375 219.59375 125.226562 C 216.945312 121.847656 215.78125 117.632812 216.28125 113.359375 C 216.484375 111.632812 218.054688 110.40625 219.777344 110.613281 C 221.5 110.816406 222.71875 112.394531 222.535156 114.121094 C 222.21875 116.722656 222.921875 119.265625 224.535156 121.328125 C 226.144531 123.390625 228.457031 124.691406 231.027344 125.003906 C 232.75 125.210938 233.988281 126.789062 233.785156 128.515625 C 233.582031 130.113281 232.230469 131.28125 230.660156 131.28125 "/>
<path style=" stroke:none;fill-rule:nonzero;fill:rgb(6.269836%,5.879211%,5.099487%);fill-opacity:1;" d="M 187.523438 139.324219 C 174.605469 139.324219 162.023438 134.773438 152.085938 126.546875 C 150.734375 125.433594 150.550781 123.445312 151.660156 122.109375 C 152.75 120.753906 154.730469 120.566406 156.082031 121.679688 C 164.890625 129 176.066406 133.011719 187.523438 133.011719 C 199.03125 133.011719 210.230469 128.960938 219.074219 121.589844 C 220.40625 120.472656 222.386719 120.660156 223.496094 121.996094 C 224.605469 123.351562 224.421875 125.339844 223.089844 126.433594 C 213.132812 134.738281 200.496094 139.324219 187.523438 139.324219 "/>
<g clip-path="url(#clip2)" clip-rule="nonzero">
<path style=" stroke:none;fill-rule:nonzero;fill:rgb(6.269836%,5.879211%,5.099487%);fill-opacity:1;" d="M 219.316406 229.308594 C 217.574219 229.308594 216.167969 227.898438 216.167969 226.152344 L 216.167969 204.664062 C 216.167969 198.738281 219 193.09375 223.738281 189.546875 C 232.710938 182.859375 248.589844 170.933594 253.917969 166.367188 C 255.566406 164.953125 256.34375 163.136719 256.011719 161.519531 C 255.882812 160.925781 255.492188 159.882812 254.253906 159.496094 C 253.4375 159.253906 250.402344 158.808594 245.390625 163.746094 C 244.148438 164.953125 242.855469 166.164062 241.539062 167.371094 C 232.621094 175.597656 220.054688 179.125 207.0625 177.082031 C 206.527344 176.988281 205.972656 176.953125 205.417969 176.953125 L 177.605469 176.953125 C 166.390625 176.953125 157.285156 186.089844 157.285156 197.328125 L 157.285156 226.152344 C 157.285156 227.898438 155.878906 229.308594 154.140625 229.308594 C 152.417969 229.308594 150.992188 227.898438 150.992188 226.152344 L 150.992188 197.328125 C 150.992188 182.617188 162.929688 170.636719 177.605469 170.636719 L 205.417969 170.636719 C 206.289062 170.636719 207.175781 170.710938 208.046875 170.84375 C 219.128906 172.589844 229.789062 169.636719 237.285156 162.726562 C 238.558594 161.554688 239.800781 160.386719 240.984375 159.234375 C 248.015625 152.34375 253.457031 152.660156 256.085938 153.457031 C 259.210938 154.40625 261.46875 156.949219 262.15625 160.21875 C 262.96875 164.136719 261.414062 168.222656 257.992188 171.15625 C 252.808594 175.617188 238.542969 186.367188 227.476562 194.617188 C 224.328125 196.972656 222.441406 200.726562 222.441406 204.664062 L 222.441406 226.152344 C 222.441406 227.898438 221.054688 229.308594 219.316406 229.308594 "/>
</g>
<path style=" stroke:none;fill-rule:nonzero;fill:rgb(6.269836%,5.879211%,5.099487%);fill-opacity:1;" d="M 187.503906 186.128906 C 181.5625 186.128906 175.773438 184.046875 171.199219 180.257812 C 169.867188 179.164062 169.683594 177.15625 170.792969 175.820312 C 171.886719 174.484375 173.867188 174.296875 175.214844 175.394531 C 178.660156 178.253906 183.027344 179.832031 187.503906 179.832031 C 192 179.832031 196.367188 178.253906 199.828125 175.375 C 201.160156 174.261719 203.140625 174.445312 204.25 175.78125 C 205.363281 177.121094 205.175781 179.105469 203.84375 180.222656 C 199.253906 184.046875 193.464844 186.128906 187.503906 186.128906 "/>
<g clip-path="url(#clip3)" clip-rule="nonzero">
<path style=" stroke:none;fill-rule:nonzero;fill:rgb(6.269836%,5.879211%,5.099487%);fill-opacity:1;" d="M 169.722656 229.050781 C 167.980469 229.050781 166.574219 227.636719 166.574219 225.890625 L 166.574219 198.441406 C 166.574219 196.695312 167.980469 195.285156 169.722656 195.285156 C 171.441406 195.285156 172.867188 196.695312 172.867188 198.441406 L 172.867188 225.890625 C 172.867188 227.636719 171.441406 229.050781 169.722656 229.050781 "/>
</g>
<path style=" stroke:none;fill-rule:nonzero;fill:rgb(57.649231%,72.158813%,78.819275%);fill-opacity:1;" d="M 315.757812 304.523438 C 279.523438 299.183594 284.769531 249.777344 218.46875 258.785156 C 175.738281 251.324219 125.636719 227.042969 122.183594 246.9375 C 118.730469 266.828125 145.53125 322.816406 188.253906 330.277344 C 230.980469 337.738281 312.300781 324.417969 315.757812 304.523438 "/>
<g clip-path="url(#clip4)" clip-rule="nonzero">
<path style=" stroke:none;fill-rule:nonzero;fill:rgb(57.649231%,72.158813%,78.819275%);fill-opacity:1;" d="M 309.226562 168.289062 C 309.226562 198.496094 282.960938 220.675781 223.039062 220.675781 C 163.117188 220.675781 59.4375 201.8125 59.4375 180.90625 C 59.4375 159.996094 84.035156 141.136719 192.53125 141.136719 C 252.710938 143.921875 272.613281 162.933594 309.226562 168.289062 "/>
</g>
<path style=" stroke:none;fill-rule:nonzero;fill:rgb(32.939148%,75.289917%,80.389404%);fill-opacity:1;" d="M 111.683594 162.933594 C 53.238281 162.933594 28.925781 199.261719 8.332031 232.339844 C 8.332031 232.753906 8.382812 233.152344 8.394531 233.5625 C 12.507812 233.8125 16.667969 233.769531 20.332031 233.726562 C 27.378906 233.648438 32.625 233.566406 32.359375 235.535156 C 31.988281 238.257812 21.210938 244.058594 10.113281 245.4375 C 22.113281 289.347656 94.148438 311.683594 162.402344 311.683594 C 235.625 311.683594 260.792969 271.152344 305.027344 260.0625 L 305.027344 232.339844 C 245.539062 213.792969 208.929688 162.933594 111.683594 162.933594 "/>
<path style=" stroke:none;fill-rule:nonzero;fill:rgb(82.749939%,82.348633%,82.348633%);fill-opacity:1;" d="M 305.027344 232.339844 C 299.085938 230.484375 293.367188 228.308594 287.792969 225.894531 C 287.796875 225.890625 287.800781 225.886719 287.804688 225.882812 C 293.375 228.296875 299.082031 230.484375 305.027344 232.339844 "/>
<path style=" stroke:none;fill-rule:nonzero;fill:rgb(47.44873%,59.21936%,64.709473%);fill-opacity:1;" d="M 162.289062 311.683594 C 162.273438 311.683594 162.261719 311.683594 162.25 311.683594 C 162.261719 311.683594 162.273438 311.683594 162.289062 311.683594 M 162.171875 311.683594 C 162.15625 311.683594 162.140625 311.683594 162.128906 311.683594 C 162.140625 311.683594 162.15625 311.683594 162.171875 311.683594 M 162.035156 311.679688 C 162.027344 311.679688 162.023438 311.679688 162.015625 311.679688 C 162.019531 311.679688 162.03125 311.679688 162.035156 311.679688 M 161.894531 311.679688 C 161.886719 311.679688 161.878906 311.679688 161.875 311.679688 C 161.878906 311.679688 161.890625 311.679688 161.894531 311.679688 M 161.777344 311.679688 C 161.765625 311.679688 161.753906 311.679688 161.742188 311.679688 C 161.753906 311.679688 161.765625 311.679688 161.777344 311.679688 M 161.652344 311.679688 C 161.644531 311.679688 161.632812 311.679688 161.625 311.679688 C 161.632812 311.679688 161.644531 311.679688 161.652344 311.679688 M 161.382812 311.679688 C 161.378906 311.679688 161.375 311.679688 161.367188 311.679688 C 161.371094 311.679688 161.378906 311.679688 161.382812 311.679688 M 161.257812 311.679688 C 161.25 311.679688 161.25 311.679688 161.242188 311.679688 C 161.25 311.679688 161.253906 311.679688 161.257812 311.679688 "/>
<path style=" stroke:none;fill-rule:nonzero;fill:rgb(27.059937%,61.959839%,66.268921%);fill-opacity:1;" d="M 162.402344 311.683594 C 162.367188 311.683594 162.328125 311.683594 162.289062 311.683594 C 162.273438 311.683594 162.261719 311.683594 162.25 311.683594 C 162.222656 311.683594 162.195312 311.683594 162.171875 311.683594 C 162.15625 311.683594 162.140625 311.683594 162.128906 311.683594 C 162.097656 311.683594 162.066406 311.683594 162.035156 311.679688 C 162.03125 311.679688 162.019531 311.679688 162.015625 311.679688 C 161.976562 311.679688 161.933594 311.679688 161.894531 311.679688 C 161.890625 311.679688 161.878906 311.679688 161.875 311.679688 C 161.839844 311.679688 161.808594 311.679688 161.777344 311.679688 C 161.765625 311.679688 161.753906 311.679688 161.742188 311.679688 C 161.710938 311.679688 161.683594 311.679688 161.652344 311.679688 C 161.644531 311.679688 161.632812 311.679688 161.625 311.679688 C 161.542969 311.679688 161.460938 311.679688 161.382812 311.679688 C 161.378906 311.679688 161.371094 311.679688 161.367188 311.679688 C 161.332031 311.679688 161.292969 311.679688 161.257812 311.679688 C 161.253906 311.679688 161.25 311.679688 161.242188 311.679688 C 117.871094 311.519531 73.128906 302.34375 43.332031 284.371094 C 44.898438 283.710938 46.464844 283.023438 48.023438 282.308594 C 62.648438 275.589844 96.28125 263.902344 99.609375 226.925781 C 111.132812 260.050781 78.125 277.601562 79.375 280.335938 C 97.359375 287.449219 117.996094 292.515625 141.464844 292.515625 C 165.464844 292.515625 192.421875 287.21875 222.53125 273.382812 C 250.148438 260.695312 272.824219 243.652344 287.792969 225.894531 C 293.367188 228.308594 299.085938 230.484375 305.027344 232.339844 L 305.027344 260.0625 C 260.792969 271.152344 235.625 311.683594 162.402344 311.683594 "/>
<path style=" stroke:none;fill-rule:nonzero;fill:rgb(100%,100%,100%);fill-opacity:1;" d="M 76.800781 208.691406 C 76.769531 218.347656 68.933594 226.148438 59.308594 226.113281 C 49.679688 226.074219 41.90625 218.21875 41.9375 208.566406 C 41.972656 198.910156 49.808594 191.113281 59.4375 191.148438 C 69.0625 191.183594 76.839844 199.039062 76.800781 208.691406 "/>
<path style=" stroke:none;fill-rule:nonzero;fill:rgb(20.779419%,12.159729%,9.01947%);fill-opacity:1;" d="M 63.882812 204.898438 C 59.847656 204.882812 56.578125 203.359375 56.585938 201.484375 C 56.59375 199.613281 59.871094 198.105469 63.910156 198.121094 C 64.210938 198.125 64.5 198.148438 64.792969 198.167969 C 63.175781 197.320312 61.363281 196.792969 59.414062 196.789062 C 52.890625 196.761719 47.585938 202.046875 47.558594 208.585938 C 47.535156 215.125 52.804688 220.449219 59.328125 220.46875 C 65.847656 220.496094 71.15625 215.214844 71.183594 208.671875 C 71.191406 206.785156 70.714844 205.023438 69.9375 203.4375 C 68.617188 204.328125 66.398438 204.910156 63.882812 204.898438 "/>
<g clip-path="url(#clip5)" clip-rule="nonzero">
<path style=" stroke:none;fill-rule:nonzero;fill:rgb(57.649231%,72.158813%,78.819275%);fill-opacity:1;" d="M 366.023438 249.257812 C 365.574219 218.800781 341.171875 171.1875 331.773438 195.054688 C 319.84375 222.605469 275.820312 238.558594 302.714844 249.257812 C 275.820312 259.960938 319.847656 275.914062 331.773438 303.460938 C 341.171875 327.328125 365.574219 279.714844 366.027344 249.257812 L 366.023438 249.257812 "/>
</g>
<path style=" stroke:none;fill-rule:nonzero;fill:rgb(60.389709%,86.669922%,82.749939%);fill-opacity:1;" d="M 130.335938 180.90625 C 130.335938 185.585938 126.550781 189.378906 121.886719 189.378906 C 117.21875 189.378906 113.433594 185.585938 113.433594 180.90625 C 113.433594 176.230469 117.21875 172.433594 121.886719 172.433594 C 126.550781 172.433594 130.335938 176.230469 130.335938 180.90625 "/>
<path style=" stroke:none;fill-rule:nonzero;fill:rgb(60.389709%,86.669922%,82.749939%);fill-opacity:1;" d="M 168.207031 182.671875 C 168.207031 187.355469 164.425781 191.148438 159.753906 191.148438 C 155.089844 191.148438 151.304688 187.355469 151.304688 182.671875 C 151.304688 177.996094 155.089844 174.203125 159.753906 174.203125 C 164.425781 174.203125 168.207031 177.996094 168.207031 182.671875 "/>
<path style=" stroke:none;fill-rule:nonzero;fill:rgb(60.389709%,86.669922%,82.749939%);fill-opacity:1;" d="M 201.234375 194.863281 C 201.234375 199.542969 197.445312 203.335938 192.78125 203.335938 C 188.113281 203.335938 184.332031 199.542969 184.332031 194.863281 C 184.332031 190.183594 188.113281 186.386719 192.78125 186.386719 C 197.445312 186.386719 201.234375 190.183594 201.234375 194.863281 "/>
<path style=" stroke:none;fill-rule:nonzero;fill:rgb(60.389709%,86.669922%,82.749939%);fill-opacity:1;" d="M 235.722656 243.136719 C 235.722656 247.816406 231.941406 251.613281 227.269531 251.613281 C 222.605469 251.613281 218.820312 247.816406 218.820312 243.136719 C 218.820312 238.460938 222.605469 234.664062 227.269531 234.664062 C 231.941406 234.664062 235.722656 238.460938 235.722656 243.136719 "/>
<path style=" stroke:none;fill-rule:nonzero;fill:rgb(60.389709%,86.669922%,82.749939%);fill-opacity:1;" d="M 201.234375 230.800781 C 201.234375 235.484375 197.445312 239.277344 192.78125 239.277344 C 188.113281 239.277344 184.332031 235.484375 184.332031 230.800781 C 184.332031 226.121094 188.113281 222.328125 192.78125 222.328125 C 197.445312 222.328125 201.234375 226.121094 201.234375 230.800781 "/>
<path style=" stroke:none;fill-rule:nonzero;fill:rgb(60.389709%,86.669922%,82.749939%);fill-opacity:1;" d="M 173.585938 211.8125 C 173.585938 216.488281 169.800781 220.285156 165.136719 220.285156 C 160.464844 220.285156 156.683594 216.488281 156.683594 211.8125 C 156.683594 207.128906 160.464844 203.335938 165.136719 203.335938 C 169.800781 203.335938 173.585938 207.128906 173.585938 211.8125 "/>
<path style=" stroke:none;fill-rule:nonzero;fill:rgb(60.389709%,86.669922%,82.749939%);fill-opacity:1;" d="M 138.789062 208.628906 C 138.789062 213.308594 135.003906 217.101562 130.335938 217.101562 C 125.667969 217.101562 121.886719 213.308594 121.886719 208.628906 C 121.886719 203.949219 125.667969 200.15625 130.335938 200.15625 C 135.003906 200.15625 138.789062 203.949219 138.789062 208.628906 "/>
<path style=" stroke:none;fill-rule:nonzero;fill:rgb(60.389709%,86.669922%,82.749939%);fill-opacity:1;" d="M 235.722656 211.8125 C 235.722656 216.488281 231.941406 220.285156 227.269531 220.285156 C 222.605469 220.285156 218.820312 216.488281 218.820312 211.8125 C 218.820312 207.128906 222.605469 203.335938 227.269531 203.335938 C 231.941406 203.335938 235.722656 207.128906 235.722656 211.8125 "/>
<path style=" stroke:none;fill-rule:nonzero;fill:rgb(60.389709%,86.669922%,82.749939%);fill-opacity:1;" d="M 270.214844 228.757812 C 270.214844 233.4375 266.429688 237.230469 261.761719 237.230469 C 257.09375 237.230469 253.3125 233.4375 253.3125 228.757812 C 253.3125 224.078125 257.09375 220.285156 261.761719 220.285156 C 266.429688 220.285156 270.214844 224.078125 270.214844 228.757812 "/>
</g>
</svg>
