<?xml version="1.0" encoding="UTF-8"?>
<svg xmlns="http://www.w3.org/2000/svg" xmlns:xlink="http://www.w3.org/1999/xlink" width="375pt" height="374.999991pt" viewBox="0 0 375 374.999991" version="1.2">
<g id="surface1">
<path style=" stroke:none;fill-rule:nonzero;fill:rgb(95.689392%,43.919373%,69.40918%);fill-opacity:1;" d="M 85.957031 346.59375 C 105.996094 308.582031 123.8125 274.175781 131.59375 242.195312 C 132.378906 239.144531 130.675781 236.09375 127.417969 234.539062 C 93.117188 218.707031 53.699219 193.109375 14.832031 161.710938 C 6.699219 155.207031 11.410156 147.054688 20.941406 149.28125 C 66.8125 160.351562 104.679688 163.667969 137.578125 159.835938 C 140.707031 159.484375 142.992188 156.953125 143.316406 153.566406 C 146.515625 117.925781 153.617188 75.855469 173.703125 24.960938 C 178.003906 14.117188 188.089844 15.300781 188.320312 25.816406 C 189.996094 75.40625 200.996094 108.601562 215.878906 137.5625 C 217.292969 140.300781 220.394531 141.582031 223.585938 140.800781 C 257.308594 132.554688 296.425781 125.90625 352.578125 131.835938 C 364.636719 133.128906 368.550781 143.832031 358.488281 146.792969 C 311.636719 161.332031 284.503906 181.308594 262.179688 204.808594 C 260.0625 207.03125 259.804688 210.46875 261.476562 213.363281 C 279.175781 243.957031 296.109375 280.691406 307.382812 334.421875 C 309.835938 345.855469 300.554688 354.832031 294.515625 346.914062 C 265.894531 309.707031 239.511719 286.734375 211.089844 271.859375 C 208.394531 270.417969 204.984375 271.21875 202.578125 273.78125 C 177.496094 300.945312 143.574219 328.699219 101.855469 354.832031 C 93.273438 360.398438 81.925781 354.597656 85.957031 346.59375 "/>
<path style=" stroke:none;fill-rule:nonzero;fill:rgb(98.039246%,75.689697%,70.199585%);fill-opacity:1;" d="M 333.289062 145.910156 C 329.992188 146.1875 326.777344 144.613281 326.011719 142.332031 C 325.25 140.050781 327.265625 137.875 330.601562 137.527344 C 333.933594 137.179688 337.304688 138.851562 338.027344 141.199219 C 338.75 143.546875 336.582031 145.628906 333.289062 145.910156 "/>
<path style=" stroke:none;fill-rule:nonzero;fill:rgb(98.039246%,75.689697%,70.199585%);fill-opacity:1;" d="M 302.710938 153.351562 C 299.742188 153.914062 296.667969 152.582031 295.757812 150.320312 C 294.855469 148.066406 296.484375 145.695312 299.488281 145.074219 C 302.488281 144.453125 305.695312 145.863281 306.5625 148.179688 C 307.433594 150.5 305.667969 152.789062 302.710938 153.351562 "/>
<path style=" stroke:none;fill-rule:nonzero;fill:rgb(98.039246%,75.689697%,70.199585%);fill-opacity:1;" d="M 275.628906 162.5 C 273 163.3125 270.089844 162.214844 269.066406 160.007812 C 268.046875 157.808594 269.320312 155.292969 271.980469 154.433594 C 274.640625 153.566406 277.644531 154.726562 278.636719 156.976562 C 279.628906 159.234375 278.257812 161.6875 275.628906 162.5 "/>
<path style=" stroke:none;fill-rule:nonzero;fill:rgb(98.039246%,75.689697%,70.199585%);fill-opacity:1;" d="M 250.214844 174.316406 C 247.851562 175.347656 245.058594 174.441406 243.9375 172.269531 C 242.8125 170.097656 243.804688 167.449219 246.1875 166.382812 C 248.570312 165.316406 251.425781 166.261719 252.527344 168.46875 C 253.628906 170.675781 252.578125 173.285156 250.214844 174.316406 "/>
<path style=" stroke:none;fill-rule:nonzero;fill:rgb(98.039246%,75.689697%,70.199585%);fill-opacity:1;" d="M 181.546875 49.792969 C 180.886719 53.011719 178.570312 55.382812 176.308594 55.113281 C 174.042969 54.84375 172.675781 51.960938 173.328125 48.640625 C 173.976562 45.320312 176.40625 42.902344 178.675781 43.273438 C 180.949219 43.644531 182.203125 46.574219 181.546875 49.792969 "/>
<path style=" stroke:none;fill-rule:nonzero;fill:rgb(98.039246%,75.689697%,70.199585%);fill-opacity:1;" d="M 179.5 81.871094 C 179.128906 84.921875 176.972656 87.34375 174.621094 87.292969 C 172.269531 87.25 170.59375 84.691406 170.945312 81.554688 C 171.300781 78.414062 173.5625 75.953125 175.929688 76.082031 C 178.300781 76.210938 179.871094 78.816406 179.5 81.871094 "/>
<path style=" stroke:none;fill-rule:nonzero;fill:rgb(98.039246%,75.689697%,70.199585%);fill-opacity:1;" d="M 179.550781 111.453125 C 179.460938 114.300781 177.507812 116.691406 175.128906 116.824219 C 172.753906 116.957031 170.835938 114.730469 170.898438 111.820312 C 170.964844 108.914062 173.003906 106.480469 175.40625 106.410156 C 177.804688 106.34375 179.636719 108.613281 179.550781 111.453125 "/>
<path style=" stroke:none;fill-rule:nonzero;fill:rgb(98.039246%,75.689697%,70.199585%);fill-opacity:1;" d="M 182.171875 140.4375 C 182.335938 143.097656 180.554688 145.464844 178.152344 145.742188 C 175.75 146.015625 173.617188 144.066406 173.433594 141.359375 C 173.25 138.652344 175.097656 136.261719 177.515625 136.03125 C 179.9375 135.796875 182.003906 137.777344 182.171875 140.4375 "/>
<path style=" stroke:none;fill-rule:nonzero;fill:rgb(98.039246%,75.689697%,70.199585%);fill-opacity:1;" d="M 181.546875 49.792969 C 180.886719 53.011719 178.570312 55.382812 176.308594 55.113281 C 174.042969 54.84375 172.675781 51.960938 173.328125 48.640625 C 173.976562 45.320312 176.40625 42.902344 178.675781 43.273438 C 180.949219 43.644531 182.203125 46.574219 181.546875 49.792969 "/>
<path style=" stroke:none;fill-rule:nonzero;fill:rgb(98.039246%,75.689697%,70.199585%);fill-opacity:1;" d="M 179.5 81.871094 C 179.128906 84.921875 176.972656 87.34375 174.621094 87.292969 C 172.269531 87.25 170.59375 84.691406 170.945312 81.554688 C 171.300781 78.414062 173.5625 75.953125 175.929688 76.082031 C 178.300781 76.210938 179.871094 78.816406 179.5 81.871094 "/>
<path style=" stroke:none;fill-rule:nonzero;fill:rgb(98.039246%,75.689697%,70.199585%);fill-opacity:1;" d="M 179.550781 111.453125 C 179.460938 114.300781 177.507812 116.691406 175.128906 116.824219 C 172.753906 116.957031 170.835938 114.730469 170.898438 111.820312 C 170.964844 108.914062 173.003906 106.480469 175.40625 106.410156 C 177.804688 106.34375 179.636719 108.613281 179.550781 111.453125 "/>
<path style=" stroke:none;fill-rule:nonzero;fill:rgb(98.039246%,75.689697%,70.199585%);fill-opacity:1;" d="M 182.171875 140.4375 C 182.335938 143.097656 180.554688 145.464844 178.152344 145.742188 C 175.75 146.015625 173.617188 144.066406 173.433594 141.359375 C 173.25 138.652344 175.097656 136.261719 177.515625 136.03125 C 179.9375 135.796875 182.003906 137.777344 182.171875 140.4375 "/>
<path style=" stroke:none;fill-rule:nonzero;fill:rgb(98.039246%,75.689697%,70.199585%);fill-opacity:1;" d="M 46.304688 165.890625 C 49.085938 167.40625 50.527344 170.230469 49.480469 172.207031 C 48.4375 174.179688 45.238281 174.535156 42.371094 172.976562 C 39.503906 171.421875 38.128906 168.585938 39.257812 166.65625 C 40.386719 164.71875 43.519531 164.378906 46.304688 165.890625 "/>
<path style=" stroke:none;fill-rule:nonzero;fill:rgb(98.039246%,75.689697%,70.199585%);fill-opacity:1;" d="M 75.988281 177.597656 C 78.792969 178.9375 80.371094 181.757812 79.5 183.933594 C 78.628906 186.109375 75.574219 186.792969 72.691406 185.429688 C 69.808594 184.066406 68.265625 181.199219 69.214844 179.050781 C 70.167969 176.898438 73.191406 176.257812 75.988281 177.597656 "/>
<path style=" stroke:none;fill-rule:nonzero;fill:rgb(98.039246%,75.689697%,70.199585%);fill-opacity:1;" d="M 104.546875 187.527344 C 107.265625 188.59375 108.910156 191.277344 108.210938 193.558594 C 107.507812 195.847656 104.667969 196.871094 101.875 195.792969 C 99.078125 194.71875 97.449219 191.964844 98.21875 189.6875 C 98.992188 187.410156 101.820312 186.464844 104.546875 187.527344 "/>
<path style=" stroke:none;fill-rule:nonzero;fill:rgb(98.039246%,75.689697%,70.199585%);fill-opacity:1;" d="M 133.507812 195.113281 C 136.136719 195.871094 137.820312 198.378906 137.265625 200.757812 C 136.714844 203.136719 134.089844 204.484375 131.40625 203.71875 C 128.722656 202.957031 127.039062 200.375 127.648438 198.003906 C 128.261719 195.625 130.886719 194.351562 133.507812 195.113281 "/>
<path style=" stroke:none;fill-rule:nonzero;fill:rgb(98.039246%,75.689697%,70.199585%);fill-opacity:1;" d="M 46.304688 165.890625 C 49.085938 167.40625 50.527344 170.230469 49.480469 172.207031 C 48.4375 174.179688 45.238281 174.535156 42.371094 172.976562 C 39.503906 171.421875 38.128906 168.585938 39.257812 166.65625 C 40.386719 164.71875 43.519531 164.378906 46.304688 165.890625 "/>
<path style=" stroke:none;fill-rule:nonzero;fill:rgb(98.039246%,75.689697%,70.199585%);fill-opacity:1;" d="M 75.988281 177.597656 C 78.792969 178.9375 80.371094 181.757812 79.5 183.933594 C 78.628906 186.109375 75.574219 186.792969 72.691406 185.429688 C 69.808594 184.066406 68.265625 181.199219 69.214844 179.050781 C 70.167969 176.898438 73.191406 176.257812 75.988281 177.597656 "/>
<path style=" stroke:none;fill-rule:nonzero;fill:rgb(98.039246%,75.689697%,70.199585%);fill-opacity:1;" d="M 104.546875 187.527344 C 107.265625 188.59375 108.910156 191.277344 108.210938 193.558594 C 107.507812 195.847656 104.667969 196.871094 101.875 195.792969 C 99.078125 194.71875 97.449219 191.964844 98.21875 189.6875 C 98.992188 187.410156 101.820312 186.464844 104.546875 187.527344 "/>
<path style=" stroke:none;fill-rule:nonzero;fill:rgb(98.039246%,75.689697%,70.199585%);fill-opacity:1;" d="M 133.507812 195.113281 C 136.136719 195.871094 137.820312 198.378906 137.265625 200.757812 C 136.714844 203.136719 134.089844 204.484375 131.40625 203.71875 C 128.722656 202.957031 127.039062 200.375 127.648438 198.003906 C 128.261719 195.625 130.886719 194.351562 133.507812 195.113281 "/>
<path style=" stroke:none;fill-rule:nonzero;fill:rgb(98.039246%,75.689697%,70.199585%);fill-opacity:1;" d="M 105.558594 332.449219 C 107.898438 330.363281 111.59375 329.839844 113.792969 331.269531 C 115.996094 332.699219 115.925781 335.578125 113.660156 337.710938 C 111.394531 339.84375 107.734375 340.386719 105.460938 338.914062 C 103.183594 337.4375 103.222656 334.539062 105.558594 332.449219 "/>
<path style=" stroke:none;fill-rule:nonzero;fill:rgb(98.039246%,75.689697%,70.199585%);fill-opacity:1;" d="M 125.632812 308.902344 C 127.859375 306.734375 131.441406 306.113281 133.648438 307.496094 C 135.859375 308.878906 135.90625 311.796875 133.734375 314.015625 C 131.566406 316.238281 127.972656 316.875 125.703125 315.4375 C 123.433594 314 123.40625 311.0625 125.632812 308.902344 "/>
<path style=" stroke:none;fill-rule:nonzero;fill:rgb(98.039246%,75.689697%,70.199585%);fill-opacity:1;" d="M 144.421875 285.671875 C 146.378906 283.480469 149.714844 282.757812 151.917969 284.050781 C 154.117188 285.339844 154.375 288.203125 152.457031 290.457031 C 150.539062 292.707031 147.152344 293.441406 144.914062 292.089844 C 142.675781 290.742188 142.46875 287.863281 144.421875 285.671875 "/>
<path style=" stroke:none;fill-rule:nonzero;fill:rgb(98.039246%,75.689697%,70.199585%);fill-opacity:1;" d="M 161.390625 261.125 C 163.019531 258.902344 166.097656 258.078125 168.3125 259.273438 C 170.53125 260.464844 171.058594 263.269531 169.453125 265.542969 C 167.851562 267.816406 164.703125 268.652344 162.460938 267.40625 C 160.226562 266.160156 159.765625 263.34375 161.390625 261.125 "/>
<path style=" stroke:none;fill-rule:nonzero;fill:rgb(98.039246%,75.689697%,70.199585%);fill-opacity:1;" d="M 288.070312 325.398438 C 286.953125 322.234375 287.730469 318.507812 289.808594 316.988281 C 291.882812 315.46875 294.550781 316.707031 295.75 319.832031 C 296.949219 322.960938 296.164062 326.820312 294 328.378906 C 291.835938 329.9375 289.183594 328.5625 288.070312 325.398438 "/>
<path style=" stroke:none;fill-rule:nonzero;fill:rgb(98.039246%,75.689697%,70.199585%);fill-opacity:1;" d="M 273.09375 297.140625 C 271.828125 294.300781 272.421875 290.792969 274.429688 289.222656 C 276.4375 287.652344 279.167969 288.609375 280.515625 291.4375 C 281.859375 294.261719 281.25 297.898438 279.160156 299.480469 C 277.074219 301.0625 274.359375 299.980469 273.09375 297.140625 "/>
<path style=" stroke:none;fill-rule:nonzero;fill:rgb(98.039246%,75.689697%,70.199585%);fill-opacity:1;" d="M 257.703125 272.113281 C 256.300781 269.640625 256.707031 266.378906 258.621094 264.757812 C 260.535156 263.136719 263.289062 263.773438 264.757812 266.246094 C 266.226562 268.710938 265.804688 272.082031 263.820312 273.699219 C 261.839844 275.320312 259.109375 274.578125 257.703125 272.113281 "/>
<path style=" stroke:none;fill-rule:nonzero;fill:rgb(98.039246%,75.689697%,70.199585%);fill-opacity:1;" d="M 240.367188 249.230469 C 238.832031 247.089844 239.070312 244.023438 240.914062 242.332031 C 242.753906 240.640625 245.542969 240.96875 247.128906 243.117188 C 248.714844 245.261719 248.464844 248.410156 246.574219 250.09375 C 244.679688 251.777344 241.90625 251.371094 240.367188 249.230469 "/>
<path style=" stroke:none;fill-rule:nonzero;fill:rgb(6.269836%,5.879211%,5.099487%);fill-opacity:1;" d="M 234.757812 190.832031 C 234.757812 196.800781 229.910156 201.636719 223.929688 201.636719 C 217.953125 201.636719 213.105469 196.800781 213.105469 190.832031 C 213.105469 184.867188 217.953125 180.03125 223.929688 180.03125 C 229.910156 180.03125 234.757812 184.867188 234.757812 190.832031 "/>
<path style=" stroke:none;fill-rule:nonzero;fill:rgb(100%,100%,100%);fill-opacity:1;" d="M 231.871094 188.957031 C 231.871094 190.492188 230.621094 191.738281 229.082031 191.738281 C 227.542969 191.738281 226.296875 190.492188 226.296875 188.957031 C 226.296875 187.417969 227.542969 186.175781 229.082031 186.175781 C 230.621094 186.175781 231.871094 187.417969 231.871094 188.957031 "/>
<path style=" stroke:none;fill-rule:nonzero;fill:rgb(6.269836%,5.879211%,5.099487%);fill-opacity:1;" d="M 167.960938 201.109375 C 167.960938 207.078125 163.113281 211.914062 157.132812 211.914062 C 151.15625 211.914062 146.308594 207.078125 146.308594 201.109375 C 146.308594 195.144531 151.15625 190.304688 157.132812 190.304688 C 163.113281 190.304688 167.960938 195.144531 167.960938 201.109375 "/>
<path style=" stroke:none;fill-rule:nonzero;fill:rgb(100%,100%,100%);fill-opacity:1;" d="M 165.070312 199.234375 C 165.070312 200.769531 163.824219 202.011719 162.285156 202.011719 C 160.746094 202.011719 159.5 200.769531 159.5 199.234375 C 159.5 197.695312 160.746094 196.453125 162.285156 196.453125 C 163.824219 196.453125 165.070312 197.695312 165.070312 199.234375 "/>
<path style=" stroke:none;fill-rule:nonzero;fill:rgb(6.269836%,5.879211%,5.099487%);fill-opacity:1;" d="M 195.980469 230.164062 C 181.800781 230.164062 177.535156 220.253906 177.351562 219.820312 C 177.070312 219.128906 177.398438 218.339844 178.085938 218.058594 C 178.773438 217.773438 179.5625 218.101562 179.851562 218.785156 C 180.011719 219.171875 183.910156 228.019531 197.210938 227.441406 C 208.839844 226.945312 213.648438 217.550781 213.847656 217.152344 C 214.179688 216.484375 214.984375 216.210938 215.65625 216.542969 C 216.324219 216.871094 216.601562 217.675781 216.269531 218.34375 C 216.042969 218.800781 210.597656 229.570312 197.324219 230.136719 C 196.871094 230.15625 196.421875 230.164062 195.980469 230.164062 "/>
</g>
</svg>
