<?xml version="1.0" encoding="UTF-8"?>
<svg xmlns="http://www.w3.org/2000/svg" xmlns:xlink="http://www.w3.org/1999/xlink" width="375pt" height="374.999991pt" viewBox="0 0 375 374.999991" version="1.2">
<defs>
<clipPath id="clip1">
  <path d="M 154.355469 249 L 223.773438 249 L 223.773438 281.445312 L 154.355469 281.445312 Z M 154.355469 249 "/>
</clipPath>
<clipPath id="clip2">
  <path d="M 155 249 L 223.773438 249 L 223.773438 281.445312 L 155 281.445312 Z M 155 249 "/>
</clipPath>
<clipPath id="clip3">
  <path d="M 153 93.3125 L 198 93.3125 L 198 118 L 153 118 Z M 153 93.3125 "/>
</clipPath>
<clipPath id="clip4">
  <path d="M 322 166 L 370.914062 166 L 370.914062 191 L 322 191 Z M 322 166 "/>
</clipPath>
<clipPath id="clip5">
  <path d="M 322 179 L 370.914062 179 L 370.914062 191 L 322 191 Z M 322 179 "/>
</clipPath>
<clipPath id="clip6">
  <path d="M 361.34375 178.308594 L 370.914062 178.308594 L 370.914062 186.496094 L 361.34375 186.496094 Z M 361.34375 178.308594 "/>
</clipPath>
<clipPath id="clip7">
  <path d="M 366.390625 180.195312 L 370.914062 180.195312 L 370.914062 182 L 366.390625 182 Z M 366.390625 180.195312 "/>
</clipPath>
</defs>
<g id="surface1">
<path style=" stroke:none;fill-rule:evenodd;fill:rgb(10.198975%,19.60907%,23.139954%);fill-opacity:1;" d="M 247.882812 133.578125 C 190.542969 152.878906 202.5 218.1875 258.234375 225.007812 C 143.335938 259.542969 103.625 134.851562 247.882812 133.578125 "/>
<path style=" stroke:none;fill-rule:evenodd;fill:rgb(10.5896%,20.388794%,23.919678%);fill-opacity:1;" d="M 215.351562 158.507812 C 201.351562 183.957031 216.84375 217.273438 253.484375 224.261719 C 252.210938 225.347656 250.867188 226.382812 249.457031 227.355469 C 227.257812 232.648438 208.179688 231.867188 193.101562 227.261719 C 179.75 216.660156 174.066406 196.597656 177.8125 180.726562 C 181.367188 165.699219 193.375 154.429688 215.351562 158.507812 "/>
<path style=" stroke:none;fill-rule:evenodd;fill:rgb(14.118958%,12.939453%,11.369324%);fill-opacity:1;" d="M 164.597656 178.667969 C 164.214844 181.421875 163.523438 183.90625 164.765625 185.023438 C 165.613281 185.789062 168.328125 186.265625 168.855469 184.371094 C 169.023438 183.753906 169.027344 182.910156 168.8125 181.847656 C 167.59375 175.441406 175.582031 173.039062 178.234375 179.136719 C 181.683594 187.078125 178.183594 201.710938 171.519531 208.515625 C 166.847656 202.972656 155.578125 184.398438 164.597656 178.667969 "/>
<path style=" stroke:none;fill-rule:evenodd;fill:rgb(18.429565%,35.289001%,41.178894%);fill-opacity:1;" d="M 232.300781 225.027344 C 213.953125 212.726562 208.828125 204.953125 202.601562 182.59375 C 203.578125 204.339844 212.539062 214.632812 226.496094 229.703125 L 232.300781 225.027344 "/>
<path style=" stroke:none;fill-rule:evenodd;fill:rgb(97.648621%,49.409485%,49.409485%);fill-opacity:1;" d="M 164.117188 197.332031 C 173.40625 190.503906 176.71875 191.449219 182.503906 197.347656 C 185.40625 200.308594 186.507812 202.464844 189.902344 202.730469 C 192.492188 202.933594 193.195312 205.808594 190.582031 206.183594 C 187.308594 206.65625 184.996094 205.734375 181.382812 205.449219 C 177.378906 205.136719 175.382812 206.566406 169.402344 211.957031 L 164.117188 197.332031 "/>
<path style=" stroke:none;fill-rule:evenodd;fill:rgb(18.429565%,35.289001%,41.178894%);fill-opacity:1;" d="M 227.210938 235.804688 C 212.097656 225.667969 207.875 219.261719 202.742188 200.839844 C 203.546875 218.753906 210.929688 227.234375 222.425781 239.65625 L 227.210938 235.804688 "/>
<path style=" stroke:none;fill-rule:evenodd;fill:rgb(83.139038%,38.819885%,38.819885%);fill-opacity:1;" d="M 191.5 205.886719 C 191.257812 206.027344 190.953125 206.128906 190.582031 206.183594 C 187.308594 206.65625 184.996094 205.734375 181.382812 205.449219 C 177.378906 205.136719 175.382812 206.566406 169.402344 211.957031 L 166.007812 202.5625 C 170.683594 197.753906 174.066406 198.292969 179.957031 201.441406 C 183.613281 203.398438 185.3125 205.125 188.632812 204.359375 C 190.25 203.992188 191.457031 204.890625 191.5 205.886719 "/>
<path style=" stroke:none;fill-rule:evenodd;fill:rgb(100%,100%,100%);fill-opacity:1;" d="M 253.996094 222.921875 C 246.265625 211.441406 242.875 210.617188 240.027344 223.773438 C 233.113281 217.410156 232.003906 217.800781 227.355469 225.613281 C 218.117188 214.765625 217.777344 216.933594 210.273438 226.644531 C 206.8125 216.59375 204.800781 218.242188 198.527344 223.121094 C 197.410156 215.054688 195.445312 215.636719 189.152344 218.34375 C 186.492188 209.210938 183.480469 213.355469 178.136719 215.617188 L 193.574219 227.429688 C 219.191406 234.351562 229.472656 233.082031 253.996094 222.921875 "/>
<path style=" stroke:none;fill-rule:evenodd;fill:rgb(100%,100%,100%);fill-opacity:1;" d="M 245.375 135.574219 C 244.273438 144.785156 243.753906 157.777344 234.660156 147.25 C 227.046875 160.941406 225.621094 165.679688 215.03125 152.375 C 211.929688 164.933594 208.332031 160.644531 204.238281 152.714844 C 196.425781 162.230469 195.78125 162.882812 188.296875 152.90625 C 184.175781 159.605469 184.1875 161.535156 177.226562 157.277344 C 179.726562 165.925781 179.492188 165.546875 171.859375 165.539062 C 176.6875 174.847656 168.09375 173.359375 160.921875 173.898438 C 172.265625 134.199219 210.324219 132.71875 245.375 135.574219 "/>
<path style=" stroke:none;fill-rule:evenodd;fill:rgb(86.669922%,86.669922%,86.268616%);fill-opacity:1;" d="M 245.375 135.574219 C 245.1875 137.152344 245.015625 138.84375 244.816406 140.507812 C 229.6875 152.074219 216.039062 152.308594 197.410156 151.941406 C 177.21875 151.550781 168.453125 162.390625 165.207031 173.71875 C 163.796875 173.765625 162.332031 173.792969 160.921875 173.898438 C 172.265625 134.199219 210.324219 132.71875 245.375 135.574219 "/>
<g clip-path="url(#clip1)" clip-rule="nonzero">
<path style=" stroke:none;fill-rule:evenodd;fill:rgb(18.429565%,35.289001%,41.178894%);fill-opacity:1;" d="M 223.300781 249.363281 C 214.902344 264.457031 200.824219 276.207031 183.6875 280.546875 C 175.46875 282.628906 169.296875 281.34375 179.1875 274.191406 C 171.929688 276.390625 139.183594 280.671875 163.542969 267.148438 C 170.523438 263.269531 176.871094 259.359375 183.550781 253.589844 L 223.300781 249.363281 "/>
</g>
<g clip-path="url(#clip2)" clip-rule="nonzero">
<path style=" stroke:none;fill-rule:evenodd;fill:rgb(22.349548%,42.749023%,50.19989%);fill-opacity:1;" d="M 223.300781 249.363281 C 214.902344 264.457031 200.824219 276.207031 183.6875 280.546875 C 178.035156 281.980469 173.34375 281.816406 174.195312 279.246094 C 188.691406 279.726562 206.242188 266.835938 212.539062 255.570312 L 213.792969 250.375 Z M 179.1875 274.191406 L 184.152344 269.726562 C 173.765625 274.179688 163.738281 275.082031 155.058594 275.378906 C 157.800781 278.105469 174.292969 275.675781 179.1875 274.191406 "/>
</g>
<path style=" stroke:none;fill-rule:evenodd;fill:rgb(22.349548%,42.749023%,50.19989%);fill-opacity:1;" d="M 71.066406 184.761719 C 54.800781 178.164062 33.660156 178.523438 15.378906 191.042969 C 10.480469 194.394531 4.179688 203.546875 10.835938 203.074219 C 15.980469 202.707031 22.308594 206.972656 28.273438 211.519531 C 39.136719 219.804688 44.222656 223.527344 58.011719 222.773438 C 51.355469 230.714844 50.238281 238.886719 47.398438 247.328125 C 45.257812 253.691406 43.375 256.136719 39.683594 258.109375 C 30.023438 263.273438 32.1875 266.445312 37.90625 268.054688 C 70.851562 277.328125 90.328125 258.574219 96.304688 236.515625 C 102.257812 214.527344 92.367188 193.402344 71.066406 184.761719 "/>
<path style=" stroke:none;fill-rule:evenodd;fill:rgb(18.429565%,35.289001%,41.178894%);fill-opacity:1;" d="M 7.953125 201.09375 C 7.910156 202.394531 8.714844 203.222656 10.835938 203.074219 C 15.980469 202.707031 22.308594 206.972656 28.273438 211.519531 C 39.136719 219.808594 44.222656 223.527344 58.011719 222.773438 C 61.617188 219.15625 62.820312 217.953125 68.078125 215.496094 C 55.054688 213.933594 45.789062 211.207031 35.808594 202.808594 C 28.59375 196.742188 24.984375 197.316406 12.609375 200.410156 C 11.015625 200.8125 9.519531 201.050781 7.953125 201.09375 Z M 34.449219 261.695312 C 46.671875 267.101562 62.792969 262.511719 72.8125 253.851562 C 79.320312 248.226562 87.507812 231.6875 85.648438 220.351562 C 79.796875 217.542969 77.285156 216.195312 76.824219 209.527344 L 93.238281 204.316406 C 98.1875 213.699219 99.425781 224.988281 96.304688 236.515625 C 90.328125 258.574219 70.851562 277.328125 37.90625 268.054688 C 33.65625 266.855469 31.367188 264.796875 34.449219 261.695312 "/>
<path style=" stroke:none;fill-rule:evenodd;fill:rgb(31.759644%,56.858826%,58.039856%);fill-opacity:1;" d="M 85.390625 197.304688 C 61.578125 184.621094 43.441406 184.527344 23.695312 194 C 41.636719 187.050781 67.164062 191.183594 83.445312 200.765625 L 85.390625 197.304688 "/>
<path style=" stroke:none;fill-rule:evenodd;fill:rgb(31.759644%,56.858826%,58.039856%);fill-opacity:1;" d="M 82.398438 203.007812 C 66.804688 198.160156 52.710938 196.1875 36.453125 205.503906 C 52.316406 200.980469 69.691406 202.863281 81.554688 206.917969 L 82.398438 203.007812 "/>
<path style=" stroke:none;fill-rule:evenodd;fill:rgb(31.759644%,56.858826%,58.039856%);fill-opacity:1;" d="M 83.511719 209.714844 C 70.734375 206.433594 59.234375 205.621094 46.199219 215.050781 C 59.007812 209.933594 73.171875 210.449219 82.898438 213.273438 L 83.511719 209.714844 "/>
<path style=" stroke:none;fill-rule:evenodd;fill:rgb(31.759644%,56.858826%,58.039856%);fill-opacity:1;" d="M 95.210938 218.671875 C 92.621094 245.199219 81.9375 258.878906 59.097656 265.585938 C 80.976562 257.761719 89.703125 240.878906 93.042969 218.226562 L 95.210938 218.671875 "/>
<path style=" stroke:none;fill-rule:evenodd;fill:rgb(31.759644%,56.858826%,58.039856%);fill-opacity:1;" d="M 90.390625 217.46875 C 84.953125 238.851562 68.933594 254.140625 49.386719 259.410156 C 69.683594 250.003906 84.5625 232.945312 86.480469 215.324219 L 90.390625 217.46875 "/>
<path style=" stroke:none;fill-rule:evenodd;fill:rgb(31.759644%,56.858826%,58.039856%);fill-opacity:1;" d="M 87.050781 216.25 C 76 228.726562 63.300781 239.933594 53.097656 250.320312 C 61.777344 237.414062 74.519531 223.785156 83.582031 215.558594 L 87.050781 216.25 "/>
<path style=" stroke:none;fill-rule:evenodd;fill:rgb(31.759644%,56.858826%,58.039856%);fill-opacity:1;" d="M 80.191406 213.175781 C 71.800781 215.359375 59.289062 225.335938 56.332031 236.523438 C 61.316406 228.132812 72.96875 218.390625 81.476562 215.4375 L 80.191406 213.175781 "/>
<path style=" stroke:none;fill-rule:evenodd;fill:rgb(22.349548%,42.749023%,50.19989%);fill-opacity:1;" d="M 176.316406 100.1875 C 154.519531 93.324219 136.8125 98.714844 119.414062 110.964844 C 113.566406 115.082031 109.082031 119.566406 103.410156 123.332031 C 95.824219 128.367188 93.375 129.257812 102.273438 133.707031 C 96.136719 141.339844 92.148438 146.96875 85.773438 152.007812 C 64.351562 168.945312 112.277344 161.332031 119.378906 160.355469 L 176.316406 100.1875 "/>
<path style=" stroke:none;fill-rule:evenodd;fill:rgb(18.429565%,35.289001%,41.178894%);fill-opacity:1;" d="M 91.554688 162.894531 C 101.777344 163.035156 115.792969 160.847656 119.378906 160.355469 L 169.84375 109.960938 C 151.316406 101.925781 128.992188 112.609375 113.214844 123.082031 C 105.9375 127.917969 103.585938 128.769531 112.125 133.042969 C 106.234375 140.367188 102.558594 150.179688 96.4375 155.015625 C 91.675781 158.785156 90.488281 161.285156 91.554688 162.894531 "/>
<path style=" stroke:none;fill-rule:evenodd;fill:rgb(31.759644%,56.858826%,58.039856%);fill-opacity:1;" d="M 160.722656 118.296875 C 147.949219 115.015625 136.445312 114.203125 123.414062 123.632812 C 136.222656 118.515625 150.386719 119.03125 160.113281 121.855469 L 160.722656 118.296875 "/>
<path style=" stroke:none;fill-rule:evenodd;fill:rgb(31.759644%,56.858826%,58.039856%);fill-opacity:1;" d="M 143.433594 128.632812 C 132.921875 128.605469 123.878906 130.230469 115.667969 140.070312 C 124.554688 133.605469 135.59375 131.226562 143.664062 131.5 L 143.433594 128.632812 "/>
<path style=" stroke:none;fill-rule:evenodd;fill:rgb(31.759644%,56.858826%,58.039856%);fill-opacity:1;" d="M 139.34375 141.324219 C 128.835938 141.644531 119.851562 143.570312 111.976562 153.675781 C 120.640625 146.921875 131.59375 144.175781 139.667969 144.179688 L 139.34375 141.324219 "/>
<path style=" stroke:none;fill-rule:evenodd;fill:rgb(38.42926%,69.018555%,70.199585%);fill-opacity:1;" d="M 198.199219 146.832031 C 177.519531 146.429688 168.820312 157.816406 165.769531 169.433594 C 159.070312 194.929688 180.300781 254.210938 263.0625 219.351562 C 225.742188 265.484375 172.867188 272.847656 124.050781 235.363281 C 111.261719 225.414062 102.097656 222.566406 91.796875 219.925781 C 78.097656 216.417969 69.234375 209.273438 85.664062 195.625 C 112.785156 173.097656 124.890625 131.203125 157.125 109.152344 C 179.820312 93.628906 204.21875 93.96875 242.046875 118.597656 C 250.449219 117.195312 252.09375 117.976562 256.734375 125.078125 C 236.6875 146.824219 221.261719 147.28125 198.199219 146.832031 "/>
<path style=" stroke:none;fill-rule:evenodd;fill:rgb(31.759644%,56.858826%,58.039856%);fill-opacity:1;" d="M 228.859375 119.652344 C 226.117188 121.230469 225.171875 124.730469 226.753906 127.46875 C 228.332031 130.207031 231.839844 131.152344 234.585938 129.570312 C 237.324219 127.996094 238.269531 124.496094 236.691406 121.753906 C 235.109375 119.015625 231.605469 118.078125 228.859375 119.652344 "/>
<path style=" stroke:none;fill-rule:evenodd;fill:rgb(48.239136%,86.669922%,87.838745%);fill-opacity:1;" d="M 145.445312 123.164062 C 159.582031 107.769531 175.992188 96.675781 200.890625 102.480469 C 211.695312 105 208.882812 111.347656 200.078125 108.746094 C 175.910156 101.609375 162.65625 112.335938 149.382812 126.183594 C 145.960938 129.753906 142.308594 134.023438 138.339844 137.347656 C 131.785156 142.839844 132.328125 138.207031 135.5625 134.457031 C 138.828125 130.671875 142.054688 126.855469 145.445312 123.164062 "/>
<path style=" stroke:none;fill-rule:evenodd;fill:rgb(31.759644%,56.858826%,58.039856%);fill-opacity:1;" d="M 192 136.308594 C 187.226562 142.652344 178.199219 143.933594 171.84375 139.167969 C 165.488281 134.398438 164.203125 125.390625 168.980469 119.042969 C 173.757812 112.699219 182.785156 111.417969 189.140625 116.1875 C 195.492188 120.953125 196.777344 129.964844 192 136.308594 "/>
<path style=" stroke:none;fill-rule:evenodd;fill:rgb(31.759644%,56.858826%,58.039856%);fill-opacity:1;" d="M 236.308594 227.949219 C 244.289062 226.273438 253.039062 223.539062 262.621094 219.53125 L 262.921875 219.519531 C 225.613281 265.503906 172.808594 272.800781 124.050781 235.363281 C 111.261719 225.414062 102.097656 222.566406 91.796875 219.925781 C 83.816406 217.882812 77.480469 214.601562 76.824219 209.527344 C 83.4375 212.300781 89.679688 213.5 98.515625 214.175781 C 112.261719 215.226562 122.53125 219.117188 133.117188 224.617188 C 133.625 223.824219 134.03125 223.1875 134.332031 222.746094 C 138.242188 217.007812 139.953125 210.613281 143.578125 209.933594 C 148.753906 208.964844 154.101562 214.152344 156.058594 228.042969 C 156.460938 230.917969 156.710938 233.683594 156.8125 236.347656 C 185.859375 248.488281 210.992188 248.703125 236.308594 227.949219 "/>
<path style=" stroke:none;fill-rule:evenodd;fill:rgb(22.349548%,42.749023%,50.19989%);fill-opacity:1;" d="M 107.453125 264.964844 C 105.554688 272.542969 108.191406 278.152344 116.726562 275.816406 C 142.066406 268.878906 154.195312 251.53125 152.246094 222.980469 C 151.292969 208.984375 146.332031 203.429688 141.101562 204.027344 C 137.4375 204.441406 135.269531 210.695312 130.957031 216.144531 C 127.746094 220.199219 112.929688 242.066406 97.347656 251.625 C 93.351562 254.078125 87.917969 257 85.808594 259.355469 C 77.84375 268.257812 85.957031 274.332031 107.453125 264.964844 "/>
<path style=" stroke:none;fill-rule:evenodd;fill:rgb(18.429565%,35.289001%,41.178894%);fill-opacity:1;" d="M 106.953125 270.699219 C 107.476562 275.046875 110.5625 277.5 116.726562 275.816406 C 142.066406 268.878906 154.195312 251.53125 152.246094 222.980469 C 151.578125 213.183594 148.949219 207.523438 145.636719 205.210938 C 152.703125 229.910156 143.707031 258.832031 118.269531 268.945312 C 114.75 270.339844 111.019531 271.058594 106.953125 270.699219 Z M 82.980469 264.09375 C 92.351562 266.25 100.578125 263.890625 113.476562 257.390625 L 107.453125 264.964844 C 90.097656 272.527344 81.46875 270.023438 82.980469 264.09375 "/>
<path style=" stroke:none;fill-rule:evenodd;fill:rgb(100%,100%,100%);fill-opacity:1;" d="M 192.25 134.554688 C 187.84375 140.410156 179.511719 141.589844 173.648438 137.191406 C 167.78125 132.792969 166.597656 124.476562 171.007812 118.621094 C 175.414062 112.761719 183.742188 111.582031 189.605469 115.980469 C 195.472656 120.378906 196.65625 128.699219 192.25 134.554688 "/>
<path style=" stroke:none;fill-rule:evenodd;fill:rgb(86.669922%,86.669922%,86.268616%);fill-opacity:1;" d="M 192.253906 134.550781 C 187.84375 140.410156 179.511719 141.589844 173.648438 137.191406 C 169.695312 134.226562 167.867188 129.480469 168.445312 124.90625 C 168.753906 128.550781 170.550781 132.046875 173.707031 134.414062 C 179.570312 138.8125 187.902344 137.628906 192.308594 131.777344 C 193.746094 129.867188 194.585938 127.695312 194.867188 125.484375 C 195.128906 128.613281 194.289062 131.847656 192.253906 134.550781 "/>
<path style=" stroke:none;fill-rule:nonzero;fill:rgb(22.349548%,42.749023%,50.19989%);fill-opacity:1;" d="M 257.386719 125.996094 C 251.46875 143.476562 226.589844 147.777344 210.851562 149.371094 C 190.5625 151.429688 171.785156 147.226562 167.007812 172.316406 C 165.351562 180.996094 166.410156 190.484375 169.0625 198.457031 C 170.257812 202.039062 171.746094 205.304688 173.597656 208.167969 C 175.402344 210.957031 177.558594 213.371094 180.132812 215.332031 C 192.945312 225.09375 207.480469 227.941406 222.113281 227.070312 C 235.152344 226.289062 248.308594 222.566406 260.4375 218.117188 C 266.160156 216.015625 267.222656 221.769531 261.78125 223.746094 C 249.378906 228.261719 235.917969 232.011719 222.453125 232.8125 C 206.558594 233.761719 190.714844 230.628906 176.640625 219.90625 C 173.539062 217.539062 170.933594 214.628906 168.761719 211.269531 C 166.640625 207.988281 164.945312 204.289062 163.609375 200.265625 C 160.671875 191.449219 159.507812 180.925781 161.351562 171.25 C 166.777344 142.75 187.027344 146.34375 210.265625 144.039062 C 226.40625 142.433594 247.222656 138.203125 253.847656 121.515625 C 255.335938 117.769531 258.925781 121.449219 257.386719 125.996094 "/>
<path style=" stroke:none;fill-rule:nonzero;fill:rgb(18.429565%,35.289001%,41.178894%);fill-opacity:1;" d="M 265.292969 220.378906 C 265.046875 221.617188 263.917969 222.972656 261.78125 223.746094 C 249.378906 228.261719 235.917969 232.011719 222.453125 232.8125 C 206.558594 233.761719 190.714844 230.628906 176.640625 219.90625 C 174.136719 217.996094 171.960938 215.734375 170.074219 213.171875 C 201.492188 236.5 226.542969 232.429688 265.292969 220.378906 "/>
<path style=" stroke:none;fill-rule:nonzero;fill:rgb(18.429565%,35.289001%,41.178894%);fill-opacity:1;" d="M 257.390625 125.996094 C 251.46875 143.476562 226.589844 147.777344 210.851562 149.371094 C 191.519531 151.332031 173.558594 147.605469 167.773438 168.960938 C 167.707031 157.355469 175.65625 150.691406 186.695312 149.070312 C 203.160156 146.640625 217.898438 147.90625 231.15625 143.675781 C 240.066406 140.828125 251.269531 135.8125 257.636719 125.070312 C 257.574219 125.371094 257.496094 125.683594 257.390625 125.996094 "/>
<path style=" stroke:none;fill-rule:evenodd;fill:rgb(100%,100%,100%);fill-opacity:1;" d="M 229.035156 119.542969 C 226.476562 121.011719 225.597656 124.277344 227.070312 126.828125 C 228.542969 129.382812 231.808594 130.257812 234.367188 128.785156 C 236.925781 127.316406 237.800781 124.054688 236.328125 121.503906 C 234.855469 118.949219 231.589844 118.074219 229.035156 119.542969 "/>
<path style=" stroke:none;fill-rule:evenodd;fill:rgb(86.669922%,86.669922%,86.268616%);fill-opacity:1;" d="M 226.398438 123.503906 C 226.257812 124.613281 226.464844 125.78125 227.070312 126.828125 C 228.542969 129.378906 231.808594 130.257812 234.367188 128.785156 C 236.261719 127.695312 237.238281 125.617188 237.011719 123.574219 C 236.808594 125.175781 235.882812 126.667969 234.375 127.535156 C 231.820312 129.003906 228.550781 128.125 227.078125 125.574219 C 226.699219 124.917969 226.476562 124.210938 226.398438 123.503906 "/>
<path style=" stroke:none;fill-rule:evenodd;fill:rgb(31.759644%,56.858826%,58.039856%);fill-opacity:1;" d="M 162.460938 128.578125 C 163.171875 115.042969 170.398438 110.921875 183.351562 110.070312 C 167.710938 104.402344 156.738281 112.570312 162.460938 128.578125 "/>
<path style=" stroke:none;fill-rule:evenodd;fill:rgb(31.759644%,56.858826%,58.039856%);fill-opacity:1;" d="M 196.289062 125.726562 C 197.832031 136.359375 192.34375 141.5 182.40625 144.160156 C 195.441406 146.152344 203.21875 137.289062 196.289062 125.726562 "/>
<path style=" stroke:none;fill-rule:evenodd;fill:rgb(31.759644%,56.858826%,58.039856%);fill-opacity:1;" d="M 224.972656 126.714844 C 228.089844 132.445312 232.082031 132.742188 237.882812 130.425781 C 232.269531 136.125 225.8125 134.851562 224.972656 126.714844 "/>
<g clip-path="url(#clip3)" clip-rule="nonzero">
<path style=" stroke:none;fill-rule:evenodd;fill:rgb(18.429565%,35.289001%,41.178894%);fill-opacity:1;" d="M 153.425781 114.300781 C 171.398438 110.820312 182.207031 112.203125 197.644531 117.492188 L 195.144531 93.886719 L 192.496094 93.984375 L 193.164062 105.585938 C 179.058594 98.921875 169.1875 96.363281 153.980469 100.429688 L 153.425781 114.300781 "/>
</g>
<path style=" stroke:none;fill-rule:evenodd;fill:rgb(31.759644%,56.858826%,58.039856%);fill-opacity:1;" d="M 171.292969 147.890625 C 150.289062 155.3125 156.238281 183.070312 158.484375 200.183594 C 149.148438 182.144531 144.078125 150.242188 171.292969 147.890625 "/>
<path style=" stroke:none;fill-rule:evenodd;fill:rgb(31.759644%,56.858826%,58.039856%);fill-opacity:1;" d="M 247.820312 232.214844 C 225.386719 242.230469 209.285156 244.835938 187.101562 232.832031 C 208.628906 239.371094 226.097656 237.46875 247.820312 232.214844 "/>
<path style=" stroke:none;fill-rule:evenodd;fill:rgb(14.118958%,12.939453%,11.369324%);fill-opacity:1;" d="M 192.773438 134.84375 C 189.972656 138.566406 184.675781 139.320312 180.945312 136.519531 C 177.214844 133.722656 176.464844 128.4375 179.265625 124.714844 C 182.066406 120.988281 187.363281 120.238281 191.09375 123.035156 C 194.824219 125.832031 195.574219 131.121094 192.773438 134.84375 "/>
<path style=" stroke:none;fill-rule:evenodd;fill:rgb(14.118958%,12.939453%,11.369324%);fill-opacity:1;" d="M 231.832031 122.675781 C 230.234375 123.59375 229.683594 125.632812 230.605469 127.222656 C 231.523438 128.816406 233.5625 129.367188 235.160156 128.445312 C 236.757812 127.527344 237.304688 125.492188 236.386719 123.898438 C 235.46875 122.304688 233.425781 121.757812 231.832031 122.675781 "/>
<path style=" stroke:none;fill-rule:evenodd;fill:rgb(31.759644%,56.858826%,58.039856%);fill-opacity:1;" d="M 126.753906 164.375 C 121.644531 171.164062 120.433594 176.5625 130.921875 175.707031 C 117.160156 183.027344 116.527344 172.019531 126.753906 164.375 "/>
<path style=" stroke:none;fill-rule:evenodd;fill:rgb(31.759644%,56.858826%,58.039856%);fill-opacity:1;" d="M 125.136719 175.941406 C 122.207031 179.835938 121.511719 182.929688 127.527344 182.441406 C 119.636719 186.636719 119.273438 180.324219 125.136719 175.941406 "/>
<path style=" stroke:none;fill-rule:evenodd;fill:rgb(31.759644%,56.858826%,58.039856%);fill-opacity:1;" d="M 116.667969 175.535156 C 113.738281 179.425781 113.046875 182.523438 119.058594 182.03125 C 111.164062 186.226562 110.800781 179.917969 116.667969 175.535156 "/>
<path style=" stroke:none;fill-rule:evenodd;fill:rgb(31.759644%,56.858826%,58.039856%);fill-opacity:1;" d="M 117.464844 207.324219 C 111.625 205.621094 108.613281 203.042969 114.992188 199.046875 C 103.960938 200.738281 108.324219 207.316406 117.464844 207.324219 "/>
<path style=" stroke:none;fill-rule:evenodd;fill:rgb(31.759644%,56.858826%,58.039856%);fill-opacity:1;" d="M 112.324219 200.554688 C 107.644531 199.1875 105.230469 197.121094 110.339844 193.921875 C 101.503906 195.273438 104.996094 200.546875 112.324219 200.554688 "/>
<path style=" stroke:none;fill-rule:evenodd;fill:rgb(31.759644%,56.858826%,58.039856%);fill-opacity:1;" d="M 105.785156 205.941406 C 101.101562 204.578125 98.691406 202.507812 103.800781 199.308594 C 94.964844 200.664062 98.457031 205.933594 105.785156 205.941406 "/>
<path style=" stroke:none;fill-rule:evenodd;fill:rgb(31.759644%,56.858826%,58.039856%);fill-opacity:1;" d="M 128.542969 202.015625 C 123.863281 200.648438 121.449219 198.578125 126.5625 195.378906 C 117.722656 196.734375 121.214844 202.003906 128.542969 202.015625 "/>
<path style=" stroke:none;fill-rule:evenodd;fill:rgb(31.759644%,56.858826%,58.039856%);fill-opacity:1;" d="M 133.445312 148.546875 C 130.609375 153.925781 130.371094 157.875 137.683594 156.078125 C 128.792969 162.816406 127.09375 155.109375 133.445312 148.546875 "/>
<path style=" stroke:none;fill-rule:evenodd;fill:rgb(31.759644%,56.858826%,58.039856%);fill-opacity:1;" d="M 144.972656 144.292969 C 142.699219 148.605469 142.511719 151.769531 148.367188 150.332031 C 141.246094 155.726562 139.878906 149.554688 144.972656 144.292969 "/>
<path style=" stroke:none;fill-rule:evenodd;fill:rgb(48.239136%,86.669922%,87.838745%);fill-opacity:1;" d="M 215.273438 107.117188 C 217.230469 108.09375 218.222656 110.070312 217.492188 111.53125 C 216.761719 112.996094 214.578125 113.390625 212.625 112.414062 C 210.667969 111.4375 209.675781 109.460938 210.40625 108 C 211.140625 106.539062 213.320312 106.140625 215.273438 107.117188 "/>
<path style=" stroke:none;fill-rule:evenodd;fill:rgb(18.429565%,35.289001%,41.178894%);fill-opacity:1;" d="M 240.996094 110.234375 C 229.769531 113.609375 224.417969 121.449219 220.996094 127.183594 L 213.464844 114.65625 L 214.753906 113.765625 L 218.378906 118.335938 C 221.910156 110.578125 226.671875 104.335938 236.894531 102.082031 L 240.996094 110.234375 "/>
<path style=" stroke:none;fill-rule:evenodd;fill:rgb(31.759644%,56.858826%,58.039856%);fill-opacity:1;" d="M 139.105469 212.980469 C 133.292969 230.507812 112.242188 250.933594 93.277344 259.445312 C 105.75 257.710938 134.457031 239.886719 139.105469 212.980469 "/>
<path style=" stroke:none;fill-rule:evenodd;fill:rgb(31.759644%,56.858826%,58.039856%);fill-opacity:1;" d="M 142.648438 214.988281 C 142.96875 228.441406 133.542969 247.621094 122.621094 258.109375 C 131.386719 255.429688 146.972656 236.824219 142.648438 214.988281 "/>
<path style=" stroke:none;fill-rule:evenodd;fill:rgb(67.059326%,34.118652%,15.689087%);fill-opacity:1;" d="M 283.066406 203.253906 C 277.328125 206.5 275.589844 207.777344 270.636719 209.496094 C 264.273438 211.707031 269.128906 212.871094 273.519531 213.289062 C 270.589844 215.550781 271.839844 216.78125 274.632812 216.617188 C 279.351562 216.328125 286.113281 212.546875 287.34375 207.03125 C 287.617188 205.785156 287.574219 204.449219 287.121094 203.640625 C 286.382812 202.34375 284.578125 202.390625 283.066406 203.253906 "/>
<path style=" stroke:none;fill-rule:evenodd;fill:rgb(52.159119%,26.269531%,12.159729%);fill-opacity:1;" d="M 280.253906 204.863281 C 276.578125 206.984375 274.675781 208.09375 270.636719 209.496094 C 269.085938 210.035156 268.199219 210.511719 267.816406 210.929688 C 270.191406 212.144531 272.167969 212.390625 275.289062 212.199219 C 274.648438 212.535156 274.050781 212.890625 273.519531 213.289062 C 272.484375 214.089844 271.976562 214.757812 271.863281 215.285156 C 277.488281 216.207031 282.640625 211.808594 286.539062 208.320312 L 280.253906 204.863281 "/>
<path style=" stroke:none;fill-rule:evenodd;fill:rgb(54.899597%,27.449036%,17.649841%);fill-opacity:1;" d="M 311.347656 158.492188 C 289.105469 163.894531 290.613281 201.019531 312.289062 209.25 C 266.8125 214.113281 251.398438 130.78125 311.347656 158.492188 "/>
<path style=" stroke:none;fill-rule:evenodd;fill:rgb(36.079407%,17.649841%,11.369324%);fill-opacity:1;" d="M 295.0625 170.980469 C 291.84375 182.390625 293.25 189.707031 297.734375 199.722656 C 290.792969 189.734375 288.832031 182.878906 295.0625 170.980469 "/>
<path style=" stroke:none;fill-rule:evenodd;fill:rgb(36.079407%,17.649841%,11.369324%);fill-opacity:1;" d="M 311.347656 158.492188 C 307.765625 159.363281 304.800781 161.0625 302.433594 163.324219 C 287.667969 164.230469 280.742188 170.652344 279.738281 191.675781 L 275.308594 186.09375 C 274.273438 183.734375 273.476562 181.320312 272.929688 178.929688 L 272.425781 167.113281 C 274.589844 154.617188 286.480469 147 311.347656 158.492188 "/>
<path style=" stroke:none;fill-rule:evenodd;fill:rgb(14.118958%,12.939453%,11.369324%);fill-opacity:1;" d="M 278.121094 175.164062 C 277.726562 176.875 277.152344 178.398438 277.871094 179.171875 C 278.363281 179.699219 280.042969 180.148438 280.480469 178.984375 C 280.621094 178.605469 280.667969 178.078125 280.59375 177.394531 C 280.1875 173.300781 285.34375 172.234375 286.667969 176.21875 C 288.394531 181.402344 285.378906 190.40625 280.808594 194.316406 C 278.179688 190.570312 272.128906 178.265625 278.121094 175.164062 "/>
<path style=" stroke:none;fill-rule:evenodd;fill:rgb(83.139038%,38.819885%,38.819885%);fill-opacity:1;" d="M 283.652344 197.109375 C 291.851562 197.457031 298.09375 196.046875 304.816406 191.828125 C 307.578125 190.097656 310.574219 189.738281 310.21875 193.980469 C 309.675781 200.488281 303.546875 205.203125 296.703125 207.222656 C 291.761719 206.195312 286.851562 202.472656 283.652344 197.109375 "/>
<path style=" stroke:none;fill-rule:evenodd;fill:rgb(97.648621%,49.409485%,49.409485%);fill-opacity:1;" d="M 286.015625 197.15625 C 293.082031 197.152344 298.75 195.632812 304.816406 191.828125 C 307.011719 190.453125 309.351562 189.945312 310.046875 191.921875 C 308.890625 197.800781 303.105469 202.0625 296.695312 203.953125 C 292.851562 203.15625 289.03125 200.722656 286.015625 197.15625 "/>
<path style=" stroke:none;fill-rule:evenodd;fill:rgb(83.139038%,38.819885%,38.819885%);fill-opacity:1;" d="M 274.875 198.011719 C 286.273438 201.324219 293.617188 199.984375 303.691406 195.59375 C 293.625 202.4375 286.742188 204.332031 274.875 198.011719 "/>
<path style=" stroke:none;fill-rule:evenodd;fill:rgb(100%,100%,100%);fill-opacity:1;" d="M 311.339844 209.890625 C 310.574219 202.359375 309.730469 201.832031 304.957031 207.457031 C 303.261719 202.601562 302.625 202.503906 298.363281 205.082031 C 296.703125 197.464844 295.980469 198.425781 289.847656 201.183594 C 290.773438 195.4375 289.375 195.714844 285.085938 196.457031 C 286.625 192.273438 285.53125 192.046875 281.792969 191.734375 C 282.867188 186.640625 280.339844 187.867188 277.175781 187.585938 C 284.316406 203.28125 293.671875 208.175781 311.339844 209.890625 "/>
<path style=" stroke:none;fill-rule:evenodd;fill:rgb(67.059326%,34.118652%,15.689087%);fill-opacity:1;" d="M 285.65625 143.402344 C 280.90625 137.597656 273.042969 134.054688 264.449219 133.511719 C 259.101562 133.171875 258.574219 134.285156 261.785156 137.679688 C 258.082031 138.449219 256.527344 139.507812 253.246094 141.132812 C 251.101562 142.199219 248.804688 142.785156 245.699219 142.816406 C 244.125 142.832031 244.148438 144.175781 245.933594 145.699219 C 251.871094 150.785156 260.199219 151.878906 268.03125 153.914062 L 285.65625 143.402344 "/>
<path style=" stroke:none;fill-rule:evenodd;fill:rgb(52.159119%,26.269531%,12.159729%);fill-opacity:1;" d="M 245.046875 144.785156 C 245.269531 145.074219 245.5625 145.382812 245.933594 145.699219 C 251.871094 150.785156 260.199219 151.878906 268.03125 153.914062 L 281.046875 147.398438 C 276.804688 143.136719 273.914062 138.140625 267.183594 136.773438 C 262.554688 135.835938 262.007812 137.457031 264.832031 140.445312 C 261.570312 141.125 260.203125 142.058594 257.316406 143.488281 C 256.3125 143.988281 253.257812 144.886719 250.757812 145.058594 C 248.554688 145.210938 246.90625 144.671875 245.625 144.6875 C 245.390625 144.6875 245.199219 144.722656 245.046875 144.785156 "/>
<path style=" stroke:none;fill-rule:evenodd;fill:rgb(67.059326%,34.118652%,15.689087%);fill-opacity:1;" d="M 280.027344 149.179688 C 277.117188 142.699219 272.441406 139.179688 265.324219 137.722656 C 270.890625 140.496094 276.242188 144.566406 280.027344 149.179688 "/>
<path style=" stroke:none;fill-rule:evenodd;fill:rgb(67.059326%,34.118652%,15.689087%);fill-opacity:1;" d="M 277.324219 150.53125 C 272.710938 144.78125 267.296875 142.367188 260.183594 142.574219 C 266.222656 144.039062 272.429688 146.832031 277.324219 150.53125 "/>
<path style=" stroke:none;fill-rule:evenodd;fill:rgb(67.059326%,34.118652%,15.689087%);fill-opacity:1;" d="M 271.617188 151 C 265.953125 146.269531 260.167969 144.972656 253.238281 146.582031 C 259.445312 146.824219 266.089844 148.335938 271.617188 151 "/>
<path style=" stroke:none;fill-rule:evenodd;fill:rgb(100%,100%,100%);fill-opacity:1;" d="M 314.808594 155.03125 C 315.191406 160.714844 312.085938 165.84375 309.582031 160.445312 C 308.199219 164.914062 305.9375 168.660156 303.136719 161.945312 C 300.390625 166.75 297.925781 165.136719 297.171875 161.394531 C 292.839844 164.398438 292.496094 164.589844 290.589844 159.609375 C 288.101562 161.882812 287.878906 162.679688 285.515625 160.109375 C 285.53125 163.964844 285.476562 163.78125 282.335938 162.886719 C 283.234375 167.28125 279.867188 165.664062 276.851562 165.046875 C 286.179688 150.03125 300.714844 149.753906 314.808594 155.03125 "/>
<path style=" stroke:none;fill-rule:evenodd;fill:rgb(86.669922%,86.669922%,86.268616%);fill-opacity:1;" d="M 314.808594 155.03125 C 314.878906 156.09375 314.828125 157.136719 314.6875 158.09375 C 313.300781 159.492188 311.699219 160.496094 309.953125 161.160156 C 309.828125 160.949219 309.703125 160.707031 309.582031 160.445312 C 309.480469 160.769531 309.375 161.09375 309.265625 161.40625 C 307.390625 162.015625 305.359375 162.261719 303.25 162.199219 L 303.136719 161.945312 C 303.089844 162.027344 303.042969 162.113281 302.992188 162.195312 C 299.234375 162.046875 295.238281 160.941406 291.425781 159.21875 C 287.550781 157.46875 284.480469 159.636719 282.34375 162.886719 L 282.335938 162.886719 L 282.335938 162.898438 C 281.734375 163.816406 281.203125 164.820312 280.75 165.851562 C 279.671875 165.816406 278.226562 165.328125 276.851562 165.046875 C 286.179688 150.03125 300.714844 149.753906 314.808594 155.03125 "/>
<path style=" stroke:none;fill-rule:evenodd;fill:rgb(100%,41.569519%,0%);fill-opacity:1;" d="M 316.8125 151.601562 L 316.640625 152.902344 C 311.582031 162.257812 300.609375 161.917969 290.824219 157.503906 C 285.023438 154.882812 281.019531 161.046875 279.257812 166.488281 C 270.511719 193.402344 292.640625 209.066406 315.511719 208.296875 C 283.210938 224.570312 259.316406 195.730469 244.8125 190.347656 C 240.847656 202.304688 230.96875 210.679688 217.628906 212.859375 C 215.96875 202.300781 219.042969 193.285156 224.171875 184.546875 C 214.453125 176.25 211.480469 170.921875 209.554688 157.703125 C 224.871094 160.816406 233.523438 164.394531 241.714844 173.226562 C 247.492188 169.171875 253.125 163.53125 258.710938 158.074219 C 273.007812 144.085938 293.339844 132.890625 305.792969 143.828125 C 310.300781 147.789062 310.828125 149.273438 316.8125 151.601562 "/>
<path style=" stroke:none;fill-rule:evenodd;fill:rgb(100%,68.629456%,32.939148%);fill-opacity:1;" d="M 274.554688 151.574219 C 264.710938 158.519531 256.058594 166.601562 245.917969 173.070312 C 244.179688 174.179688 243.960938 173.25 245.421875 172.089844 C 254.632812 164.757812 263.128906 155.140625 273.109375 148.988281 C 276.53125 146.878906 278.15625 149.03125 274.554688 151.574219 "/>
<path style=" stroke:none;fill-rule:evenodd;fill:rgb(100%,68.629456%,32.939148%);fill-opacity:1;" d="M 278.949219 145.355469 C 280.109375 144.933594 281.289062 145.246094 281.582031 146.058594 C 281.878906 146.867188 281.175781 147.863281 280.015625 148.285156 C 278.855469 148.703125 277.675781 148.390625 277.378906 147.582031 C 277.085938 146.773438 277.789062 145.777344 278.949219 145.355469 "/>
<path style=" stroke:none;fill-rule:evenodd;fill:rgb(83.139038%,34.899902%,0%);fill-opacity:1;" d="M 308.34375 151.484375 C 309.679688 151.691406 310.925781 150.773438 311.132812 149.441406 C 311.335938 148.109375 310.421875 146.863281 309.089844 146.65625 C 307.753906 146.453125 306.503906 147.367188 306.300781 148.699219 C 306.09375 150.03125 307.011719 151.277344 308.34375 151.484375 "/>
<path style=" stroke:none;fill-rule:evenodd;fill:rgb(83.139038%,34.899902%,0%);fill-opacity:1;" d="M 292.292969 152.898438 C 289.492188 154.882812 285.609375 154.230469 283.617188 151.4375 C 281.628906 148.640625 282.285156 144.761719 285.082031 142.773438 C 287.882812 140.785156 291.769531 141.441406 293.761719 144.238281 C 295.75 147.035156 295.09375 150.910156 292.292969 152.898438 "/>
<path style=" stroke:none;fill-rule:evenodd;fill:rgb(83.139038%,34.899902%,0%);fill-opacity:1;" d="M 294.703125 204.125 C 300.898438 207.097656 308.167969 208.546875 315.511719 208.296875 C 283.210938 224.570312 259.316406 195.730469 244.8125 190.347656 C 240.847656 202.304688 230.96875 210.679688 217.628906 212.859375 C 228.257812 204.378906 234.933594 199.089844 239.546875 186.222656 C 261.335938 184.039062 271.261719 210.730469 294.703125 204.125 Z M 224.171875 184.546875 C 214.453125 176.25 211.480469 170.921875 209.554688 157.703125 C 215.070312 167.710938 218.386719 174.226562 228.058594 180.515625 C 226.113281 182 225.457031 182.753906 224.171875 184.546875 "/>
<path style=" stroke:none;fill-rule:nonzero;fill:rgb(52.159119%,26.269531%,12.159729%);fill-opacity:1;" d="M 316.445312 151.085938 C 316.691406 150.628906 317.261719 150.460938 317.71875 150.707031 C 318.175781 150.953125 318.34375 151.519531 318.097656 151.976562 C 315.5625 156.664062 311.480469 159.378906 306.785156 160.441406 C 301.640625 161.601562 295.765625 160.761719 290.4375 158.355469 C 290.203125 158.246094 289.96875 158.15625 289.738281 158.082031 C 287.84375 157.46875 286.183594 157.980469 284.78125 159.105469 C 283.273438 160.320312 282.035156 162.238281 281.109375 164.28125 C 280.742188 165.101562 280.417969 165.949219 280.148438 166.777344 L 280.144531 166.773438 C 278.710938 171.1875 278.128906 175.28125 278.253906 179.039062 C 278.476562 185.640625 280.90625 191.210938 284.769531 195.609375 C 288.660156 200.035156 294.007812 203.292969 300.035156 205.25 C 304.878906 206.816406 310.15625 207.542969 315.476562 207.367188 C 315.992188 207.347656 316.425781 207.75 316.445312 208.265625 C 316.460938 208.78125 316.058594 209.214844 315.542969 209.234375 C 310.003906 209.417969 304.507812 208.660156 299.460938 207.023438 C 293.113281 204.96875 287.476562 201.527344 283.359375 196.84375 C 279.21875 192.132812 276.621094 186.167969 276.382812 179.105469 C 276.25 175.136719 276.863281 170.828125 278.367188 166.203125 L 278.363281 166.195312 C 278.652344 165.3125 278.996094 164.398438 279.40625 163.507812 C 280.433594 161.230469 281.84375 159.070312 283.605469 157.648438 C 285.484375 156.140625 287.730469 155.464844 290.320312 156.300781 C 290.609375 156.398438 290.910156 156.511719 291.210938 156.648438 C 296.183594 158.894531 301.628906 159.683594 306.363281 158.617188 C 310.550781 157.671875 314.191406 155.257812 316.445312 151.085938 "/>
<path style=" stroke:none;fill-rule:evenodd;fill:rgb(100%,100%,100%);fill-opacity:1;" d="M 292.59375 152.328125 C 289.890625 154.246094 286.144531 153.613281 284.222656 150.917969 C 282.304688 148.21875 282.9375 144.480469 285.636719 142.558594 C 288.335938 140.644531 292.089844 141.273438 294.011719 143.976562 C 295.929688 146.667969 295.296875 150.414062 292.59375 152.328125 "/>
<path style=" stroke:none;fill-rule:evenodd;fill:rgb(86.669922%,86.669922%,86.268616%);fill-opacity:1;" d="M 292.59375 152.328125 C 289.890625 154.246094 286.144531 153.613281 284.222656 150.917969 C 282.867188 149.011719 282.785156 146.582031 283.808594 144.648438 C 283.269531 146.371094 283.511719 148.316406 284.640625 149.902344 C 286.566406 152.601562 290.316406 153.234375 293.015625 151.316406 C 293.808594 150.753906 294.421875 150.035156 294.847656 149.230469 C 294.472656 150.4375 293.707031 151.539062 292.59375 152.328125 "/>
<path style=" stroke:none;fill-rule:evenodd;fill:rgb(83.139038%,34.899902%,0%);fill-opacity:1;" d="M 295.984375 148.65625 C 295.1875 153.445312 292.164062 154.914062 287.523438 154.699219 C 292.859375 157.34375 297.378906 154.582031 295.984375 148.65625 "/>
<path style=" stroke:none;fill-rule:evenodd;fill:rgb(14.118958%,12.939453%,11.369324%);fill-opacity:1;" d="M 293.460938 151.34375 C 291.746094 152.5625 289.359375 152.160156 288.140625 150.445312 C 286.917969 148.730469 287.320312 146.347656 289.039062 145.132812 C 290.757812 143.910156 293.140625 144.3125 294.363281 146.03125 C 295.582031 147.742188 295.179688 150.125 293.460938 151.34375 "/>
<path style=" stroke:none;fill-rule:evenodd;fill:rgb(100%,100%,100%);fill-opacity:1;" d="M 308.613281 151.03125 C 309.933594 151.238281 311.171875 150.332031 311.375 149.011719 C 311.578125 147.691406 310.671875 146.457031 309.351562 146.25 C 308.027344 146.050781 306.792969 146.953125 306.585938 148.273438 C 306.382812 149.59375 307.292969 150.832031 308.613281 151.03125 "/>
<path style=" stroke:none;fill-rule:evenodd;fill:rgb(86.669922%,86.669922%,86.268616%);fill-opacity:1;" d="M 308.613281 151.03125 C 309.933594 151.238281 311.171875 150.332031 311.375 149.011719 C 311.390625 148.90625 311.402344 148.800781 311.402344 148.699219 C 311.066406 149.84375 309.925781 150.59375 308.710938 150.40625 C 307.492188 150.214844 306.628906 149.15625 306.65625 147.960938 C 306.628906 148.058594 306.605469 148.164062 306.585938 148.273438 C 306.382812 149.59375 307.292969 150.832031 308.613281 151.03125 "/>
<path style=" stroke:none;fill-rule:evenodd;fill:rgb(83.139038%,34.899902%,0%);fill-opacity:1;" d="M 306.542969 150.792969 C 307.699219 152.375 308.902344 152.304688 310.539062 151.386719 C 309.089844 153.304688 307.117188 153.179688 306.542969 150.792969 "/>
<path style=" stroke:none;fill-rule:evenodd;fill:rgb(14.118958%,12.939453%,11.369324%);fill-opacity:1;" d="M 309.570312 150.5 C 310.410156 150.628906 311.195312 150.054688 311.328125 149.214844 C 311.453125 148.375 310.878906 147.589844 310.039062 147.460938 C 309.195312 147.332031 308.410156 147.90625 308.28125 148.742188 C 308.152344 149.585938 308.730469 150.371094 309.570312 150.5 "/>
<path style=" stroke:none;fill-rule:evenodd;fill:rgb(52.159119%,26.269531%,12.159729%);fill-opacity:1;" d="M 282.746094 139.699219 C 288.933594 139.058594 292.117188 139.992188 296.609375 143.082031 L 297.996094 135.714844 L 297.097656 135.667969 L 296.523438 139.082031 C 293.546875 136.261719 287.921875 133.597656 282.542969 134.597656 L 282.746094 139.699219 "/>
<path style=" stroke:none;fill-rule:evenodd;fill:rgb(52.159119%,26.269531%,12.159729%);fill-opacity:1;" d="M 310.753906 145.691406 C 308.367188 145.902344 307.652344 146.0625 305.722656 147.628906 L 304.835938 144.121094 L 305.222656 143.996094 L 305.738281 145.691406 C 306.789062 144.4375 307.613281 143.886719 310.011719 144.09375 L 310.753906 145.691406 "/>
<path style=" stroke:none;fill-rule:evenodd;fill:rgb(83.139038%,34.899902%,0%);fill-opacity:1;" d="M 287.183594 154.359375 C 276.730469 154.699219 275.441406 167.957031 274.011719 175.929688 C 272.402344 166.535156 274.675781 151.550781 287.183594 154.359375 "/>
<path style=" stroke:none;fill-rule:evenodd;fill:rgb(83.139038%,34.899902%,0%);fill-opacity:1;" d="M 270.992188 194.679688 C 266.746094 193.023438 264.667969 190.898438 269.695312 188.339844 C 261.347656 188.871094 264.167969 194.070312 270.992188 194.679688 "/>
<path style=" stroke:none;fill-rule:evenodd;fill:rgb(83.139038%,34.899902%,0%);fill-opacity:1;" d="M 263.882812 185.820312 C 261.445312 184.871094 260.253906 183.652344 263.136719 182.183594 C 258.351562 182.488281 259.96875 185.472656 263.882812 185.820312 "/>
<path style=" stroke:none;fill-rule:evenodd;fill:rgb(83.139038%,34.899902%,0%);fill-opacity:1;" d="M 260.132812 188.390625 C 257.695312 187.4375 256.503906 186.222656 259.386719 184.753906 C 254.601562 185.058594 256.21875 188.042969 260.132812 188.390625 "/>
<path style=" stroke:none;fill-rule:evenodd;fill:rgb(83.139038%,34.899902%,0%);fill-opacity:1;" d="M 250.027344 170.742188 C 247.007812 174.09375 246.109375 176.894531 251.699219 176.933594 C 244.074219 180.160156 244.253906 174.308594 250.027344 170.742188 "/>
<path style=" stroke:none;fill-rule:evenodd;fill:rgb(83.139038%,34.899902%,0%);fill-opacity:1;" d="M 249.425781 177.019531 C 247.003906 179.707031 246.289062 181.949219 250.765625 181.976562 C 244.65625 184.566406 244.804688 179.875 249.425781 177.019531 "/>
<path style=" stroke:none;fill-rule:evenodd;fill:rgb(83.139038%,34.899902%,0%);fill-opacity:1;" d="M 243.191406 176.164062 C 240.769531 178.851562 240.050781 181.09375 244.53125 181.125 C 238.421875 183.710938 238.566406 179.019531 243.191406 176.164062 "/>
<path style=" stroke:none;fill-rule:evenodd;fill:rgb(83.139038%,34.899902%,0%);fill-opacity:1;" d="M 259.09375 169.78125 C 256.675781 172.46875 255.960938 174.710938 260.4375 174.742188 C 254.328125 177.328125 254.472656 172.640625 259.09375 169.78125 "/>
<path style=" stroke:none;fill-rule:evenodd;fill:rgb(67.059326%,34.118652%,15.689087%);fill-opacity:1;" d="M 260.144531 194.261719 C 251.855469 198.957031 249.34375 200.800781 242.1875 203.289062 C 232.992188 206.480469 240.007812 208.167969 246.351562 208.769531 C 242.121094 212.035156 243.929688 213.816406 247.960938 213.574219 C 254.777344 213.164062 264.550781 207.695312 266.324219 199.722656 C 266.722656 197.925781 266.664062 195.992188 266.003906 194.820312 C 264.945312 192.949219 262.335938 193.023438 260.144531 194.261719 "/>
<path style=" stroke:none;fill-rule:evenodd;fill:rgb(52.159119%,26.269531%,12.159729%);fill-opacity:1;" d="M 238.546875 204.976562 C 235.6875 207.097656 241.238281 208.285156 246.351562 208.769531 L 250.226562 206.566406 C 245.890625 207.074219 241.875 207.265625 238.546875 204.976562 Z M 244.042969 211.367188 C 244.921875 212.042969 246.363281 212.019531 248.003906 211.625 C 258.246094 209.179688 262.8125 204.175781 266.488281 196.324219 C 266.648438 197.355469 266.582031 198.566406 266.324219 199.722656 C 264.550781 207.695312 254.777344 213.164062 247.960938 213.574219 C 245.183594 213.742188 243.460938 212.949219 244.042969 211.367188 "/>
<path style=" stroke:none;fill-rule:evenodd;fill:rgb(83.139038%,34.899902%,0%);fill-opacity:1;" d="M 268.230469 159.898438 C 266.480469 161.839844 265.964844 163.460938 269.199219 163.480469 C 264.78125 165.351562 264.890625 161.960938 268.230469 159.898438 "/>
<path style=" stroke:none;fill-rule:evenodd;fill:rgb(83.139038%,34.899902%,0%);fill-opacity:1;" d="M 263.726562 159.277344 C 261.972656 161.222656 261.457031 162.84375 264.691406 162.863281 C 260.277344 164.734375 260.382812 161.34375 263.726562 159.277344 "/>
<path style=" stroke:none;fill-rule:evenodd;fill:rgb(83.139038%,34.899902%,0%);fill-opacity:1;" d="M 238.21875 183.996094 C 230.410156 191.429688 225.472656 202.820312 220.636719 208.902344 C 226.964844 202.589844 234.191406 192.558594 238.21875 183.996094 "/>
<path style=" stroke:none;fill-rule:evenodd;fill:rgb(83.139038%,34.899902%,0%);fill-opacity:1;" d="M 232.925781 183.835938 C 225.410156 188.300781 221.753906 194.496094 220.96875 203.378906 C 223.589844 196.199219 227.8125 189.101562 232.925781 183.835938 "/>
<path style=" stroke:none;fill-rule:evenodd;fill:rgb(100%,41.569519%,0%);fill-opacity:1;" d="M 231.707031 203.082031 C 235.957031 200.949219 239.8125 196.265625 239.542969 188.042969 C 237.4375 196.296875 234.132812 199.65625 231.707031 203.082031 "/>
<path style=" stroke:none;fill-rule:evenodd;fill:rgb(83.139038%,34.899902%,0%);fill-opacity:1;" d="M 231.007812 178.660156 C 222.984375 174.964844 218.417969 166.234375 213.070312 162.777344 C 219.644531 166.003906 225.660156 173.035156 231.007812 178.660156 "/>
<path style=" stroke:none;fill-rule:evenodd;fill:rgb(100%,41.569519%,0%);fill-opacity:1;" d="M 225.605469 180.910156 C 218.953125 178.046875 215.285156 173.347656 213.6875 166.128906 C 216.609375 171.75 220.839844 177.128906 225.605469 180.910156 "/>
<path style=" stroke:none;fill-rule:evenodd;fill:rgb(83.139038%,34.899902%,0%);fill-opacity:1;" d="M 223.34375 165.601562 C 227.257812 166.101562 231.554688 168.703125 233.609375 175.207031 C 229.695312 169.332031 225.984375 167.660156 223.34375 165.601562 "/>
<path style=" stroke:none;fill-rule:evenodd;fill:rgb(52.159119%,26.269531%,12.159729%);fill-opacity:1;" d="M 262.726562 199.046875 C 259.574219 205.410156 254.769531 208.757812 247.605469 209.949219 C 253.273438 207.382812 258.773438 203.515625 262.726562 199.046875 "/>
<path style=" stroke:none;fill-rule:evenodd;fill:rgb(52.159119%,26.269531%,12.159729%);fill-opacity:1;" d="M 260.539062 197.367188 C 255.988281 203.175781 250.601562 205.648438 243.488281 205.523438 C 249.507812 203.988281 255.683594 201.125 260.539062 197.367188 "/>
<path style=" stroke:none;fill-rule:evenodd;fill:rgb(54.899597%,10.978699%,10.978699%);fill-opacity:1;" d="M 345.808594 190.457031 C 344.429688 190.503906 343.109375 190.324219 341.773438 190.910156 C 340.3125 191.546875 339.71875 192.933594 340.1875 193.28125 C 340.507812 193.519531 341.425781 192.882812 342.5 192.738281 C 343.722656 192.574219 344.78125 192.84375 346.167969 193.113281 C 348.894531 193.636719 351.605469 194.613281 354.902344 191.621094 C 356.539062 190.132812 358.664062 189.503906 358.40625 188.394531 C 357.9375 186.421875 353.484375 184.804688 350.808594 187.5 C 349.585938 188.730469 348.046875 190.378906 345.808594 190.457031 "/>
<path style=" stroke:none;fill-rule:evenodd;fill:rgb(54.899597%,10.978699%,10.978699%);fill-opacity:1;" d="M 314.058594 184.65625 C 312.671875 184 311.546875 183.988281 309.53125 184.316406 C 307.96875 184.570312 306.671875 184.683594 305.222656 183.898438 C 303.910156 183.183594 303.90625 182.550781 304.152344 182.410156 C 304.4375 182.253906 305.113281 182.648438 305.742188 182.597656 C 307.046875 182.496094 307.914062 181.867188 309.152344 180.988281 C 312.253906 178.765625 315.304688 181.34375 317.707031 179.640625 C 319.960938 178.042969 320.4375 174.5625 315.371094 175.109375 C 313.660156 175.289062 312.507812 175.011719 311.160156 173.949219 C 309.117188 172.34375 308.128906 170.878906 305.714844 170.503906 C 304.058594 170.242188 304.527344 169.785156 305.46875 169.382812 C 307.699219 168.429688 308.964844 168.570312 310.539062 169.441406 C 313 170.796875 313.496094 170.832031 315.46875 170.03125 C 323.554688 166.742188 327.652344 170.480469 328.792969 178.320312 C 325.082031 185.148438 322.335938 188.542969 314.058594 184.65625 "/>
<path style=" stroke:none;fill-rule:evenodd;fill:rgb(72.938538%,14.509583%,14.509583%);fill-opacity:1;" d="M 304.050781 182.816406 C 303.988281 182.613281 304.050781 182.46875 304.152344 182.410156 C 304.4375 182.253906 305.113281 182.648438 305.742188 182.597656 C 307.046875 182.496094 307.914062 181.867188 309.152344 180.988281 C 312.253906 178.765625 315.304688 181.34375 317.707031 179.640625 C 319 178.722656 319.707031 177.183594 319.117188 176.144531 C 321.527344 177.464844 321.039062 179.175781 320.476562 180.273438 C 319.535156 182.105469 316.53125 182.84375 312.792969 181.6875 C 311.066406 181.152344 310.925781 181.238281 308.742188 182.425781 C 307.105469 183.316406 305.621094 183.195312 304.050781 182.816406 Z M 318.550781 175.554688 L 318.546875 175.554688 Z M 304.867188 170.285156 C 307.015625 170.070312 308.417969 170.554688 310.179688 171.84375 C 312.824219 173.785156 314.570312 174.335938 317.265625 174.191406 C 321.390625 173.96875 321.832031 173.644531 325.007812 176.671875 L 328.644531 177.433594 C 327.328125 170.199219 323.242188 166.867188 315.46875 170.03125 C 313.496094 170.832031 313 170.796875 310.539062 169.441406 C 308.964844 168.570312 307.699219 168.429688 305.46875 169.382812 C 304.753906 169.6875 304.3125 170.027344 304.867188 170.285156 "/>
<path style=" stroke:none;fill-rule:evenodd;fill:rgb(54.899597%,10.978699%,10.978699%);fill-opacity:1;" d="M 326.769531 176.261719 C 323.667969 170.082031 322.113281 170.09375 315.90625 171.085938 C 320.457031 171.339844 323.179688 170.992188 325.765625 176.449219 L 326.769531 176.261719 "/>
<path style=" stroke:none;fill-rule:evenodd;fill:rgb(72.938538%,14.509583%,14.509583%);fill-opacity:1;" d="M 326.492188 179.851562 C 323.1875 185.457031 320.179688 185.375 315.769531 184.046875 C 319.492188 184.40625 322.800781 184.605469 325.574219 179.648438 L 326.492188 179.851562 "/>
<path style=" stroke:none;fill-rule:evenodd;fill:rgb(54.899597%,10.978699%,10.978699%);fill-opacity:1;" d="M 324.851562 177.46875 C 322.550781 172.878906 318.914062 172.585938 314.300781 173.320312 C 317.683594 173.511719 322.191406 173.554688 324.109375 177.605469 L 324.851562 177.46875 "/>
<path style=" stroke:none;fill-rule:evenodd;fill:rgb(72.938538%,14.509583%,14.509583%);fill-opacity:1;" d="M 323.601562 178.378906 C 322.3125 182.941406 318.8125 183.167969 316.160156 182.792969 C 318.300781 182.625 321.9375 182.230469 322.992188 178.21875 L 323.601562 178.378906 "/>
<path style=" stroke:none;fill-rule:evenodd;fill:rgb(72.938538%,14.509583%,14.509583%);fill-opacity:1;" d="M 357.804688 168.203125 C 356.503906 165.410156 355.519531 164.007812 352.296875 163.851562 C 350.273438 163.753906 348.839844 163.492188 346.730469 162.09375 C 344.039062 160.304688 342.460938 160.160156 338.933594 161.472656 C 337.117188 162.152344 335.460938 162.617188 333.5 162.363281 C 331.765625 162.140625 329.996094 161.804688 332.1875 164.027344 C 333.703125 165.5625 335.488281 165.515625 338.148438 165.78125 C 339.355469 165.902344 339.878906 166.1875 341.5625 167.089844 C 346.332031 169.652344 351.09375 168.21875 357.804688 168.203125 "/>
<path style=" stroke:none;fill-rule:evenodd;fill:rgb(54.899597%,10.978699%,10.978699%);fill-opacity:1;" d="M 331.933594 163.761719 C 332.011719 163.847656 332.09375 163.933594 332.1875 164.027344 C 333.703125 165.5625 335.488281 165.515625 338.148438 165.78125 C 339.355469 165.902344 339.878906 166.1875 341.5625 167.089844 C 345.757812 169.339844 349.941406 168.507812 355.445312 168.265625 C 354.398438 166.34375 353.265625 165.359375 350.601562 165.230469 C 348.578125 165.132812 347.699219 165.226562 345.589844 163.824219 C 342.898438 162.039062 341.996094 161.859375 338.472656 163.175781 C 336.695312 163.835938 333.835938 163.976562 331.933594 163.761719 "/>
<path style=" stroke:none;fill-rule:evenodd;fill:rgb(72.938538%,14.509583%,14.509583%);fill-opacity:1;" d="M 338.167969 164.78125 C 341.113281 164.433594 343.183594 166.207031 346.277344 167.011719 C 347.785156 167.40625 349.351562 167.144531 350.527344 167.226562 C 349.324219 166.816406 347.753906 166.613281 346.445312 166.03125 C 345.21875 165.484375 344.261719 164.550781 343.136719 164.417969 C 344.964844 164.3125 345.464844 164.953125 347.152344 165.671875 C 348.550781 166.265625 351.203125 166.808594 352.15625 167.9375 C 349.578125 167.882812 347.390625 168.242188 345.652344 167.699219 C 343.1875 166.925781 341.34375 165.148438 338.167969 164.78125 "/>
<g clip-path="url(#clip4)" clip-rule="nonzero">
<path style=" stroke:none;fill-rule:evenodd;fill:rgb(92.158508%,23.919678%,0%);fill-opacity:1;" d="M 325.945312 175.226562 C 337.023438 174.320312 343.023438 163.417969 356.570312 167.761719 C 361.457031 169.328125 365.652344 172.894531 369.496094 178.519531 L 370.386719 182.164062 C 361.644531 192.058594 352.359375 192.519531 342.96875 188.949219 C 335.21875 186 332.355469 183.042969 325.671875 181.347656 C 320.46875 180.023438 321.183594 175.613281 325.945312 175.226562 "/>
</g>
<path style=" stroke:none;fill-rule:evenodd;fill:rgb(100%,39.608765%,7.058716%);fill-opacity:1;" d="M 348.828125 168.894531 C 354.039062 168.960938 358.976562 169.753906 362.273438 173.152344 C 363.796875 174.722656 364.546875 173.253906 363.351562 172.140625 C 359.789062 168.820312 353.273438 166.742188 348.683594 167.359375 C 347.019531 167.585938 347.046875 168.875 348.828125 168.894531 "/>
<g clip-path="url(#clip5)" clip-rule="nonzero">
<path style=" stroke:none;fill-rule:evenodd;fill:rgb(79.998779%,22.749329%,2.749634%);fill-opacity:1;" d="M 369.742188 179.53125 L 370.386719 182.164062 C 361.644531 192.058594 352.359375 192.519531 342.96875 188.949219 C 335.21875 186 332.355469 183.042969 325.671875 181.347656 C 323.828125 180.878906 322.726562 180.019531 322.285156 179.089844 C 322.6875 179.324219 323.167969 179.515625 323.734375 179.664062 C 330.417969 181.359375 334.6875 183.25 342.4375 186.195312 C 351.789062 189.746094 361.035156 189.304688 369.742188 179.53125 "/>
</g>
<path style=" stroke:none;fill-rule:evenodd;fill:rgb(72.938538%,14.509583%,14.509583%);fill-opacity:1;" d="M 355.746094 183.878906 C 352.519531 185.058594 348.945312 183.40625 347.761719 180.1875 C 346.578125 176.964844 348.234375 173.398438 351.460938 172.214844 C 354.683594 171.035156 358.261719 172.6875 359.445312 175.90625 C 360.628906 179.128906 358.972656 182.695312 355.746094 183.878906 "/>
<path style=" stroke:none;fill-rule:evenodd;fill:rgb(100%,100%,100%);fill-opacity:1;" d="M 356.183594 183.40625 C 353.074219 184.546875 349.625 182.953125 348.484375 179.847656 C 347.339844 176.738281 348.9375 173.292969 352.050781 172.15625 C 355.164062 171.015625 358.613281 172.613281 359.753906 175.71875 C 360.894531 178.824219 359.296875 182.269531 356.183594 183.40625 "/>
<path style=" stroke:none;fill-rule:evenodd;fill:rgb(86.669922%,86.669922%,86.268616%);fill-opacity:1;" d="M 356.183594 183.40625 C 353.074219 184.546875 349.625 182.953125 348.484375 179.847656 C 347.675781 177.652344 348.234375 175.289062 349.730469 173.6875 C 348.757812 175.207031 348.484375 177.152344 349.15625 178.980469 C 350.296875 182.085938 353.746094 183.679688 356.859375 182.539062 C 357.769531 182.203125 358.554688 181.675781 359.175781 181.007812 C 358.492188 182.078125 357.46875 182.9375 356.183594 183.40625 "/>
<path style=" stroke:none;fill-rule:evenodd;fill:rgb(72.938538%,14.509583%,14.509583%);fill-opacity:1;" d="M 360.425781 180.753906 C 358.390625 185.164062 355.089844 185.792969 350.667969 184.363281 C 355.121094 188.316406 360.207031 186.839844 360.425781 180.753906 "/>
<path style=" stroke:none;fill-rule:evenodd;fill:rgb(14.118958%,12.939453%,11.369324%);fill-opacity:1;" d="M 355.042969 180.308594 C 353.648438 180.820312 352.101562 180.101562 351.589844 178.710938 C 351.074219 177.316406 351.792969 175.765625 353.191406 175.257812 C 354.585938 174.746094 356.132812 175.460938 356.648438 176.855469 C 357.160156 178.25 356.441406 179.796875 355.042969 180.308594 "/>
<g clip-path="url(#clip6)" clip-rule="nonzero">
<path style=" stroke:none;fill-rule:evenodd;fill:rgb(54.899597%,10.978699%,10.978699%);fill-opacity:1;" d="M 369.402344 178.386719 C 365.472656 178.632812 365.769531 185.511719 361.738281 186.128906 C 365.453125 187.042969 365.976562 181.660156 370.089844 182.554688 C 371.636719 182.890625 370.976562 180.933594 370.203125 180.261719 C 370.59375 179.320312 370.859375 178.296875 369.402344 178.386719 "/>
</g>
<g clip-path="url(#clip7)" clip-rule="nonzero">
<path style=" stroke:none;fill-rule:evenodd;fill:rgb(72.938538%,14.509583%,14.509583%);fill-opacity:1;" d="M 370.898438 181.320312 C 370.75 180.917969 370.488281 180.515625 370.214844 180.273438 C 369.054688 180.226562 367.988281 180.546875 366.972656 181.730469 C 368.398438 180.980469 369.609375 181.019531 370.898438 181.320312 "/>
</g>
<path style=" stroke:none;fill-rule:evenodd;fill:rgb(54.899597%,10.978699%,10.978699%);fill-opacity:1;" d="M 351.230469 170.644531 C 353.117188 170.917969 354.101562 171.085938 355.886719 170.226562 L 355.953125 171.390625 C 354.902344 172.167969 353.097656 172.371094 351.273438 171.773438 L 351.230469 170.644531 "/>
<path style=" stroke:none;fill-rule:evenodd;fill:rgb(74.119568%,19.60907%,0%);fill-opacity:1;" d="M 342.816406 170.550781 C 340.667969 171.929688 339.765625 173.324219 342.804688 174.175781 C 338.167969 174.800781 339.140625 171.640625 342.816406 170.550781 "/>
<path style=" stroke:none;fill-rule:evenodd;fill:rgb(74.119568%,19.60907%,0%);fill-opacity:1;" d="M 341.152344 173.636719 C 339.925781 174.425781 339.40625 175.226562 341.148438 175.714844 C 338.488281 176.070312 339.046875 174.257812 341.152344 173.636719 "/>
<path style=" stroke:none;fill-rule:evenodd;fill:rgb(74.119568%,19.60907%,0%);fill-opacity:1;" d="M 338.816406 172.640625 C 337.585938 173.433594 337.066406 174.230469 338.808594 174.714844 C 336.148438 175.074219 336.707031 173.265625 338.816406 172.640625 "/>
<path style=" stroke:none;fill-rule:evenodd;fill:rgb(74.119568%,19.60907%,0%);fill-opacity:1;" d="M 338.46875 183.085938 C 336.460938 181.597656 335.671875 180.175781 338.699219 179.542969 C 334.203125 178.625 334.945312 181.78125 338.46875 183.085938 "/>
<path style=" stroke:none;fill-rule:evenodd;fill:rgb(74.119568%,19.60907%,0%);fill-opacity:1;" d="M 337.640625 179.816406 C 336.46875 178.945312 336.003906 178.113281 337.777344 177.746094 C 335.148438 177.210938 335.582031 179.050781 337.640625 179.816406 "/>
<path style=" stroke:none;fill-rule:evenodd;fill:rgb(74.119568%,19.60907%,0%);fill-opacity:1;" d="M 335.316406 176.242188 C 334.085938 177.03125 333.570312 177.832031 335.3125 178.320312 C 332.65625 178.679688 333.210938 176.867188 335.316406 176.242188 "/>
<path style=" stroke:none;fill-rule:evenodd;fill:rgb(74.119568%,19.60907%,0%);fill-opacity:1;" d="M 342.128906 180.304688 C 340.953125 179.433594 340.492188 178.601562 342.261719 178.234375 C 339.636719 177.695312 340.066406 179.539062 342.128906 180.304688 "/>
<path style=" stroke:none;fill-rule:evenodd;fill:rgb(74.119568%,19.60907%,0%);fill-opacity:1;" d="M 332.480469 175.320312 C 331.25 176.113281 330.730469 176.910156 332.472656 177.394531 C 329.816406 177.753906 330.375 175.945312 332.480469 175.320312 "/>
<path style=" stroke:none;fill-rule:evenodd;fill:rgb(74.119568%,19.60907%,0%);fill-opacity:1;" d="M 330.398438 181.140625 C 328.933594 180.054688 328.355469 179.015625 330.566406 178.554688 C 327.289062 177.882812 327.828125 180.1875 330.398438 181.140625 "/>
<path style=" stroke:none;fill-rule:evenodd;fill:rgb(74.119568%,19.60907%,0%);fill-opacity:1;" d="M 329.660156 178.703125 C 328.484375 177.832031 328.023438 177 329.792969 176.628906 C 327.167969 176.09375 327.597656 177.9375 329.660156 178.703125 "/>
<path style=" stroke:none;fill-rule:evenodd;fill:rgb(74.119568%,19.60907%,0%);fill-opacity:1;" d="M 327.257812 179.539062 C 326.082031 178.664062 325.621094 177.835938 327.390625 177.464844 C 324.765625 176.925781 325.199219 178.773438 327.257812 179.539062 "/>
<path style=" stroke:none;fill-rule:evenodd;fill:rgb(74.119568%,19.60907%,0%);fill-opacity:1;" d="M 334.066406 180.800781 C 332.894531 179.929688 332.429688 179.097656 334.199219 178.726562 C 331.574219 178.1875 332.007812 180.035156 334.066406 180.800781 "/>
<path style=" stroke:none;fill-rule:evenodd;fill:rgb(74.119568%,19.60907%,0%);fill-opacity:1;" d="M 343.144531 182.066406 C 341.972656 181.195312 341.507812 180.363281 343.28125 179.996094 C 340.652344 179.457031 341.085938 181.304688 343.144531 182.066406 "/>
<path style=" stroke:none;fill-rule:evenodd;fill:rgb(74.119568%,19.60907%,0%);fill-opacity:1;" d="M 341.671875 185.363281 C 340.203125 184.277344 339.628906 183.238281 341.839844 182.777344 C 338.5625 182.105469 339.101562 184.410156 341.671875 185.363281 "/>
<path style=" stroke:none;fill-rule:evenodd;fill:rgb(54.899597%,10.978699%,10.978699%);fill-opacity:1;" d="M 335.726562 185.554688 C 334.433594 185.078125 333.28125 184.414062 331.820312 184.445312 C 330.226562 184.484375 329.152344 185.539062 329.453125 186.042969 C 329.660156 186.382812 330.75 186.140625 331.796875 186.414062 C 332.988281 186.726562 333.871094 187.378906 335.050781 188.152344 C 337.371094 189.671875 339.507812 191.601562 343.695312 190.082031 C 345.78125 189.328125 347.984375 189.550781 348.164062 188.429688 C 348.484375 186.421875 344.980469 183.238281 341.476562 184.71875 C 339.878906 185.394531 337.832031 186.335938 335.726562 185.554688 "/>
<path style=" stroke:none;fill-rule:evenodd;fill:rgb(72.938538%,14.509583%,14.509583%);fill-opacity:1;" d="M 335.726562 185.554688 C 334.433594 185.078125 333.28125 184.414062 331.820312 184.445312 C 330.910156 184.464844 330.175781 184.816406 329.761719 185.210938 C 330.199219 185.289062 331.03125 185.15625 331.832031 185.332031 C 333.027344 185.585938 333.910156 186.199219 335.09375 186.917969 C 337.417969 188.328125 339.558594 190.15625 343.753906 188.445312 C 345.441406 187.757812 347.214844 187.707031 347.921875 187.113281 C 347.066406 185.324219 344.269531 183.539062 341.476562 184.71875 C 339.878906 185.394531 337.832031 186.335938 335.726562 185.554688 "/>
<path style=" stroke:none;fill-rule:evenodd;fill:rgb(54.899597%,10.978699%,10.978699%);fill-opacity:1;" d="M 345.929688 187.265625 C 343.925781 187.195312 342.320312 187.664062 340.503906 187.75 C 338.925781 187.828125 336.90625 187.132812 335.175781 186.492188 C 337.574219 187.882812 339.070312 188.554688 340.511719 188.554688 C 342.046875 188.554688 343.523438 187.8125 345.929688 187.265625 "/>
<path style=" stroke:none;fill-rule:evenodd;fill:rgb(54.899597%,10.978699%,10.978699%);fill-opacity:1;" d="M 338.085938 186.714844 C 339.933594 187.382812 343.386719 185.84375 345.4375 186.570312 C 343.445312 184.769531 340.5625 186.886719 338.085938 186.714844 "/>
<path style=" stroke:none;fill-rule:evenodd;fill:rgb(100%,39.608765%,7.058716%);fill-opacity:1;" d="M 365.441406 174.65625 C 365.796875 175.066406 365.828125 175.625 365.507812 175.90625 C 365.1875 176.183594 364.636719 176.078125 364.277344 175.667969 C 363.917969 175.257812 363.886719 174.699219 364.207031 174.421875 C 364.53125 174.140625 365.078125 174.246094 365.441406 174.65625 "/>
</g>
</svg>
